<?xml version="1.0" encoding="utf-8"?>
<!-- Generator: Adobe Illustrator 16.0.0, SVG Export Plug-In . SVG Version: 6.00 Build 0)  -->
<!DOCTYPE svg PUBLIC "-//W3C//DTD SVG 1.1//EN" "http://www.w3.org/Graphics/SVG/1.1/DTD/svg11.dtd">
<svg version="1.1" id="Layer_1" xmlns="http://www.w3.org/2000/svg" xmlns:xlink="http://www.w3.org/1999/xlink" x="0px" y="0px"
	 width="493.154px" height="686.162px" viewBox="0 0 493.154 686.162" enable-background="new 0 0 493.154 686.162"
	 xml:space="preserve">
<g>
	<polygon opacity="0.6" fill="#DEDFE0" points="207.613,684.669 207.613,686.162 303.737,647.914 301.77,647.168 	"/>
	<polygon opacity="0.6" fill="#DEDFE0" points="403.613,-0.275 399.613,-0.275 399.613,684.668 403.613,686.162 	"/>
	<polygon display="none" opacity="0.6" fill="#DEDFE0" points="207.613,-0.275 207.613,684.669 301.864,647.168 303.832,647.914 
		305.613,647.166 399.613,684.668 399.613,-0.275 	"/>
	<polygon opacity="0.6" points="207.613,-0.275 204.613,-0.275 204.613,686.162 207.613,684.669 301.864,647.168 303.807,647.904 
		303.783,647.914 399.613,686.162 399.613,684.668 305.601,647.171 305.613,647.166 399.613,684.668 399.613,-0.275 	"/>
</g>
<g opacity="0.95">
	<path fill="#FFFFFF" d="M302.172,273.415c-0.594-1.893-1.473-3.311-2.641-4.242c-1.174-0.938-2.637-1.404-4.387-1.404
		c-2.482,0-4.336,0.82-5.57,2.449c-1.236,1.641-1.842,3.533-1.842,5.686c0,0.877,0.154,1.746,0.457,2.611
		c0.311,0.863,0.76,1.734,1.357,2.611c4.592,0.189,6.887,1.691,6.887,4.508c0,0.619-0.277,1.115-0.84,1.494
		c-0.555,0.379-1.209,0.566-1.965,0.566c-0.76,0-1.41-0.176-1.955-0.529c-0.541-0.355-1.314-1.15-2.303-2.379
		c-0.602-0.762-1.203-1.139-1.846-1.139c-1.262,0-2.471,0.891-3.643,2.664c-1.17,1.777-1.75,3.648-1.75,5.613
		c0,4.547,1.969,8.268,5.91,11.154c3.943,2.889,8.965,4.336,15.078,4.336c3.885,0,7.217-0.412,9.994-1.227
		c2.781-0.82,5.186-2.373,7.211-4.67c2.018-2.295,3.037-4.939,3.037-7.92c0-3.008-1.055-5.691-3.152-8.049
		c-2.113-2.355-4.873-3.531-8.287-3.531c-2.465,0-4.51,0.709-6.156,2.123c-1.645,1.416-2.471,3.01-2.471,4.781
		c0,1.631,0.426,3.029,1.275,4.197c0.857,1.172,1.889,1.752,3.094,1.752c0.662,0,1.15-0.062,1.467-0.188
		c0.326-0.137,0.48-0.316,0.48-0.555c0-0.232-0.242-0.557-0.744-0.963c-0.803-0.686-1.203-1.359-1.203-2.02
		c0-0.855,0.346-1.529,1.062-2.025c0.713-0.494,1.42-0.744,2.137-0.744c0.826,0,1.643,0.324,2.465,0.959
		c0.818,0.646,1.227,1.586,1.227,2.818c0,1.43-0.58,2.607-1.736,3.527c-1.164,0.932-2.488,1.393-3.98,1.393
		c-2.035,0-3.74-0.859-5.111-2.578c-1.377-1.711-2.061-3.602-2.061-5.662c0-2.299,0.984-4.523,2.953-6.68
		c1.938-2.127,5.105-3.193,9.514-3.193c1.35,0,2.852,0.047,4.508,0.141c1.652,0.119,2.984,0.176,3.982,0.176
		c2.746,0,5.059-0.709,6.922-2.133c1.871-1.42,2.803-3.027,2.803-4.828c0-1.75-0.629-3.262-1.895-4.527s-2.584-1.902-3.967-1.902
		c-0.828,0-1.244,0.189-1.244,0.57c0,0.164,0.113,0.459,0.33,0.885c0.184,0.43,0.285,0.938,0.285,1.529
		c0,0.783-0.334,1.447-1.002,1.99c-0.664,0.545-1.393,0.818-2.197,0.818c-0.836,0-1.561-0.305-2.189-0.908
		c-0.627-0.605-0.943-1.379-0.943-2.324c0-1.281,0.479-2.32,1.445-3.131c0.953-0.799,2.197-1.205,3.703-1.205
		c2.727,0,5.033,0.869,6.922,2.611c1.902,1.738,2.844,4.068,2.844,6.979c0,2.346-0.598,4.314-1.789,5.912
		c-1.195,1.6-2.633,2.748-4.297,3.447c-1.662,0.701-3.99,1.184-6.979,1.438c2.434,2.893,3.65,6.303,3.65,10.23
		c0,5.234-2.113,9.613-6.357,13.143c-4.236,3.529-9.725,5.291-16.475,5.291c-7.002,0-12.719-1.826-17.131-5.484
		c-4.426-3.656-6.627-8.055-6.627-13.193c0-2.938,0.816-5.486,2.447-7.656c1.639-2.166,4.078-3.957,7.312-5.381
		c-0.873-1.254-1.529-2.498-1.969-3.732c-0.436-1.225-0.654-2.449-0.654-3.658c0-2.576,0.852-4.85,2.562-6.814
		c1.705-1.969,3.902-2.949,6.609-2.949c2.271,0,4.156,0.693,5.643,2.076c1.494,1.385,2.236,3.049,2.236,4.99
		C302.611,271.976,302.471,272.661,302.172,273.415"/>
	<path fill="#FFFFFF" d="M358.576,294.374l6.051,1.031l0.15-0.91c-0.453-0.076-0.766-0.547-0.695-1.055l-2.074-0.283
		c-1.186,0.584-4.311,0.598-7.879,0.006c-3.322-0.547-6.113-1.359-7.305-2.012c0.098-0.625,0.154-1.246,0.234-1.871l16.756,1.645
		l0.865,1.205c0.611-0.547,1.223-1.111,1.82-1.693c-0.492-0.676-0.988-1.338-1.504-1.984l-1.055,1.041l-16.801-1.25
		c0.049-0.627,0.09-1.256,0.102-1.887c1.283-0.443,4.18-0.766,7.541-0.729c3.621,0.039,6.697,0.582,7.762,1.365l2.096,0.072
		c0.014-0.51,0.408-0.922,0.857-0.918l0.014-0.92l-6.145-0.143l0.008-0.36h-12.098h-0.699h-0.254c-0.008,2-0.219,5.077-0.641,7.514
		l0.25,0.107l0.689,0.146l11.918,2.104L358.576,294.374z"/>
	<path fill="#FFFFFF" d="M367.391,295.556c-0.422-0.777-0.838-1.543-1.281-2.287c0.135,0.902,0.24,1.812,0.324,2.725l3.156,0.557
		L367.391,295.556z"/>
	<path fill="#FFFFFF" d="M368.254,285.445l2.336-0.72h-3.203c-0.242,1-0.51,1.819-0.785,2.685
		C367.168,286.753,367.717,286.136,368.254,285.445"/>
	<path fill="#FFFFFF" d="M356.115,303.743l5.77,2.076l0.316-0.877c-0.43-0.15-0.654-0.666-0.486-1.158l-2.004-0.643
		c-1.266,0.371-4.348-0.162-7.762-1.369c-3.164-1.115-5.766-2.406-6.828-3.254c0.188-0.598,0.377-1.197,0.543-1.799l16.217,4.541
		l0.643,1.344c0.697-0.438,1.393-0.887,2.078-1.359c-0.355-0.754-0.734-1.492-1.129-2.217c-0.406,0.287-0.814,0.57-1.223,0.844
		l-16.32-4.15c0.156-0.609,0.297-1.223,0.422-1.832c1.352-0.207,4.258-0.023,7.553,0.588c3.561,0.66,6.486,1.732,7.404,2.688
		l2.049,0.43c0.109-0.496,0.559-0.84,1.002-0.748l0.168-0.912l-6.043-1.088l0.039-0.234l-11.914-2.094l-0.686-0.115l-0.254-0.045
		c-0.422,2.436-1.072,4.824-1.912,7.141l0.242,0.092l0.654,0.238l11.365,4.139L356.115,303.743z"/>
	<path fill="#FFFFFF" d="M364.592,306.446c-0.268-0.842-0.553-1.662-0.869-2.48c-0.031,0.914-0.08,1.826-0.158,2.744l3.01,1.094
		L364.592,306.446z"/>
	<path fill="#FFFFFF" d="M367.186,296.735l2.398-0.186l-3.154-0.557c-0.391,0.836-0.797,1.65-1.227,2.459
		C365.875,297.897,366.535,297.327,367.186,296.735"/>
	<path fill="#FFFFFF" d="M352.051,312.536l5.33,3.053l0.453-0.803c-0.404-0.23-0.52-0.771-0.281-1.225l-1.85-0.986
		c-1.311,0.146-4.246-0.918-7.396-2.699c-2.924-1.654-5.27-3.379-6.17-4.404c0.303-0.553,0.584-1.109,0.861-1.672l15.17,7.303
		l0.391,1.436c0.773-0.305,1.533-0.627,2.293-0.971c-0.223-0.807-0.461-1.598-0.725-2.385l-1.357,0.619l-15.342-6.947
		c0.264-0.57,0.51-1.145,0.744-1.729c1.357,0.033,4.188,0.721,7.334,1.902c3.389,1.27,6.086,2.838,6.814,3.943l1.953,0.783
		c0.18-0.473,0.684-0.729,1.111-0.568l0.33-0.863l-5.766-2.127l0.078-0.229l-11.363-4.137l-0.66-0.234l-0.242-0.096
		c-0.844,2.324-1.895,4.566-3.133,6.707l0.229,0.131l0.602,0.346l10.473,6.062L352.051,312.536z"/>
	<path fill="#FFFFFF" d="M359.934,316.677c-0.127-0.869-0.264-1.734-0.422-2.584c-0.193,0.889-0.418,1.779-0.637,2.666l2.77,1.605
		L359.934,316.677z"/>
	<path fill="#FFFFFF" d="M364.184,307.571l2.391,0.236l-3.016-1.098c-0.527,0.752-1.076,1.492-1.633,2.205
		C362.68,308.491,363.438,308.04,364.184,307.571"/>
	<path fill="#FFFFFF" d="M346.531,320.489l4.715,3.926l0.59-0.711c-0.352-0.285-0.387-0.846-0.062-1.248l-1.652-1.297
		c-1.318-0.086-4.016-1.643-6.82-3.941c-2.588-2.137-4.598-4.244-5.301-5.4c0.387-0.5,0.77-1.002,1.135-1.51l13.666,9.834
		l0.141,1.482c0.805-0.174,1.623-0.352,2.426-0.561c-0.078-0.828-0.184-1.652-0.303-2.473l-1.441,0.373l-13.9-9.508
		c0.352-0.514,0.699-1.043,1.033-1.576c1.332,0.27,3.994,1.434,6.887,3.146c3.125,1.848,5.498,3.857,6.033,5.072l1.775,1.115
		c0.273-0.439,0.809-0.596,1.205-0.363l0.465-0.797l-5.295-3.098l0.123-0.207l-10.473-6.062l-0.605-0.346l-0.225-0.131
		c-1.244,2.141-2.672,4.174-4.264,6.07l0.203,0.168l0.531,0.447l9.26,7.783L346.531,320.489z"/>
	<path fill="#FFFFFF" d="M353.566,325.937c0.027-0.885,0.043-1.752,0.043-2.619c-0.342,0.84-0.707,1.678-1.094,2.514l2.461,2.066
		L353.566,325.937z"/>
	<path fill="#FFFFFF" d="M359.328,317.714l2.316,0.654l-2.77-1.607c-0.654,0.648-1.322,1.277-1.996,1.885
		C357.697,318.356,358.51,318.046,359.328,317.714"/>
	<path fill="#FFFFFF" d="M339.707,327.368l3.977,4.688l0.699-0.611c-0.305-0.352-0.23-0.9,0.148-1.246l-1.402-1.559
		c-1.283-0.311-3.678-2.311-6.043-5.062c-2.191-2.547-3.797-4.969-4.289-6.234c0.471-0.42,0.928-0.855,1.377-1.291l11.764,12.049
		l-0.113,1.477c0.812-0.018,1.643-0.062,2.482-0.123c0.061-0.834,0.105-1.66,0.135-2.486l-1.48,0.117l-12.045-11.768
		c0.436-0.449,0.875-0.908,1.287-1.373c1.266,0.494,3.691,2.105,6.24,4.293c2.748,2.355,4.742,4.752,5.062,6.039l1.547,1.4
		c0.348-0.377,0.896-0.453,1.248-0.15l0.607-0.697l-4.686-3.973l0.154-0.182l-9.26-7.783l-0.531-0.449l-0.203-0.168
		c-1.59,1.9-3.352,3.658-5.25,5.25l0.166,0.201l0.453,0.531l7.773,9.262L339.707,327.368z"/>
	<path fill="#FFFFFF" d="M345.699,333.944c0.186-0.861,0.348-1.723,0.488-2.57c-0.482,0.764-0.984,1.535-1.508,2.291l2.066,2.455
		L345.699,333.944z"/>
	<path fill="#FFFFFF" d="M352.789,326.847l2.18,1.047l-2.453-2.064c-0.764,0.521-1.529,1.025-2.293,1.508
		C351.078,327.194,351.936,327.036,352.789,326.847"/>
	<path fill="#FFFFFF" d="M331.805,332.97l3.102,5.295l0.793-0.473c-0.234-0.391-0.066-0.926,0.363-1.195l-1.107-1.779
		c-1.213-0.529-3.229-2.916-5.076-6.031c-1.717-2.889-2.873-5.551-3.141-6.887c0.535-0.33,1.055-0.678,1.572-1.029l9.51,13.893
		l-0.369,1.447c0.805,0.117,1.639,0.223,2.471,0.299c0.211-0.803,0.395-1.619,0.553-2.42l-1.471-0.143l-9.84-13.674
		c0.518-0.363,1.023-0.744,1.512-1.129c1.164,0.699,3.273,2.709,5.404,5.303c2.299,2.795,3.854,5.496,3.943,6.822l1.291,1.652
		c0.4-0.32,0.959-0.293,1.256,0.061l0.703-0.58l-3.928-4.727l0.189-0.156l-7.773-9.262l-0.453-0.527l-0.168-0.203
		c-1.898,1.596-3.928,3.02-6.068,4.258l0.131,0.229l0.348,0.605l6.057,10.469L331.805,332.97z"/>
	<path fill="#FFFFFF" d="M336.564,340.476c0.33-0.814,0.637-1.631,0.932-2.449c-0.611,0.678-1.24,1.348-1.891,1.998l1.613,2.775
		L336.564,340.476z"/>
	<path fill="#FFFFFF" d="M344.781,334.718l1.965,1.402l-2.07-2.455c-0.83,0.383-1.678,0.748-2.504,1.084
		C343.033,334.757,343.902,334.749,344.781,334.718"/>
	<path fill="#FFFFFF" d="M323.047,337.095l2.117,5.766l0.871-0.324c-0.164-0.434,0.088-0.928,0.57-1.121l-0.791-1.941
		c-1.104-0.73-2.676-3.434-3.941-6.82c-1.186-3.148-1.867-5.975-1.902-7.33c0.58-0.242,1.16-0.484,1.736-0.742l6.934,15.336
		l-0.615,1.357c0.791,0.26,1.582,0.502,2.391,0.727c0.338-0.766,0.664-1.525,0.975-2.295l-1.441-0.395l-7.303-15.168
		c0.559-0.275,1.125-0.562,1.67-0.859c1.027,0.9,2.75,3.236,4.402,6.166c1.785,3.154,2.857,6.088,2.699,7.404l0.988,1.846
		c0.453-0.238,0.994-0.115,1.227,0.281l0.801-0.451l-3.055-5.33l0.215-0.121l-6.055-10.469l-0.348-0.604l-0.133-0.227
		c-2.135,1.238-4.385,2.289-6.705,3.133l0.092,0.244l0.232,0.658l4.141,11.363L323.047,337.095z"/>
	<path fill="#FFFFFF" d="M326.422,345.331c0.469-0.748,0.91-1.498,1.344-2.25c-0.715,0.562-1.453,1.105-2.205,1.639l1.098,3.018
		L326.422,345.331z"/>
	<path fill="#FFFFFF" d="M335.527,341.079l1.691,1.725l-1.613-2.777c-0.887,0.232-1.779,0.449-2.672,0.637
		C333.791,340.819,334.656,340.96,335.527,341.079"/>
	<path fill="#FFFFFF" d="M313.699,339.64l1.082,6.049l0.914-0.168c-0.094-0.453,0.246-0.893,0.75-1.008l-0.43-2.049
		c-0.963-0.912-2.031-3.844-2.689-7.4c-0.615-3.303-0.795-6.213-0.58-7.555c0.602-0.127,1.213-0.268,1.824-0.422l4.16,16.314
		c-0.281,0.414-0.553,0.822-0.844,1.227c0.721,0.391,1.455,0.766,2.211,1.131c0.475-0.688,0.918-1.381,1.357-2.084l-1.35-0.643
		l-4.539-16.215c0.607-0.168,1.205-0.352,1.803-0.545c0.848,1.064,2.135,3.666,3.252,6.838c1.207,3.418,1.734,6.486,1.361,7.76
		l0.65,1.992c0.488-0.16,1.002,0.061,1.156,0.488l0.871-0.303l-2.07-5.781l0.223-0.078l-4.139-11.371l-0.232-0.656l-0.094-0.244
		c-2.314,0.844-4.705,1.49-7.145,1.912l0.043,0.258l0.125,0.682l2.086,11.916L313.699,339.64z"/>
	<path fill="#FFFFFF" d="M315.58,348.341c0.598-0.65,1.17-1.314,1.723-1.982c-0.809,0.422-1.631,0.834-2.461,1.227l0.549,3.16
		L315.58,348.341z"/>
	<path fill="#FFFFFF" d="M325.297,345.743l1.357,1.988l-1.1-3.018c-0.914,0.076-1.828,0.131-2.742,0.164
		C323.631,345.188,324.457,345.472,325.297,345.743"/>
	<path fill="#FFFFFF" d="M304.053,340.725l0.027,6.039l0.922-0.068c-0.008-0.457,0.4-0.859,0.914-0.879l-0.07-2.105
		c-0.787-1.07-1.33-4.144-1.361-7.769c-0.039-3.357,0.289-6.253,0.729-7.539c0.629-0.02,1.262-0.053,1.891-0.1l1.248,16.793
		l-1.037,1.053c0.646,0.518,1.301,1.014,1.977,1.504c0.584-0.6,1.152-1.207,1.697-1.822l-1.209-0.861l-1.639-16.762
		c0.623-0.062,1.252-0.133,1.871-0.221c0.65,1.193,1.465,3.98,2.014,7.297c0.592,3.574,0.58,6.693-0.014,7.881l0.289,2.074
		c0.512-0.066,0.99,0.234,1.055,0.686l0.906-0.148l-1.027-6.049l0.236-0.043l-2.092-11.916l-0.123-0.682l-0.648-0.258
		c-2.43,0.426-2.994,0.641-7.994,0.641v0.26v0.693v12.302H304.053L304.053,340.725z"/>
	<path fill="#FFFFFF" d="M304.315,349.411c0.693-0.545,1.313-1.094,1.968-1.656c-0.855,0.279-1.67,0.539-2.67,0.789v3.207
		L304.315,349.411z"/>
	<path fill="#FFFFFF" d="M314.402,348.544l0.988,2.201l-0.549-3.16c-0.914-0.084-1.828-0.189-2.725-0.32
		C312.859,347.712,313.625,348.126,314.402,348.544"/>
	<path fill="#FFFFFF" d="M294.398,339.724l-1.027,6.051l0.904,0.15c0.074-0.453,0.545-0.752,1.051-0.686l0.289-2.078
		c-0.588-1.184-0.592-4.303-0.004-7.879c0.537-3.318,1.357-6.104,2.008-7.299c0.625,0.088,1.252,0.16,1.877,0.223l-1.645,16.76
		l-1.211,0.861c0.549,0.611,1.115,1.223,1.699,1.824c0.678-0.494,1.336-0.984,1.982-1.504l-1.037-1.055l1.252-16.795
		c0.625,0.049,1.258,0.082,1.891,0.102c0.43,1.283,0.76,4.174,0.725,7.533c-0.039,3.623-0.584,6.695-1.367,7.764l-0.066,2.094
		c0.516,0.02,0.92,0.398,0.914,0.855l0.924,0.118l0.025-6.039h-0.969v-12.304v-0.693v-0.26c-2,0-4.357-0.215-6.797-0.641
		l0.259,0.256l0.026,0.684l-2.011,11.914L294.398,339.724z"/>
	<path fill="#FFFFFF" d="M293.221,348.544c0.777-0.42,1.543-0.832,2.285-1.279c-0.896,0.131-1.807,0.232-2.725,0.32l-0.555,3.16
		L293.221,348.544z"/>
	<path fill="#FFFFFF" d="M303.115,349.411l0.498,2.336v-3.209c-1-0.246-1.704-0.51-2.575-0.789
		C301.688,348.315,302.42,348.866,303.115,349.411"/>
	<path fill="#FFFFFF" d="M285.033,337.267l-2.078,5.779l0.875,0.303c0.145-0.426,0.662-0.646,1.154-0.486l0.643-1.994
		c-0.365-1.27,0.162-4.344,1.371-7.758c1.111-3.172,2.404-5.773,3.252-6.838c0.598,0.193,1.195,0.379,1.801,0.547l-4.539,16.213
		l-1.354,0.637c0.439,0.703,0.889,1.398,1.357,2.092c0.752-0.363,1.49-0.742,2.211-1.131c-0.281-0.406-0.566-0.814-0.84-1.227
		l4.158-16.314c0.607,0.152,1.221,0.293,1.828,0.42c0.211,1.342,0.039,4.252-0.594,7.557c-0.654,3.557-1.73,6.488-2.686,7.4
		l-0.426,2.047c0.506,0.115,0.848,0.555,0.762,1.008l0.904,0.17l1.08-6.047l0.234,0.045l2.092-11.916l0.123-0.682l0.043-0.256
		c-2.426-0.426-4.824-1.068-7.145-1.912l-0.088,0.244l-0.238,0.654l-4.135,11.367L285.033,337.267z"/>
	<path fill="#FFFFFF" d="M282.322,345.743c0.844-0.273,1.666-0.557,2.482-0.865c-0.91-0.035-1.824-0.088-2.746-0.164l-1.094,3.018
		L282.322,345.743z"/>
	<path fill="#FFFFFF" d="M292.035,348.341l0.188,2.404l0.555-3.16c-0.836-0.393-1.648-0.803-2.457-1.227
		C290.875,347.026,291.441,347.69,292.035,348.341"/>
	<path fill="#FFFFFF" d="M276.236,333.204l-3.055,5.33l0.805,0.451c0.229-0.4,0.773-0.52,1.221-0.281l0.984-1.846
		c-0.145-1.32,0.914-4.25,2.699-7.402c1.648-2.928,3.383-5.266,4.406-6.168c0.551,0.299,1.113,0.586,1.68,0.859l-7.316,15.172
		l-1.434,0.395c0.305,0.766,0.629,1.525,0.973,2.293c0.803-0.23,1.594-0.469,2.391-0.729l-0.621-1.357l6.949-15.336
		c0.566,0.256,1.146,0.5,1.727,0.742c-0.027,1.355-0.713,4.182-1.902,7.328c-1.266,3.391-2.84,6.092-3.938,6.822l-0.783,1.947
		c0.471,0.188,0.725,0.682,0.562,1.115l0.865,0.328l2.127-5.764l0.232,0.084l4.137-11.369l0.236-0.654l0.092-0.246
		c-2.314-0.844-4.564-1.893-6.705-3.133l-0.127,0.23l-0.344,0.604l-6.064,10.469L276.236,333.204z"/>
	<path fill="#FFFFFF" d="M272.092,341.079c0.875-0.125,1.736-0.26,2.588-0.42c-0.891-0.189-1.783-0.406-2.672-0.641l-1.613,2.781
		L272.092,341.079z"/>
	<path fill="#FFFFFF" d="M281.197,345.331l-0.232,2.4l1.094-3.016c-0.752-0.529-1.49-1.076-2.207-1.639
		C280.279,343.837,280.73,344.589,281.197,345.331"/>
	<path fill="#FFFFFF" d="M268.281,327.679l-3.928,4.723l0.711,0.586c0.291-0.359,0.844-0.387,1.252-0.064l1.293-1.65
		c0.088-1.326,1.639-4.027,3.941-6.824c2.137-2.594,4.246-4.6,5.406-5.303c0.496,0.387,0.988,0.764,1.498,1.133l-9.826,13.668
		l-1.48,0.143c0.162,0.801,0.352,1.617,0.559,2.422c0.824-0.084,1.652-0.184,2.469-0.301l-0.369-1.453l9.51-13.887
		c0.514,0.352,1.041,0.697,1.578,1.029c-0.273,1.334-1.441,3.998-3.156,6.889c-1.84,3.113-3.854,5.494-5.062,6.029l-1.115,1.779
		c0.439,0.27,0.602,0.807,0.365,1.197l0.795,0.471l3.102-5.295l0.211,0.119l6.053-10.469l0.352-0.604l0.127-0.227
		c-2.137-1.238-4.176-2.664-6.068-4.262l-0.168,0.203l-0.443,0.529l-7.783,9.262L268.281,327.679z"/>
	<path fill="#FFFFFF" d="M262.836,334.718c0.885,0.031,1.754,0.045,2.625,0.035c-0.844-0.338-1.684-0.703-2.514-1.086l-2.07,2.455
		L262.836,334.718z"/>
	<path fill="#FFFFFF" d="M271.059,340.476l-0.65,2.324l1.604-2.775c-0.645-0.652-1.273-1.32-1.885-1.998
		C270.414,338.847,270.73,339.661,271.059,340.476"/>
	<path fill="#FFFFFF" d="M261.4,320.862l-4.686,3.971l0.607,0.697c0.352-0.303,0.896-0.225,1.248,0.154l1.555-1.402
		c0.312-1.287,2.312-3.686,5.062-6.039c2.549-2.191,4.971-3.797,6.236-4.295c0.422,0.469,0.854,0.928,1.287,1.377l-12.045,11.766
		l-1.477-0.115c0.025,0.824,0.07,1.648,0.127,2.484c0.84,0.061,1.662,0.104,2.488,0.129l-0.115-1.484l11.764-12.045
		c0.445,0.439,0.902,0.873,1.371,1.287c-0.496,1.27-2.104,3.691-4.293,6.24c-2.355,2.752-4.75,4.75-6.043,5.062l-1.396,1.557
		c0.377,0.344,0.447,0.895,0.145,1.246l0.703,0.604l3.969-4.686l0.186,0.152l7.781-9.264l0.449-0.525l0.162-0.205
		c-1.895-1.592-3.656-3.348-5.248-5.248l-0.197,0.164l-0.531,0.451l-9.264,7.781L261.4,320.862z"/>
	<path fill="#FFFFFF" d="M254.826,326.847c0.861,0.189,1.723,0.348,2.574,0.492c-0.773-0.482-1.537-0.986-2.299-1.508l-2.451,2.066
		L254.826,326.847z"/>
	<path fill="#FFFFFF" d="M261.922,333.944l-1.045,2.176l2.064-2.455c-0.527-0.756-1.027-1.521-1.512-2.291
		C261.57,332.222,261.734,333.085,261.922,333.944"/>
	<path fill="#FFFFFF" d="M255.811,312.954l-5.305,3.098l0.471,0.797c0.398-0.234,0.932-0.076,1.199,0.365l1.775-1.117
		c0.531-1.213,2.918-3.225,6.033-5.072c2.893-1.711,5.559-2.879,6.887-3.145c0.334,0.533,0.686,1.062,1.037,1.576l-13.904,9.51
		l-1.438-0.375c-0.117,0.818-0.223,1.643-0.307,2.471c0.803,0.205,1.621,0.391,2.426,0.559l0.135-1.479l13.672-9.834
		c0.365,0.51,0.748,1.01,1.129,1.51c-0.697,1.158-2.707,3.268-5.299,5.402c-2.791,2.297-5.498,3.857-6.816,3.941l-1.656,1.293
		c0.326,0.402,0.295,0.963-0.057,1.25l0.58,0.711l4.725-3.928l0.156,0.188l9.256-7.783l0.537-0.447l0.197-0.164
		c-1.596-1.898-3.023-3.934-4.26-6.074l-0.223,0.131l-0.611,0.346l-10.467,6.062L255.811,312.954z"/>
	<path fill="#FFFFFF" d="M248.291,317.714c0.818,0.33,1.635,0.643,2.451,0.932c-0.676-0.609-1.34-1.236-1.994-1.885l-2.777,1.607
		L248.291,317.714z"/>
	<path fill="#FFFFFF" d="M254.057,325.937l-1.406,1.961l2.457-2.066c-0.383-0.836-0.748-1.674-1.09-2.514
		C254.008,324.185,254.025,325.052,254.057,325.937"/>
	<path fill="#FFFFFF" d="M251.676,304.196l-5.766,2.125l0.324,0.865c0.43-0.162,0.932,0.096,1.121,0.568l1.941-0.787
		c0.734-1.104,3.434-2.67,6.82-3.941c3.143-1.184,5.969-1.867,7.336-1.9c0.232,0.582,0.473,1.158,0.732,1.73l-15.342,6.947
		l-1.352-0.621c-0.26,0.787-0.502,1.578-0.727,2.385c0.77,0.344,1.535,0.666,2.299,0.971l0.396-1.434l15.174-7.305
		c0.268,0.562,0.557,1.119,0.848,1.674c-0.893,1.023-3.234,2.748-6.156,4.404c-3.16,1.781-6.092,2.848-7.41,2.703l-1.846,0.984
		c0.238,0.453,0.119,0.996-0.281,1.223l0.453,0.803l5.326-3.053l0.127,0.211l10.469-6.059l0.605-0.352l0.229-0.129
		c-1.244-2.139-2.293-4.383-3.137-6.707l-0.242,0.094l-0.654,0.238l-11.369,4.135L251.676,304.196z"/>
	<path fill="#FFFFFF" d="M243.438,307.571c0.746,0.469,1.496,0.916,2.252,1.344c-0.559-0.715-1.107-1.453-1.643-2.205l-3.012,1.098
		L243.438,307.571z"/>
	<path fill="#FFFFFF" d="M247.693,316.677l-1.723,1.688l2.773-1.605c-0.232-0.889-0.443-1.777-0.639-2.666
		C247.953,314.942,247.812,315.808,247.693,316.677"/>
	<path fill="#FFFFFF" d="M249.125,294.849l-6.045,1.086l0.176,0.908c0.445-0.088,0.891,0.254,0.998,0.752l2.047-0.428
		c0.918-0.957,3.844-2.025,7.408-2.689c3.305-0.615,6.209-0.795,7.551-0.588c0.127,0.609,0.268,1.227,0.422,1.832l-16.322,4.15
		c-0.404-0.271-0.816-0.555-1.219-0.842c-0.395,0.723-0.768,1.465-1.129,2.215c0.686,0.475,1.385,0.922,2.084,1.361l0.643-1.344
		l16.215-4.543c0.168,0.604,0.348,1.203,0.545,1.799c-1.062,0.846-3.664,2.137-6.838,3.252c-3.418,1.209-6.486,1.738-7.756,1.373
		l-1.994,0.641c0.156,0.492-0.062,1.008-0.492,1.158l0.307,0.875l5.775-2.076l0.082,0.225l11.369-4.137l0.658-0.24l0.238-0.09
		c-0.848-2.318-1.484-4.707-1.912-7.143l-0.254,0.045l-0.689,0.115l-11.91,2.092L249.125,294.849z"/>
	<path fill="#FFFFFF" d="M240.432,296.735c0.654,0.592,1.314,1.162,1.984,1.717c-0.422-0.809-0.832-1.627-1.223-2.459l-3.162,0.557
		L240.432,296.735z"/>
	<path fill="#FFFFFF" d="M243.029,306.446l-1.99,1.359l3.012-1.094c-0.074-0.918-0.127-1.83-0.16-2.744
		C243.584,304.784,243.301,305.604,243.029,306.446"/>
	<path fill="#FFFFFF" d="M248.613,285.204l-6.32,0.027l-0.081,0.922c0.461-0.006,0.794,0.406,0.81,0.916l2.075-0.072
		c1.068-0.783,4.123-1.326,7.744-1.365c3.363-0.033,6.244,0.285,7.537,0.73c0.021,0.629,0.05,1.26,0.093,1.885l-16.79,1.252
		l-1.064-1.043c-0.512,0.648-1.01,1.309-1.5,1.984c0.6,0.582,1.204,1.146,1.819,1.695l0.865-1.207l16.756-1.645
		c0.064,0.625,0.145,1.246,0.229,1.871c-1.188,0.652-3.986,1.465-7.301,2.012c-3.572,0.59-6.691,0.58-7.879-0.006l-2.068,0.283
		c0.072,0.512-0.234,0.98-0.689,1.055l0.148,0.91l6.051-1.033l0.043,0.24l11.918-2.092l0.682-0.117l0.256-0.165
		c-0.422-2.436-0.633-5.518-0.643-7.518h-0.254h-0.703h-11.732V285.204L248.613,285.204z"/>
	<path fill="#FFFFFF" d="M239.363,285.445c0.537,0.691,1.096,1.308,1.652,1.964c-0.279-0.865-0.541-1.685-0.785-2.685h-3.211
		L239.363,285.445z"/>
	<path fill="#FFFFFF" d="M240.227,295.556l-2.197,0.994l3.158-0.557c0.082-0.916,0.189-1.824,0.316-2.725
		C241.068,294.013,240.641,294.778,240.227,295.556"/>
	<path fill="#FFFFFF" d="M249.043,275.552l-6.049-1.035l-0.148,0.908c0.455,0.08,0.76,0.547,0.686,1.055l2.074,0.293
		c1.188-0.596,4.307-0.602,7.879-0.012c3.314,0.545,6.113,1.363,7.305,2.014c-0.084,0.623-0.162,1.246-0.232,1.873l-16.758-1.648
		l-0.863-1.205c-0.611,0.549-1.221,1.115-1.82,1.693c0.49,0.678,0.99,1.344,1.502,1.986l1.064-1.043l16.791,1.248
		c-0.043,0.631-0.074,1.258-0.102,1.887c-1.283,0.438-4.174,0.766-7.545,0.73c-3.617-0.039-6.689-0.586-7.752-1.369l-2.096-0.07
		c-0.02,0.512-0.398,0.924-0.854,0.92l0.168,0.92l6.32,0.027v0.001h11.732h0.697h0.26c0.006-2,0.217-4.841,0.643-7.277l-0.256,0.011
		l-0.686-0.084l-11.914-2.076L249.043,275.552z"/>
	<path fill="#FFFFFF" d="M240.227,274.368c0.42,0.779,0.842,1.543,1.277,2.291c-0.127-0.902-0.232-1.812-0.316-2.725l-3.158-0.555
		L240.227,274.368z"/>
	<path fill="#FFFFFF" d="M239.363,284.245l-2.342,0.48h3.211c0.24-1,0.506-1.699,0.785-2.564
		C240.459,282.82,239.9,283.549,239.363,284.245"/>
	<path fill="#FFFFFF" d="M251.504,266.183l-5.783-2.074l-0.303,0.873c0.43,0.148,0.648,0.664,0.492,1.156l1.994,0.643
		c1.27-0.375,4.342,0.16,7.756,1.367c3.174,1.115,5.77,2.412,6.838,3.258c-0.193,0.594-0.377,1.195-0.545,1.799l-16.215-4.541
		l-0.637-1.346c-0.705,0.434-1.402,0.887-2.09,1.361c0.361,0.748,0.734,1.488,1.133,2.217c0.402-0.289,0.811-0.57,1.219-0.844
		l16.322,4.152c-0.158,0.605-0.299,1.217-0.426,1.832c-1.342,0.203-4.246,0.025-7.545-0.59c-3.564-0.66-6.496-1.73-7.41-2.689
		l-2.047-0.434c-0.105,0.506-0.549,0.846-1.002,0.756l-0.17,0.91l6.049,1.086l-0.045,0.236l11.914,2.09l0.686,0.115l0.256,0.047
		c0.426-2.436,1.062-4.826,1.91-7.146l-0.236-0.086l-0.658-0.242l-11.365-4.137L251.504,266.183z"/>
	<path fill="#FFFFFF" d="M243.029,263.476c0.271,0.84,0.555,1.668,0.861,2.48c0.035-0.908,0.088-1.828,0.16-2.744l-3.012-1.094
		L243.029,263.476z"/>
	<path fill="#FFFFFF" d="M240.432,273.19l-2.4,0.186l3.162,0.557c0.391-0.83,0.797-1.65,1.223-2.457
		C241.746,272.028,241.086,272.599,240.432,273.19"/>
	<path fill="#FFFFFF" d="M255.564,257.394l-5.326-3.057l-0.453,0.803c0.404,0.229,0.52,0.77,0.281,1.225l1.846,0.986
		c1.318-0.146,4.25,0.916,7.408,2.699c2.924,1.652,5.262,3.381,6.158,4.402c-0.295,0.553-0.58,1.113-0.85,1.68l-15.174-7.312
		l-0.395-1.434c-0.77,0.309-1.529,0.633-2.299,0.969c0.232,0.811,0.465,1.6,0.725,2.389l1.354-0.619l15.342,6.943
		c-0.26,0.572-0.51,1.148-0.734,1.73c-1.357-0.027-4.184-0.721-7.338-1.898c-3.385-1.277-6.086-2.842-6.816-3.945l-1.941-0.783
		c-0.189,0.477-0.691,0.732-1.121,0.57l-0.326,0.863l5.766,2.125l-0.088,0.232l11.369,4.135l0.658,0.238l0.238,0.09
		c0.844-2.318,1.895-4.566,3.137-6.705l-0.227-0.129l-0.607-0.352l-10.467-6.057L255.564,257.394z"/>
	<path fill="#FFFFFF" d="M247.693,253.247c0.119,0.873,0.264,1.736,0.412,2.586c0.195-0.891,0.41-1.783,0.643-2.672l-2.777-1.611
		L247.693,253.247z"/>
	<path fill="#FFFFFF" d="M243.438,262.351l-2.398-0.232l3.012,1.096c0.531-0.75,1.08-1.488,1.639-2.205
		C244.938,261.433,244.188,261.884,243.438,262.351"/>
	<path fill="#FFFFFF" d="M261.088,249.435l-4.721-3.93l-0.574,0.713c0.348,0.291,0.383,0.85,0.057,1.252l1.648,1.295
		c1.322,0.084,4.025,1.641,6.82,3.941c2.596,2.131,4.6,4.238,5.303,5.4c-0.387,0.494-0.764,1-1.133,1.51l-13.668-9.834l-0.141-1.479
		c-0.803,0.168-1.621,0.35-2.426,0.555c0.09,0.828,0.186,1.654,0.305,2.473l1.441-0.369l13.904,9.504
		c-0.357,0.516-0.703,1.043-1.033,1.578c-1.336-0.27-3.994-1.432-6.891-3.148c-3.121-1.848-5.502-3.857-6.033-5.068l-1.771-1.115
		c-0.273,0.436-0.805,0.6-1.203,0.367l-0.471,0.789l5.303,3.104l-0.121,0.207l10.467,6.057l0.607,0.352l0.227,0.127
		c1.236-2.139,2.668-4.174,4.26-6.07l-0.197-0.162l-0.537-0.451l-9.26-7.777L261.088,249.435z"/>
	<path fill="#FFFFFF" d="M254.057,243.989c-0.035,0.883-0.049,1.752-0.039,2.617c0.338-0.842,0.703-1.676,1.084-2.512l-2.461-2.064
		L254.057,243.989z"/>
	<path fill="#FFFFFF" d="M248.291,252.208l-2.32-0.654l2.777,1.613c0.654-0.648,1.318-1.277,1.994-1.887
		C249.922,251.567,249.109,251.878,248.291,252.208"/>
	<path fill="#FFFFFF" d="M267.912,242.554l-3.977-4.688l-0.703,0.607c0.303,0.352,0.236,0.9-0.145,1.246l1.4,1.557
		c1.279,0.312,3.684,2.309,6.043,5.062c2.189,2.543,3.797,4.967,4.293,6.234c-0.469,0.418-0.93,0.85-1.375,1.289l-11.764-12.047
		l0.115-1.48c-0.828,0.023-1.645,0.068-2.484,0.127c-0.061,0.832-0.105,1.658-0.137,2.482l1.482-0.113l12.049,11.762
		c-0.439,0.453-0.869,0.914-1.291,1.379c-1.262-0.494-3.688-2.102-6.232-4.291c-2.754-2.355-4.75-4.75-5.062-6.037l-1.555-1.402
		c-0.348,0.377-0.896,0.447-1.248,0.15l-0.607,0.697l4.68,3.973l-0.148,0.186l9.26,7.779l0.535,0.449l0.197,0.164
		c1.592-1.896,3.35-3.658,5.248-5.246l-0.162-0.201l-0.449-0.533l-7.777-9.26L267.912,242.554z"/>
	<path fill="#FFFFFF" d="M261.922,235.981c-0.188,0.861-0.352,1.719-0.492,2.572c0.484-0.768,0.984-1.535,1.512-2.293l-2.064-2.453
		L261.922,235.981z"/>
	<path fill="#FFFFFF" d="M254.826,243.073l-2.176-1.043l2.457,2.062c0.756-0.52,1.52-1.023,2.293-1.506
		C256.549,242.728,255.688,242.89,254.826,243.073"/>
	<path fill="#FFFFFF" d="M275.818,236.96l-3.104-5.303l-0.795,0.473c0.238,0.391,0.076,0.932-0.359,1.199l1.111,1.779
		c1.213,0.529,3.227,2.91,5.066,6.029c1.715,2.891,2.883,5.553,3.156,6.887c-0.531,0.332-1.064,0.676-1.578,1.029l-9.51-13.896
		l0.369-1.443c-0.812-0.119-1.639-0.221-2.469-0.303c-0.207,0.809-0.393,1.625-0.559,2.426l1.48,0.141l9.83,13.674
		c-0.514,0.363-1.01,0.742-1.506,1.131c-1.166-0.701-3.266-2.711-5.406-5.309c-2.299-2.795-3.854-5.498-3.938-6.818l-1.293-1.654
		c-0.408,0.318-0.965,0.291-1.256-0.068l-0.713,0.586l3.934,4.725l-0.184,0.156l7.773,9.26l0.453,0.531l0.158,0.201
		c1.898-1.592,3.932-3.018,6.072-4.258l-0.131-0.225l-0.348-0.604l-6.061-10.471L275.818,236.96z"/>
	<path fill="#FFFFFF" d="M271.059,229.442c-0.328,0.824-0.645,1.635-0.932,2.451c0.607-0.674,1.24-1.342,1.885-1.994l-1.604-2.779
		L271.059,229.442z"/>
	<path fill="#FFFFFF" d="M262.836,235.204l-1.959-1.398l2.064,2.455c0.832-0.383,1.672-0.744,2.516-1.09
		C264.59,235.165,263.715,235.181,262.836,235.204"/>
	<path fill="#FFFFFF" d="M284.576,232.827l-2.127-5.766l-0.865,0.328c0.162,0.424-0.092,0.926-0.562,1.115l0.777,1.945
		c1.104,0.734,2.678,3.432,3.947,6.824c1.182,3.145,1.867,5.969,1.902,7.33c-0.584,0.234-1.164,0.477-1.73,0.74l-6.949-15.344
		l0.621-1.355c-0.787-0.262-1.582-0.498-2.387-0.727c-0.34,0.762-0.664,1.523-0.967,2.293l1.432,0.396l7.312,15.17
		c-0.566,0.27-1.129,0.562-1.678,0.854c-1.025-0.896-2.76-3.238-4.408-6.164c-1.779-3.15-2.848-6.088-2.703-7.402l-0.984-1.848
		c-0.447,0.238-0.992,0.117-1.221-0.281l-0.801,0.451l3.051,5.328l-0.207,0.123l6.051,10.473l0.352,0.602l0.127,0.225
		c2.137-1.238,4.387-2.289,6.707-3.133l-0.092-0.246l-0.238-0.65l-4.135-11.367L284.576,232.827z"/>
	<path fill="#FFFFFF" d="M281.197,224.595c-0.467,0.744-0.918,1.498-1.34,2.25c0.711-0.559,1.455-1.105,2.201-1.637l-1.094-3.014
		L281.197,224.595z"/>
	<path fill="#FFFFFF" d="M272.092,228.847l-1.688-1.723l1.607,2.777c0.893-0.236,1.781-0.451,2.672-0.639
		C273.828,229.103,272.967,228.964,272.092,228.847"/>
	<path fill="#FFFFFF" d="M293.92,230.282l-1.082-6.049l-0.904,0.172c0.088,0.455-0.25,0.893-0.762,1l0.432,2.053
		c0.963,0.916,2.029,3.844,2.686,7.41c0.623,3.295,0.799,6.203,0.598,7.545c-0.611,0.129-1.227,0.273-1.828,0.424l-4.162-16.316
		c0.277-0.408,0.562-0.816,0.84-1.225c-0.717-0.389-1.455-0.766-2.211-1.129c-0.471,0.686-0.914,1.383-1.357,2.082l1.348,0.646
		l4.545,16.215c-0.607,0.166-1.205,0.346-1.803,0.545c-0.848-1.062-2.139-3.668-3.256-6.836c-1.203-3.418-1.736-6.492-1.365-7.762
		l-0.643-1.994c-0.488,0.162-1.006-0.059-1.156-0.49l-0.873,0.309l2.074,5.773l-0.23,0.084l4.141,11.369l0.232,0.65l0.092,0.246
		c2.32-0.844,4.717-1.479,7.146-1.904l-0.045-0.262l-0.121-0.682l-2.088-11.918L293.92,230.282z"/>
	<path fill="#FFFFFF" d="M292.035,221.587c-0.594,0.65-1.166,1.312-1.715,1.979c0.805-0.424,1.621-0.834,2.457-1.229l-0.555-3.156
		L292.035,221.587z"/>
	<path fill="#FFFFFF" d="M282.322,224.181l-1.357-1.986l1.094,3.014c0.918-0.078,1.832-0.133,2.746-0.166
		C283.988,224.735,283.166,224.454,282.322,224.181"/>
	<path fill="#FFFFFF" d="M303.57,230.725l-0.027-6.802l-0.922-0.317c0.004,0.459-0.41,0.671-0.918,0.691l0.07,2.014
		c0.785,1.061,1.33,4.092,1.365,7.713c0.035,3.355-0.295,6.233-0.725,7.518c-0.633,0.018-1.262,0.041-1.895,0.088l-1.252-16.798
		l1.041-1.059c-0.645-0.512-1.305-1.012-1.98-1.502c-0.586,0.6-1.152,1.203-1.701,1.818l1.213,0.863l1.643,16.758
		c-0.623,0.062-1.252,0.139-1.877,0.227c-0.648-1.193-1.467-3.984-2.008-7.303c-0.588-3.57-0.584-6.689,0.004-7.875l-0.289-2.076
		c-0.51,0.068-0.98-0.232-1.051-0.688l-0.91,0.148l1.033,6.053l-0.236,0.041l2.092,11.92l0.123,0.68l-0.547,0.262
		c2.436-0.428,4.797-0.643,6.797-0.643v-0.258v-0.695v-10.778H303.57L303.57,230.725z"/>
	<path fill="#FFFFFF" d="M303.115,220.517c-0.695,0.539-1.421,1.092-2.077,1.652c0.871-0.279,1.575-0.539,2.575-0.783v-3.209
		L303.115,220.517z"/>
	<path fill="#FFFFFF" d="M293.221,221.378l-0.994-2.197l0.555,3.156c0.918,0.088,1.828,0.193,2.725,0.32
		C294.758,222.214,293.994,221.792,293.221,221.378"/>
	<path fill="#FFFFFF" d="M313.221,230.2l1.027-6.051l-0.904-0.152c-0.07,0.455-0.545,0.754-1.055,0.686l-0.291,2.078
		c0.594,1.186,0.607,4.307,0.014,7.875c-0.545,3.314-1.357,6.104-2.012,7.305c-0.617-0.09-1.244-0.162-1.873-0.23l1.643-16.758
		l1.209-0.861c-0.545-0.613-1.115-1.221-1.695-1.818c-0.678,0.49-1.332,0.99-1.979,1.502l1.037,1.059l-1.252,16.791
		c-0.625-0.047-1.262-0.078-1.885-0.1c-0.439-1.287-0.77-4.178-0.734-7.537c0.039-3.621,0.588-6.695,1.367-7.758l0.07-2.098
		c-0.514-0.02-0.924-0.395-0.914-0.854l-0.924,0.646l-0.025,6.8h-1.432v10.778v0.695v0.262c5,0,5.557,0.213,7.99,0.641l0.343-0.262
		l0.271-0.682l2.161-11.918L313.221,230.2z"/>
	<path fill="#FFFFFF" d="M314.402,221.378c-0.781,0.414-1.543,0.836-2.285,1.279c0.896-0.127,1.811-0.234,2.725-0.32l0.549-3.156
		L314.402,221.378z"/>
	<path fill="#FFFFFF" d="M304.315,220.517l-0.702-2.34v3.209c1,0.244,1.814,0.504,2.67,0.783
		C305.633,221.61,305.009,221.058,304.315,220.517"/>
	<path fill="#FFFFFF" d="M322.59,232.655l2.074-5.773l-0.875-0.309c-0.145,0.432-0.668,0.652-1.156,0.49l-0.645,1.994
		c0.373,1.27-0.16,4.346-1.363,7.762c-1.117,3.168-2.404,5.773-3.252,6.836c-0.602-0.199-1.199-0.379-1.807-0.545l4.539-16.215
		l1.355-0.646c-0.436-0.693-0.889-1.396-1.359-2.082c-0.756,0.365-1.494,0.74-2.211,1.129c0.287,0.404,0.559,0.816,0.84,1.225
		l-4.16,16.316c-0.611-0.15-1.215-0.295-1.824-0.424c-0.215-1.342-0.039-4.25,0.58-7.545c0.658-3.566,1.736-6.494,2.693-7.41
		l0.426-2.053c-0.504-0.105-0.844-0.547-0.75-1.002l-0.914-0.172l-1.078,6.049l-0.242-0.045l-2.086,11.918l-0.123,0.682
		l-0.045,0.262c2.439,0.426,4.826,1.061,7.146,1.904l0.088-0.246l0.232-0.65l4.139-11.369L322.59,232.655z"/>
	<path fill="#FFFFFF" d="M325.297,224.181c-0.84,0.273-1.666,0.555-2.484,0.859c0.91,0.033,1.824,0.088,2.742,0.166l1.1-3.014
		L325.297,224.181z"/>
	<path fill="#FFFFFF" d="M315.58,221.587l-0.189-2.404l-0.549,3.156c0.83,0.395,1.648,0.805,2.461,1.229
		C316.75,222.901,316.174,222.237,315.58,221.587"/>
	<path fill="#FFFFFF" d="M331.379,236.718l3.049-5.33l-0.795-0.449c-0.238,0.396-0.773,0.518-1.227,0.281l-0.988,1.848
		c0.148,1.314-0.914,4.246-2.699,7.402c-1.646,2.924-3.375,5.266-4.402,6.166c-0.545-0.297-1.111-0.582-1.67-0.859l7.303-15.168
		l1.441-0.396c-0.311-0.77-0.627-1.529-0.975-2.293c-0.805,0.229-1.6,0.465-2.391,0.73l0.615,1.35l-6.934,15.344
		c-0.582-0.26-1.156-0.504-1.736-0.738c0.035-1.361,0.711-4.186,1.902-7.334c1.266-3.387,2.838-6.086,3.941-6.82l0.791-1.945
		c-0.479-0.191-0.734-0.688-0.57-1.115l-0.871-0.328l-2.117,5.762l-0.234-0.086l-4.135,11.367l-0.232,0.65l-0.092,0.246
		c2.314,0.844,4.564,1.889,6.701,3.133l0.137-0.23l0.348-0.6l6.051-10.473L331.379,236.718z"/>
	<path fill="#FFFFFF" d="M335.527,228.847c-0.875,0.119-1.736,0.258-2.59,0.418c0.893,0.188,1.785,0.402,2.672,0.639l1.613-2.777
		L335.527,228.847z"/>
	<path fill="#FFFFFF" d="M326.422,224.595l0.236-2.402l-1.098,3.014c0.752,0.531,1.49,1.078,2.205,1.637
		C327.336,226.093,326.891,225.341,326.422,224.595"/>
	<path fill="#FFFFFF" d="M339.332,242.249l3.934-4.723l-0.703-0.59c-0.299,0.361-0.861,0.389-1.262,0.068l-1.291,1.652
		c-0.084,1.32-1.639,4.023-3.943,6.82c-2.131,2.598-4.244,4.605-5.4,5.307c-0.492-0.387-0.998-0.768-1.506-1.133l9.83-13.67
		l1.471-0.143c-0.156-0.801-0.342-1.617-0.549-2.422c-0.83,0.08-1.66,0.182-2.469,0.299l0.369,1.443l-9.51,13.896
		c-0.52-0.355-1.041-0.695-1.578-1.029c0.271-1.33,1.432-3.996,3.143-6.883c1.846-3.125,3.863-5.504,5.08-6.033l1.104-1.779
		c-0.432-0.27-0.604-0.812-0.361-1.201l-0.795-0.473l-3.104,5.303l-0.211-0.119l-6.061,10.473l-0.342,0.602l-0.137,0.225
		c2.141,1.238,4.176,2.666,6.074,4.262l0.166-0.199l0.449-0.535l7.777-9.26L339.332,242.249z"/>
	<path fill="#FFFFFF" d="M344.781,235.204c-0.883-0.025-1.744-0.039-2.609-0.033c0.83,0.346,1.678,0.707,2.504,1.09l2.07-2.455
		L344.781,235.204z"/>
	<path fill="#FFFFFF" d="M336.564,229.442l0.654-2.322l-1.613,2.779c0.65,0.652,1.27,1.318,1.891,1.994
		C337.201,231.077,336.895,230.267,336.564,229.442"/>
	<path fill="#FFFFFF" d="M346.219,249.065l4.68-3.973l-0.602-0.699c-0.352,0.301-0.896,0.23-1.252-0.15l-1.553,1.402
		c-0.316,1.285-2.307,3.682-5.062,6.037c-2.547,2.191-4.973,3.797-6.234,4.295c-0.422-0.469-0.848-0.93-1.289-1.381l12.047-11.764
		l1.477,0.109c-0.027-0.82-0.062-1.646-0.133-2.48c-0.834-0.059-1.66-0.104-2.479-0.129l0.115,1.48l-11.766,12.047
		c-0.451-0.439-0.904-0.869-1.379-1.289c0.5-1.268,2.105-3.691,4.293-6.236c2.365-2.754,4.75-4.752,6.039-5.062l1.406-1.555
		c-0.383-0.348-0.457-0.896-0.15-1.248l-0.703-0.607l-3.973,4.688l-0.184-0.15l-7.779,9.26l-0.447,0.531l-0.168,0.201
		c1.898,1.592,3.662,3.352,5.252,5.248l0.203-0.164l0.531-0.449l9.254-7.781L346.219,249.065z"/>
	<path fill="#FFFFFF" d="M352.789,243.073c-0.854-0.188-1.711-0.348-2.566-0.486c0.764,0.482,1.529,0.986,2.293,1.506l2.453-2.062
		L352.789,243.073z"/>
	<path fill="#FFFFFF" d="M345.699,235.981l1.047-2.174l-2.066,2.453c0.523,0.756,1.025,1.523,1.508,2.293
		C346.047,237.698,345.885,236.841,345.699,235.981"/>
	<path fill="#FFFFFF" d="M351.812,256.972l5.301-3.102l-0.471-0.791c-0.396,0.232-0.932,0.07-1.199-0.367l-1.779,1.115
		c-0.527,1.209-2.91,3.223-6.031,5.07c-2.887,1.715-5.555,2.881-6.891,3.146c-0.328-0.531-0.676-1.061-1.031-1.578l13.904-9.506
		l1.441,0.371c0.119-0.814,0.225-1.641,0.303-2.471c-0.805-0.203-1.621-0.387-2.426-0.555l-0.141,1.475l-13.668,9.836
		c-0.363-0.512-0.75-1.016-1.137-1.51c0.703-1.164,2.711-3.27,5.299-5.4c2.805-2.299,5.502-3.857,6.82-3.941l1.652-1.295
		c-0.324-0.402-0.285-0.961,0.066-1.252l-0.594-0.713l-4.715,3.934l-0.154-0.186l-9.258,7.779l-0.533,0.451l-0.197,0.16
		c1.59,1.898,3.016,3.936,4.258,6.074l0.229-0.127l0.604-0.352l10.471-6.057L351.812,256.972z"/>
	<path fill="#FFFFFF" d="M359.328,252.208c-0.818-0.33-1.641-0.641-2.449-0.93c0.674,0.611,1.342,1.238,1.996,1.887l2.77-1.613
		L359.328,252.208z"/>
	<path fill="#FFFFFF" d="M353.566,243.989l1.402-1.963l-2.457,2.066c0.383,0.836,0.746,1.672,1.09,2.51
		C353.605,245.741,353.594,244.872,353.566,243.989"/>
	<path fill="#FFFFFF" d="M355.953,265.726l5.762-2.123l-0.33-0.863c-0.422,0.164-0.928-0.096-1.111-0.57l-1.953,0.785
		c-0.725,1.104-3.426,2.668-6.811,3.945c-3.143,1.182-5.977,1.871-7.338,1.9c-0.234-0.582-0.48-1.158-0.738-1.73l15.34-6.943
		l1.359,0.619c0.258-0.789,0.504-1.58,0.725-2.385c-0.766-0.34-1.529-0.664-2.299-0.973l-0.387,1.434l-15.174,7.311
		c-0.273-0.564-0.555-1.125-0.861-1.678c0.9-1.021,3.246-2.748,6.174-4.4c3.146-1.785,6.082-2.846,7.396-2.701l1.85-0.986
		c-0.236-0.457-0.127-1,0.281-1.223l-0.457-0.805l-5.326,3.057l-0.119-0.215l-10.471,6.057l-0.604,0.352l-0.229,0.127
		c1.24,2.141,2.289,4.389,3.133,6.707l0.242-0.088l0.66-0.238l11.363-4.139L355.953,265.726z"/>
	<path fill="#FFFFFF" d="M364.184,262.351c-0.752-0.467-1.504-0.918-2.25-1.344c0.555,0.717,1.098,1.455,1.635,2.205l3.01-1.098
		L364.184,262.351z"/>
	<path fill="#FFFFFF" d="M359.934,253.247l1.715-1.693l-2.766,1.613c0.225,0.883,0.445,1.777,0.633,2.674
		C359.67,254.983,359.807,254.12,359.934,253.247"/>
	<path fill="#FFFFFF" d="M358.492,275.073l6.047-1.084l-0.172-0.91c-0.443,0.088-0.891-0.252-1-0.758l-2.049,0.436
		c-0.914,0.959-3.846,2.029-7.404,2.689c-3.305,0.615-6.211,0.795-7.555,0.59c-0.123-0.613-0.254-1.229-0.422-1.834l16.32-4.15
		c0.41,0.273,0.818,0.555,1.223,0.844c0.395-0.729,0.773-1.465,1.129-2.221c-0.686-0.473-1.379-0.926-2.078-1.357l-0.641,1.346
		l-16.217,4.541c-0.166-0.605-0.355-1.205-0.545-1.801c1.062-0.844,3.664-2.145,6.828-3.256c3.424-1.205,6.496-1.742,7.766-1.367
		l2-0.645c-0.168-0.488,0.053-1.006,0.488-1.156l-0.316-0.873l-5.77,2.074l-0.08-0.229l-11.369,4.141l-0.654,0.238l-0.242,0.086
		c0.844,2.322,1.486,4.713,1.916,7.145l0.25-0.047l0.688-0.117l11.912-2.088L358.492,275.073z"/>
	<path fill="#FFFFFF" d="M367.186,273.19c-0.646-0.592-1.311-1.164-1.982-1.717c0.426,0.807,0.836,1.627,1.227,2.457l3.16-0.557
		L367.186,273.19z"/>
	<path fill="#FFFFFF" d="M364.592,263.476l1.982-1.357l-3.01,1.094c0.078,0.916,0.131,1.836,0.158,2.744
		C364.039,265.144,364.324,264.315,364.592,263.476"/>
	<path fill="#FFFFFF" d="M359.363,284.604l6.148,0.033l-0.02-0.895c-0.447,0.008-0.838-0.39-0.852-0.904l-2.102,0.081
		c-1.066,0.783-4.139,1.331-7.756,1.368c-3.357,0.037-6.252-0.289-7.541-0.727c-0.018-0.629-0.053-1.259-0.102-1.886l16.797-1.249
		l1.059,1.042c0.516-0.643,1.012-1.309,1.504-1.984c-0.602-0.58-1.205-1.146-1.824-1.697l-0.865,1.207l-16.756,1.646
		c-0.07-0.625-0.137-1.246-0.234-1.869c1.195-0.654,3.986-1.471,7.305-2.014c3.572-0.59,6.691-0.584,7.879,0.01l2.078-0.289
		c-0.07-0.512,0.234-0.977,0.691-1.055l-0.15-0.908l-6.047,1.035l-0.049-0.24l-11.914,2.09l-0.684,0.115l-0.256-0.069
		c0.426,2.436,0.637,5.279,0.643,7.279h0.258h0.695h12.098L359.363,284.604z"/>
	<path fill="#FFFFFF" d="M368.254,284.245c-0.537-0.695-1.086-1.426-1.648-2.084c0.281,0.865,0.539,1.564,0.785,2.564h3.209
		L368.254,284.245z"/>
	<path fill="#FFFFFF" d="M367.391,274.368l2.199-0.988l-3.156,0.555c-0.078,0.914-0.189,1.822-0.324,2.725
		C366.553,275.911,366.979,275.144,367.391,274.368"/>
</g>
<g>
	<g opacity="0.8">
		<path fill="#4B3087" d="M124.57,41.085c-10.398,2.361-18.818,8.752-25.26,19.178c-8.689,14.076-13.018,31.424-12.99,52.053
			c18.02-6.438,33.479-5.68,46.365,2.277c10.848,6.701,17.611,16.898,20.275,30.594c2.672,13.693,0.398,26.391-6.818,38.074
			c-2.83,4.576-6.775,8.92-11.854,13.037c-5.08,4.115-8.428,5.672-10.057,4.674c-0.404-0.484-0.451-0.986-0.139-1.49
			c0.264-0.422,0.938-0.943,2.025-1.557c6.246-3.393,11.014-7.764,14.307-13.098c5.959-9.652,6.912-20.49,2.867-32.523
			c-4.045-12.031-11.838-21.605-23.365-28.725c-9.918-6.123-20.977-8.031-33.172-5.727c2.373,26.877,15.752,59.258,40.133,97.145
			c14.764,22.93,24.205,41.406,28.314,55.418c4.113,14.016,5.266,30.828,3.461,50.436c-2.293,23.059-7.73,41.545-16.312,55.439
			c-7.016,11.367-15.459,19.209-25.332,23.537c-9.873,4.326-18.707,4.076-26.506-0.736c-4.324-2.674-7.26-6.262-8.799-10.783
			c-1.533-4.525-1.211-8.572,0.988-12.127c3.189-5.176,7.672-5.98,13.438-2.422c2.885,1.779,4.807,4.168,5.764,7.166
			c0.959,2.992,0.658,5.764-0.914,8.299c-2.719,4.416-6.318,5.117-10.793,2.115c-1.811-1.23-2.848-1.637-3.109-1.213
			c-0.838,1.361,0.988,3.422,5.484,6.191c7.035,4.354,15.021,4.512,23.949,0.482c8.926-4.029,16.639-11.307,23.127-21.824
			c11.465-18.562,14.984-39.633,10.568-63.203c-1.932-10.326-4.604-19.758-7.996-28.293c-3.646-9.275-13.234-30.535-28.773-63.781
			c-7.6-16.52-14.301-34.59-20.1-54.211c-5.803-19.623-8.986-35.234-9.559-46.826c-19.438,6.266-37.061,22.197-52.867,47.801
			C8.83,202.237,2.547,241.337,12.074,283.745c7.797,34.791,21.062,57.967,39.801,69.531c9.496,5.871,18.922,7.475,28.285,4.824
			c9.369-2.648,17.266-9.188,23.703-19.617c10.521-17.041,13.215-39.701,8.078-67.986c-5.131-28.289-15.422-47.193-30.844-56.723
			c-12.291-7.588-22.34-5.068-30.141,7.564c-7.799,12.631-9.105,30.531-3.924,53.689c5.176,23.162,13.951,38.562,26.314,46.193
			c3.049,1.885,6.309,2.484,9.77,1.797c3.467-0.684,6.043-2.393,7.729-5.117c0.891-1.451,1.725-1.939,2.484-1.467
			c0.684,0.42,0.518,1.436-0.479,3.053c-2.525,4.088-6.494,6.393-11.91,6.922c-5.418,0.535-10.795-0.842-16.129-4.137
			c-13.215-8.16-21.615-23.355-25.201-45.596c-3.592-22.236-0.67-40.984,8.752-56.246c9.002-14.582,20.242-17.711,33.723-9.389
			c16.447,10.152,27.33,29.695,32.654,58.625c5.324,28.934,2.41,52.424-8.736,70.482c-7.277,11.783-16.641,19.031-28.086,21.738
			c-11.449,2.711-23.105,0.406-34.973-6.926c-23.992-14.814-37.527-41.873-40.6-81.186c-3.074-39.307,5.518-75.367,25.773-108.176
			c15.391-24.924,33.867-42.434,55.449-52.537c-0.094-21.475,4.338-39.469,13.291-53.965c7.014-11.357,16.037-18.398,27.08-21.131"
			/>
		<path fill="#4B3087" d="M195.77,186.921c0.82,0.816,1.789,7.447,2.904,19.895c0.984,10.146,0.154,16.551-2.486,19.217
			c-1.787,1.807-3.92,2.607-6.395,2.402c-2.482-0.199-4.736-1.311-6.775-3.328c-2.113-2.094-3.783-4.992-5.008-8.688
			c1.602,9.348,2.332,16.014,2.195,19.982c-0.139,3.98-1.176,6.949-3.119,8.906c-2.055,2.076-4.672,2.938-7.852,2.58
			c-3.176-0.355-6.119-1.873-8.822-4.549c-7.514-7.451-8.914-19.354-4.193-35.715c2.031-7.217,4.465-12.256,7.299-15.117
			c2.406-2.428,4.781-2.479,7.137-0.148c0.664,0.658,1.389,1.689,2.178,3.086l-2.732-8.639c1.441-0.902,2.604-1.807,3.496-2.707
			c1.051-1.059,2.27-2.562,3.668-4.518l6.906,27.449c2.455,9.584,4.648,15.322,6.566,17.223c1.84,1.824,3.518,1.973,5.035,0.439
			c1.555-1.566,2.244-5.855,2.078-12.859c-0.168-7.01-1.113-14.9-2.834-23.68c-0.158-0.619-0.139-1.033,0.055-1.229
			C195.299,186.688,195.535,186.69,195.77,186.921z M170.012,193.47c-1.92-1.898-3.752-1.969-5.496-0.207
			c-3.572,3.602-4.734,11.822-3.486,24.662c1.248,12.842,4.045,21.416,8.391,25.723c2.549,2.521,4.943,2.648,7.195,0.377
			c2.674-2.705,2.83-11.828,0.461-27.373C175.104,203.919,172.754,196.188,170.012,193.47z"/>
		<path fill="#4B3087" d="M209.643,156.573l0.18,1.396l-8.84,6.262l3.172,36.371c0.355,4.412,1.186,7.539,2.488,9.383
			c1.438,2.021,3.215,2.283,5.326,0.787c4.098-2.906,5.955-14.945,5.566-36.121c-0.004-0.676,0.109-1.092,0.332-1.252
			c0.268-0.189,0.498-0.152,0.689,0.115c0.049,0.168,0.082,0.689,0.094,1.561l-0.08,6.045c-0.135,17.758-2.34,28.152-6.617,31.188
			c-2.117,1.496-4.43,1.98-6.928,1.459c-2.506-0.521-4.57-1.932-6.195-4.227c-1.912-2.703-3.113-6.916-3.598-12.654l-2.146-27.059
			l-6.887,4.875l-0.043-1.488l6.748-4.781l-1.381-18.688c1.605-0.596,3.016-1.322,4.229-2.184c1.26-0.893,2.434-1.996,3.529-3.312
			l1.518,18.588L209.643,156.573z"/>
		<path fill="#4B3087" d="M261.77,154.743c0.188,0.402-0.432,2.939-1.863,7.611c-1.775,6.006-4.328,9.805-7.668,11.408
			c-3.785,1.814-6.725,0.535-8.824-3.836c-0.666-1.393-1.215-3.299-1.643-5.725c-1.822,4.238-3.07,8.168-3.744,11.795
			c-0.676,3.627-1.445,10.725-2.307,21.287c-2.732,1.064-4.318,1.703-4.768,1.916c-0.197,0.098-1.662,0.924-4.402,2.482
			l2.713-25.699c1.348-12.873,1.443-20.506,0.299-22.891c-0.666-1.393-1.576-1.816-2.723-1.266
			c-2.785,1.34-5.273,9.121-7.455,23.344c-0.113,0.914-0.346,1.451-0.699,1.617c-0.221,0.047-0.389-0.051-0.514-0.301
			c-0.068-0.273-0.066-0.521,0.016-0.742l0.443-2.512c2.768-13.891,5.521-21.49,8.26-22.805c3.984-1.912,7.205-0.311,9.66,4.814
			c1.836,3.826,2.227,9.875,1.182,18.139c1.152-4.221,2.445-7.842,3.873-10.85c-0.232-5.328,0.342-10.16,1.719-14.488
			c1.377-4.332,3.188-7.031,5.42-8.107c1.547-0.736,2.637-0.439,3.277,0.906c1.146,2.387-0.676,7.449-5.463,15.188
			c-0.76,1.221-1.914,3.025-3.455,5.418l-0.537,1.174c0.404,2.623,0.959,4.678,1.672,6.168c2.004,4.176,4.576,5.512,7.713,4.004
			c3.889-1.863,6.574-7.107,8.072-15.742c0.467-1.574,0.832-2.422,1.078-2.539C261.408,154.37,261.629,154.448,261.77,154.743z"/>
		<path fill="#4B3087" d="M287.205,152.034c-0.01,0.174-0.154,0.672-0.443,1.494l-2.137,5.656
			c-6.18,16.648-11.904,25.697-17.17,27.145c-2.5,0.689-4.834,0.375-7-0.949c-2.166-1.314-3.617-3.301-4.346-5.959
			c-0.848-3.082-0.309-8.266,1.639-15.547l6.623-24.555c1.748-0.078,3.102-0.254,4.061-0.516c1.432-0.396,3.4-1.135,5.9-2.225
			l-9.908,34.721c-1.42,5.023-1.807,8.701-1.17,11.043c0.664,2.391,2.242,3.242,4.742,2.555c4.732-1.305,10.74-12.035,18.021-32.195
			c0.127-0.604,0.312-0.943,0.58-1.014C286.918,151.601,287.121,151.714,287.205,152.034z M276.975,119.384
			c0.514,1.861,0.211,3.814-0.91,5.867c-1.121,2.057-2.615,3.336-4.469,3.85c-2.391,0.656-3.92-0.209-4.576-2.602
			c-0.486-1.758-0.127-3.67,1.078-5.744c1.199-2.072,2.711-3.359,4.518-3.854C274.887,116.271,276.346,117.101,276.975,119.384z"/>
		<path fill="#4B3087" d="M327.031,149.622c0.076,0.709-3.299,5.734-10.115,15.076c-7.457,10.129-14.158,15.508-20.084,16.145
			c-3.836,0.412-7.285-0.703-10.344-3.34c-3.062-2.639-4.809-5.986-5.242-10.041c-0.492-4.604,0.861-9.576,4.064-14.906
			c3.189-5.334,7.748-10.121,13.676-14.361c4.988-3.639,9.15-5.639,12.498-5.998c4.061-0.432,6.346,1.76,6.873,6.582
			c0.4,3.783-0.475,7.703-2.615,11.76c-2.135,4.057-4.473,6.215-6.996,6.486c-2.465,0.266-3.832-0.836-4.09-3.303
			c-0.309-2.906,1.92-5.861,6.701-8.869c3.695-2.336,5.361-5.066,5.018-8.193c-0.254-2.467-1.734-3.557-4.416-3.27
			c-4.553,0.492-9.658,5.613-15.328,15.367c-5.66,9.758-8.166,17.705-7.506,23.842c0.549,5.158,3.242,7.473,8.078,6.955
			c7.57-0.812,16.922-10.451,28.027-28.914c0.625-0.953,1.104-1.449,1.428-1.482C326.879,149.192,327.006,149.345,327.031,149.622z"
			/>
		<path fill="#4B3087" d="M353.58,153.198c-0.057,0.162-0.352,0.592-0.889,1.287l-3.762,4.732
			c-10.994,13.953-19.207,20.812-24.666,20.576c-2.598-0.109-4.721-1.125-6.381-3.041c-1.656-1.924-2.422-4.258-2.303-7.012
			c0.141-3.197,2.246-7.963,6.328-14.297l13.826-21.344c1.691,0.461,3.039,0.711,4.023,0.756c1.49,0.062,3.592-0.043,6.307-0.309
			L325.99,164.56c-2.891,4.346-4.389,7.729-4.49,10.154c-0.115,2.48,1.137,3.771,3.727,3.885
			c4.898,0.207,13.918-8.164,27.021-25.123c0.299-0.537,0.584-0.803,0.857-0.791C353.434,152.694,353.594,152.868,353.58,153.198z
			 M353.848,118.983c-0.084,1.926-0.971,3.697-2.672,5.305c-1.701,1.613-3.516,2.377-5.441,2.293
			c-2.482-0.107-3.664-1.396-3.559-3.879c0.078-1.814,1.006-3.527,2.785-5.133c1.777-1.607,3.605-2.371,5.484-2.291
			C352.811,115.38,353.945,116.614,353.848,118.983z"/>
		<path fill="#4B3087" d="M411.482,163.423c-0.232,1.135-5.266,5.562-15.096,13.275c-7.973,6.352-13.795,9.15-17.469,8.389
			c-2.482-0.518-4.324-1.871-5.502-4.057c-1.178-2.188-1.477-4.688-0.893-7.49c0.607-2.916,2.119-5.898,4.559-8.938
			c-6.971,6.434-12.156,10.684-15.566,12.73c-3.418,2.049-6.469,2.799-9.158,2.242c-2.869-0.6-5.014-2.326-6.447-5.184
			c-1.432-2.859-1.762-6.15-0.988-9.875c2.158-10.365,11.373-18.023,27.668-22.979c7.15-2.227,12.709-2.936,16.646-2.117
			c3.34,0.695,4.676,2.662,4.008,5.902c-0.189,0.914-0.654,2.088-1.406,3.512l5.766-6.998c1.539,0.711,2.928,1.197,4.17,1.453
			c1.455,0.303,3.385,0.506,5.779,0.611l-19.252,20.752c-6.701,7.279-10.309,12.246-10.863,14.889
			c-0.52,2.539,0.268,4.025,2.373,4.463c2.162,0.447,6.139-1.309,11.922-5.268c5.787-3.959,11.883-9.049,18.309-15.275
			c0.436-0.473,0.795-0.68,1.068-0.625C411.426,162.903,411.557,163.099,411.482,163.423z M391.957,145.394
			c0.549-2.643-0.383-4.219-2.816-4.723c-4.967-1.029-12.498,2.473-22.58,10.516c-10.09,8.043-15.754,15.061-17.002,21.051
			c-0.721,3.512,0.475,5.588,3.607,6.238c3.727,0.775,11.461-4.07,23.203-14.527C385.98,155.36,391.176,149.173,391.957,145.394z"/>
	</g>
	<g>
		<path fill="#FFFFFF" d="M122.705,37.019c-10.391,2.357-18.803,8.744-25.238,19.16c-8.674,14.061-13,31.393-12.977,51.994
			c18.006-6.43,33.447-5.67,46.32,2.277c10.838,6.693,17.592,16.879,20.252,30.561c2.672,13.682,0.398,26.363-6.811,38.037
			c-2.824,4.572-6.768,8.908-11.842,13.021c-5.07,4.113-8.42,5.668-10.041,4.67c-0.406-0.484-0.453-0.982-0.141-1.486
			c0.26-0.422,0.938-0.939,2.023-1.555c6.238-3.389,11.006-7.756,14.293-13.084c5.955-9.643,6.91-20.471,2.865-32.49
			c-4.039-12.018-11.826-21.582-23.342-28.693c-9.906-6.117-20.953-8.025-33.139-5.725c2.371,26.854,15.736,59.199,40.09,97.047
			c14.752,22.906,24.18,41.365,28.285,55.361c4.105,14,5.262,30.793,3.455,50.381c-2.289,23.031-7.719,41.496-16.291,55.383
			c-7.01,11.342-15.443,19.182-25.305,23.502c-9.863,4.32-18.688,4.078-26.484-0.734c-4.314-2.662-7.248-6.258-8.785-10.779
			c-1.535-4.508-1.207-8.545,0.99-12.102c3.188-5.162,7.662-5.969,13.418-2.418c2.879,1.775,4.801,4.164,5.762,7.156
			s0.656,5.758-0.912,8.299c-2.717,4.404-6.311,5.109-10.779,2.109c-1.811-1.225-2.846-1.639-3.107-1.213
			c-0.84,1.359,0.986,3.42,5.479,6.188c7.029,4.342,15.002,4.5,23.924,0.471c8.914-4.025,16.621-11.299,23.104-21.797
			c11.453-18.541,14.969-39.59,10.557-63.137c-1.93-10.316-4.596-19.738-7.988-28.264c-3.641-9.264-13.219-30.502-28.738-63.713
			c-7.594-16.504-14.287-34.551-20.082-54.152c-5.795-19.604-8.977-35.197-9.545-46.779c-19.418,6.256-37.025,22.174-52.816,47.75
			C7.094,198.007,0.82,237.062,10.338,279.427c7.783,34.754,21.035,57.908,39.754,69.469c9.486,5.857,18.9,7.455,28.258,4.811
			s17.248-9.178,23.678-19.594c10.506-17.021,13.199-39.664,8.07-67.92c-5.127-28.26-15.402-47.145-30.814-56.664
			c-12.279-7.58-22.316-5.062-30.107,7.559c-7.789,12.617-9.1,30.494-3.922,53.633c5.168,23.137,13.936,38.523,26.287,46.148
			c3.047,1.881,6.303,2.48,9.762,1.795c3.465-0.688,6.035-2.391,7.719-5.115c0.893-1.447,1.725-1.936,2.482-1.459
			c0.682,0.416,0.516,1.432-0.479,3.045c-2.525,4.08-6.484,6.385-11.898,6.916c-5.412,0.535-10.785-0.844-16.115-4.135
			c-13.199-8.152-21.59-23.33-25.174-45.547c-3.586-22.215-0.668-40.943,8.746-56.186c8.99-14.57,20.217-17.695,33.686-9.383
			c16.43,10.143,27.303,29.668,32.619,58.564c5.316,28.902,2.41,52.371-8.729,70.408c-7.268,11.771-16.623,19.014-28.059,21.709
			c-11.438,2.711-23.082,0.408-34.939-6.916c-23.967-14.793-37.49-41.828-40.555-81.098c-3.072-39.266,5.514-75.287,25.746-108.061
			c15.373-24.898,33.832-42.389,55.391-52.484c-0.09-21.455,4.338-39.426,13.279-53.906c7.008-11.346,16.021-18.381,27.051-21.107"
			/>
		<path fill="#FFFFFF" d="M193.936,182.862c0.824,0.816,1.793,7.447,2.908,19.891c0.982,10.148,0.15,16.553-2.488,19.219
			c-1.785,1.807-3.918,2.607-6.396,2.404c-2.48-0.203-4.732-1.312-6.771-3.33c-2.113-2.094-3.785-4.99-5.012-8.688
			c1.604,9.348,2.336,16.014,2.195,19.986c-0.139,3.979-1.176,6.949-3.115,8.906c-2.057,2.076-4.674,2.936-7.854,2.578
			c-3.176-0.355-6.119-1.875-8.822-4.549c-7.516-7.451-8.916-19.354-4.197-35.713c2.033-7.219,4.467-12.258,7.299-15.117
			c2.406-2.426,4.781-2.477,7.135-0.146c0.666,0.66,1.391,1.689,2.178,3.088l-2.729-8.643c1.438-0.902,2.602-1.805,3.494-2.705
			c1.049-1.059,2.27-2.562,3.662-4.521l6.908,27.451c2.457,9.58,4.65,15.326,6.568,17.219c1.84,1.826,3.518,1.975,5.033,0.445
			c1.551-1.57,2.246-5.857,2.08-12.865c-0.17-7.006-1.115-14.898-2.836-23.676c-0.158-0.621-0.141-1.033,0.053-1.229
			C193.467,182.628,193.697,182.63,193.936,182.862z M168.176,189.409c-1.92-1.898-3.752-1.973-5.5-0.207
			c-3.568,3.602-4.73,11.822-3.482,24.662c1.248,12.842,4.043,21.416,8.391,25.723c2.551,2.521,4.941,2.646,7.197,0.375
			c2.674-2.705,2.832-11.824,0.457-27.369C173.271,199.854,170.918,192.128,168.176,189.409z"/>
		<path fill="#FFFFFF" d="M207.811,152.511l0.178,1.398l-8.842,6.262l3.172,36.369c0.354,4.412,1.188,7.541,2.49,9.385
			c1.438,2.023,3.215,2.285,5.326,0.783c4.098-2.902,5.951-14.941,5.568-36.121c-0.006-0.672,0.105-1.09,0.328-1.248
			c0.266-0.191,0.498-0.15,0.693,0.115c0.045,0.168,0.082,0.691,0.094,1.562l-0.082,6.045c-0.133,17.758-2.338,28.154-6.615,31.186
			c-2.115,1.5-4.43,1.986-6.928,1.465c-2.506-0.523-4.568-1.934-6.193-4.229c-1.914-2.701-3.115-6.914-3.6-12.656l-2.146-27.059
			l-6.885,4.875l-0.047-1.49l6.75-4.781l-1.381-18.684c1.604-0.596,3.014-1.322,4.229-2.184c1.262-0.893,2.436-1.996,3.531-3.312
			l1.518,18.59L207.811,152.511z"/>
		<path fill="#FFFFFF" d="M259.938,150.685c0.188,0.398-0.428,2.936-1.863,7.611c-1.771,6.006-4.334,9.803-7.664,11.404
			c-3.789,1.816-6.727,0.537-8.826-3.836c-0.668-1.393-1.215-3.297-1.645-5.723c-1.82,4.236-3.066,8.166-3.744,11.791
			c-0.676,3.629-1.445,10.729-2.305,21.291c-2.732,1.062-4.318,1.701-4.77,1.916c-0.197,0.1-1.664,0.922-4.404,2.484l2.717-25.699
			c1.344-12.871,1.443-20.506,0.299-22.893c-0.668-1.391-1.576-1.814-2.723-1.264c-2.789,1.338-5.273,9.119-7.457,23.344
			c-0.113,0.916-0.344,1.453-0.695,1.617c-0.223,0.047-0.391-0.055-0.514-0.301c-0.07-0.273-0.068-0.52,0.016-0.744l0.445-2.512
			c2.768-13.893,5.52-21.49,8.258-22.807c3.984-1.91,7.207-0.309,9.66,4.814c1.838,3.83,2.232,9.877,1.184,18.145
			c1.154-4.223,2.445-7.842,3.873-10.85c-0.232-5.33,0.336-10.162,1.719-14.488c1.375-4.33,3.189-7.031,5.422-8.109
			c1.537-0.734,2.633-0.436,3.279,0.906c1.141,2.387-0.678,7.451-5.469,15.188c-0.756,1.219-1.91,3.025-3.451,5.418l-0.537,1.176
			c0.404,2.621,0.959,4.678,1.67,6.168c2.008,4.176,4.574,5.51,7.717,4.004c3.889-1.861,6.574-7.109,8.072-15.74
			c0.465-1.574,0.83-2.426,1.076-2.545C259.572,150.306,259.791,150.388,259.938,150.685z"/>
		<path fill="#FFFFFF" d="M285.371,147.97c-0.012,0.176-0.156,0.676-0.447,1.502l-2.135,5.654
			c-6.184,16.645-11.906,25.699-17.18,27.146c-2.492,0.688-4.828,0.375-6.996-0.949c-2.166-1.316-3.611-3.307-4.35-5.963
			c-0.844-3.084-0.303-8.266,1.643-15.549l6.619-24.551c1.748-0.08,3.102-0.252,4.064-0.518c1.438-0.395,3.402-1.135,5.902-2.225
			l-9.906,34.721c-1.424,5.023-1.811,8.705-1.172,11.041c0.658,2.393,2.24,3.242,4.74,2.559
			c4.732-1.305,10.744-12.037,18.018-32.195c0.133-0.605,0.316-0.943,0.586-1.018C285.078,147.538,285.285,147.653,285.371,147.97z
			 M275.137,115.323c0.516,1.861,0.207,3.816-0.91,5.865c-1.125,2.055-2.613,3.336-4.469,3.85c-2.395,0.656-3.92-0.207-4.578-2.6
			c-0.484-1.756-0.129-3.67,1.076-5.746c1.205-2.072,2.707-3.357,4.514-3.854C273.055,112.206,274.514,113.036,275.137,115.323z"/>
		<path fill="#FFFFFF" d="M325.195,145.562c0.07,0.711-3.301,5.734-10.121,15.076c-7.457,10.127-14.15,15.506-20.074,16.143
			c-3.84,0.416-7.295-0.705-10.354-3.34c-3.059-2.641-4.803-5.986-5.238-10.041c-0.496-4.607,0.861-9.574,4.061-14.906
			c3.195-5.336,7.752-10.121,13.68-14.363c4.992-3.637,9.15-5.637,12.5-5.996c4.055-0.432,6.34,1.76,6.863,6.584
			c0.404,3.781-0.465,7.701-2.605,11.756c-2.141,4.061-4.475,6.217-7,6.488c-2.467,0.264-3.828-0.838-4.084-3.303
			c-0.32-2.906,1.916-5.859,6.689-8.867c3.703-2.338,5.365-5.068,5.031-8.191c-0.26-2.469-1.736-3.557-4.426-3.27
			c-4.543,0.49-9.658,5.611-15.324,15.369c-5.66,9.752-8.164,17.699-7.51,23.84c0.555,5.156,3.248,7.473,8.072,6.955
			c7.578-0.812,16.924-10.451,28.043-28.914c0.609-0.953,1.098-1.445,1.428-1.484C325.041,145.132,325.174,145.284,325.195,145.562z
			"/>
		<path fill="#FFFFFF" d="M351.742,149.138c-0.061,0.162-0.352,0.592-0.883,1.287l-3.775,4.732
			c-10.986,13.951-19.199,20.812-24.662,20.578c-2.588-0.107-4.715-1.125-6.375-3.043c-1.652-1.922-2.418-4.258-2.305-7.01
			c0.137-3.195,2.246-7.961,6.324-14.299l13.83-21.342c1.691,0.463,3.037,0.711,4.025,0.752c1.484,0.064,3.59-0.039,6.301-0.309
			l-20.074,30.014c-2.891,4.344-4.381,7.73-4.49,10.15c-0.109,2.48,1.139,3.775,3.727,3.887c4.912,0.213,13.922-8.162,27.018-25.123
			c0.303-0.535,0.59-0.803,0.865-0.793C351.605,148.634,351.756,148.806,351.742,149.138z M352.012,114.923
			c-0.084,1.926-0.977,3.699-2.672,5.305c-1.701,1.611-3.512,2.377-5.445,2.291c-2.475-0.105-3.66-1.396-3.561-3.879
			c0.084-1.816,1.012-3.527,2.799-5.135c1.771-1.604,3.6-2.369,5.477-2.289C350.973,111.317,352.111,112.554,352.012,114.923z"/>
		<path fill="#FFFFFF" d="M409.658,159.362c-0.236,1.137-5.273,5.564-15.113,13.277c-7.971,6.352-13.785,9.148-17.463,8.389
			c-2.484-0.52-4.32-1.871-5.498-4.057c-1.178-2.191-1.477-4.688-0.896-7.494c0.605-2.916,2.123-5.896,4.553-8.938
			c-6.971,6.436-12.15,10.686-15.561,12.734c-3.414,2.049-6.461,2.799-9.164,2.236c-2.855-0.592-5.014-2.32-6.438-5.18
			c-1.432-2.859-1.762-6.15-0.992-9.875c2.152-10.365,11.373-18.023,27.658-22.98c7.164-2.227,12.713-2.934,16.66-2.113
			c3.34,0.693,4.672,2.658,4.008,5.9c-0.193,0.918-0.664,2.088-1.406,3.512l5.766-6.998c1.537,0.713,2.936,1.201,4.17,1.455
			c1.455,0.303,3.389,0.51,5.783,0.609l-19.256,20.752c-6.697,7.281-10.314,12.244-10.863,14.891
			c-0.523,2.537,0.258,4.023,2.373,4.461c2.162,0.449,6.139-1.307,11.926-5.264c5.775-3.961,11.879-9.053,18.312-15.275
			c0.432-0.473,0.787-0.684,1.055-0.629C409.592,158.843,409.729,159.04,409.658,159.362z M390.125,141.333
			c0.545-2.643-0.387-4.219-2.812-4.723c-4.967-1.031-12.504,2.475-22.584,10.516s-15.75,15.062-16.998,21.049
			c-0.725,3.512,0.471,5.59,3.604,6.24c3.73,0.773,11.461-4.07,23.199-14.527C384.145,151.298,389.342,145.112,390.125,141.333z"/>
	</g>
</g>
<g>
	<g opacity="0.8">
		<path fill="#4B3087" d="M412.918,333.146c0.344,1.049-1.836,3.785-6.568,8.219c-4.936,4.5-10.543,8.84-16.822,13.016
			c-8.697,13.951-15.211,28.189-19.57,42.723c-4.359,14.537-7.975,34.275-10.84,59.234l2.609-0.873
			c11.809-3.908,20.281-11.559,25.418-22.941c2.555-5.645,3.449-12.301,2.686-19.941c-0.088-1.205,0.145-1.908,0.707-2.092
			c0.619-0.209,1.061,0.041,1.287,0.73c2.58,7.82,0.752,16.613-5.492,26.393c-6.258,9.783-14.203,16.264-23.85,19.451
			c-1.463,0.494-2.701,0.83-3.734,1.016c-0.115,1.049-0.779,6.031-2.018,14.953c-2.812,20.676-5.934,35.846-9.352,45.506
			c-3.418,9.641-8.877,19.035-16.369,28.182c-11.967,14.578-25.871,24.51-41.705,29.756c-9.137,3.031-17.328,3.459-24.547,1.281
			c-7.221-2.174-11.893-6.432-13.992-12.783c-1.16-3.488-1.164-6.783,0.021-9.887c1.186-3.088,3.203-5.121,6.068-6.07
			c4.602-1.523,7.682,0.049,9.229,4.721c1.855,5.578,0.264,9.207-4.754,10.877c-3.631,1.199-6.307-0.43-8.016-4.898
			c-0.092-0.281-0.242-0.506-0.457-0.656c-1.178,0.387-1.223,2.268-0.105,5.602c1.822,5.514,6.135,9.211,12.91,11.109
			c6.785,1.891,14.371,1.455,22.732-1.336c17.859-5.912,30.867-18.318,39.002-37.199c3.205-7.404,5.797-15.908,7.814-25.461
			c3.137-15.994,6.305-32.025,9.488-48.107l0.703-3.484c-7.77,0.18-14.648-1.789-20.643-5.869c-6.002-4.08-10.178-9.66-12.52-16.697
			c-4.162-12.559-2.447-24.785,5.15-36.672c4.496-6.986,9.541-12.498,15.135-16.523c5.604-4.021,16.189-9.744,31.785-17.156
			c6.834-3.199,14.797-7.66,23.898-13.387c10.225-12.605,17.838-19.738,22.865-21.406
			C412.049,332.155,412.66,332.378,412.918,333.146z M386.768,356.22c-4.342,2.766-10.271,6.387-17.764,10.887
			c-12.146,7.285-21.16,13.486-27.043,18.607c-5.895,5.129-10.859,11.035-14.92,17.721c-8.592,14.24-11.025,27.008-7.273,38.303
			c3.662,11.027,12.301,16.559,25.945,16.611C354.076,413.517,367.762,379.476,386.768,356.22z"/>
		<path fill="#4B3087" d="M425.58,404.94c0.061,0.158-0.146,0.992-0.619,2.504l-1.719,5.352
			c-5.586,16.977-12.143,26.896-19.67,29.756c-3.557,1.355-7.031,1.201-10.424-0.453c-3.389-1.643-5.811-4.395-7.277-8.254
			c-3.477-9.141-0.15-19.619,9.953-31.416c5.316-6.191,10.082-10.098,14.295-11.697c1.828-0.701,3.604-0.738,5.309-0.141
			c1.709,0.602,2.861,1.688,3.459,3.262c1.389,3.66,0.184,7.672-3.613,12.053c-3.797,4.369-10.867,9.795-21.186,16.273
			c-1.467,6.543-1.537,11.57-0.205,15.064c1.656,4.363,4.852,5.656,9.578,3.869c8.029-3.057,14.895-14.625,20.586-34.725
			c0.307-1.041,0.654-1.639,1.066-1.787C425.32,404.577,425.492,404.688,425.58,404.94z M413.781,393.253
			c-0.621-1.623-1.824-2.098-3.596-1.424c-2.693,1.021-5.523,4.232-8.512,9.633c-2.963,5.396-5.436,11.869-7.389,19.418
			c6.602-4.656,11.783-9.664,15.57-15.02C413.631,400.509,414.932,396.306,413.781,393.253z"/>
		<path fill="#4B3087" d="M465.496,347.782c1.547,4.584,0.232,11.432-3.943,20.531c-4.162,9.105-10.389,18.744-18.672,28.916
			l13.289-4.455l-0.312,1.391l-13.443,4.512l-2.209,14.404c-2.686,17.807-5.49,31.48-8.42,41.027
			c-2.928,9.555-6.988,18.545-12.178,27c-7.182,11.576-15.043,18.797-23.594,21.668c-3.814,1.271-5.902,1.363-6.275,0.252
			c-0.172-0.514,0.025-0.873,0.598-1.057c0.408-0.143,0.738-0.191,0.984-0.152c2.016-0.092,3.875-0.404,5.52-0.957
			c6.957-2.338,12.91-7.803,17.891-16.396c3.045-5.27,5.32-11.016,6.85-17.258c1.287-5.02,3.863-18.369,7.695-40.066l4.65-25.623
			l-8.271,2.777l0.232-1.371l8.416-2.83c2.852-13.381,6.891-25.496,12.143-36.342c5.256-10.838,10.037-16.99,14.361-18.439
			C463.121,344.544,464.688,345.362,465.496,347.782z M464.516,347.94c-0.566-1.699-1.705-2.266-3.406-1.695
			c-3.91,1.316-7.738,7.582-11.488,18.811c-1.828,5.658-4.047,15.797-6.648,30.418c6.482-8.697,11.967-17.988,16.441-27.857
			C463.908,357.743,465.609,351.187,464.516,347.94z"/>
		<path fill="#4B3087" d="M492.342,336.437c1.73,4.518,0.697,11.408-3.09,20.676c-3.793,9.27-9.611,19.16-17.469,29.658
			l13.078-5.002l-0.246,1.4l-13.24,5.061l-1.621,14.484c-1.943,17.9-4.188,31.682-6.729,41.344
			c-2.535,9.664-6.219,18.809-11.061,27.471c-6.703,11.859-14.256,19.393-22.689,22.621c-3.748,1.432-5.846,1.604-6.258,0.514
			c-0.193-0.514-0.01-0.867,0.545-1.088c0.408-0.152,0.734-0.215,0.977-0.188c2.029-0.168,3.857-0.562,5.484-1.182
			c6.855-2.615,12.586-8.32,17.203-17.113c2.83-5.389,4.869-11.229,6.135-17.525c1.09-5.066,3.107-18.514,6.057-40.344L463,391.435
			l-8.141,3.111l0.176-1.377l8.297-3.166c2.295-13.492,5.842-25.766,10.641-36.814c4.799-11.043,9.324-17.389,13.596-19.016
			C489.84,333.296,491.436,334.052,492.342,336.437z M491.375,336.63c-0.637-1.668-1.797-2.193-3.469-1.549
			c-3.861,1.469-7.43,7.895-10.709,19.264c-1.59,5.73-3.383,15.951-5.393,30.678c6.123-8.967,11.225-18.475,15.293-28.521
			C491.172,346.46,492.596,339.825,491.375,336.63z"/>
	</g>
	<g>
		<path fill="#FFFFFF" d="M412.361,329.106c0.346,1.045-1.838,3.779-6.566,8.219c-4.93,4.498-10.537,8.838-16.822,13.014
			c-8.695,13.949-15.213,28.193-19.564,42.721c-4.367,14.537-7.975,34.281-10.85,59.238l2.615-0.863
			c11.807-3.922,20.279-11.568,25.418-22.951c2.549-5.645,3.449-12.297,2.689-19.941c-0.094-1.205,0.141-1.908,0.703-2.096
			c0.619-0.203,1.059,0.039,1.287,0.732c2.584,7.822,0.748,16.617-5.498,26.395c-6.254,9.777-14.199,16.264-23.84,19.451
			c-1.463,0.49-2.707,0.83-3.74,1.01c-0.113,1.051-0.777,6.033-2.012,14.955c-2.812,20.676-5.938,35.85-9.352,45.504
			c-3.42,9.65-8.877,19.045-16.379,28.188c-11.967,14.578-25.871,24.504-41.695,29.76c-9.141,3.029-17.322,3.453-24.553,1.283
			c-7.229-2.18-11.887-6.436-13.992-12.791c-1.156-3.494-1.15-6.771,0.023-9.889c1.189-3.1,3.207-5.123,6.068-6.068
			c4.605-1.525,7.682,0.047,9.232,4.727c1.85,5.58,0.26,9.199-4.76,10.865c-3.621,1.203-6.301-0.422-8.016-4.891
			c-0.092-0.281-0.232-0.508-0.451-0.668c-1.18,0.389-1.23,2.262-0.111,5.617c1.824,5.504,6.139,9.203,12.916,11.102
			c6.789,1.898,14.361,1.455,22.732-1.322c17.852-5.918,30.867-18.324,39.002-37.209c3.199-7.41,5.793-15.902,7.805-25.465
			c3.137-15.99,6.311-32.016,9.492-48.104l0.707-3.48c-7.77,0.172-14.65-1.789-20.648-5.869
			c-6.004-4.088-10.174-9.654-12.516-16.705c-4.158-12.561-2.449-24.785,5.145-36.672c4.496-6.984,9.545-12.498,15.141-16.521
			c5.602-4.02,16.193-9.74,31.781-17.156c6.832-3.197,14.791-7.658,23.896-13.385c10.227-12.607,17.842-19.732,22.869-21.408
			C411.5,328.118,412.109,328.339,412.361,329.106z M386.219,352.187c-4.352,2.76-10.271,6.381-17.768,10.877
			c-12.143,7.283-21.156,13.486-27.045,18.611c-5.893,5.129-10.863,11.029-14.918,17.723c-8.602,14.234-11.027,27.006-7.273,38.303
			c3.66,11.018,12.305,16.547,25.945,16.607C353.527,409.478,367.207,375.438,386.219,352.187z"/>
		<path fill="#FFFFFF" d="M425.035,400.905c0.047,0.154-0.158,0.988-0.629,2.496l-1.715,5.35
			c-5.594,16.982-12.15,26.898-19.674,29.754c-3.559,1.357-7.031,1.207-10.414-0.441c-3.396-1.643-5.828-4.402-7.283-8.256
			c-3.475-9.145-0.152-19.621,9.949-31.412c5.318-6.205,10.078-10.104,14.301-11.707c1.824-0.699,3.594-0.744,5.295-0.141
			c1.715,0.602,2.865,1.689,3.463,3.26c1.385,3.658,0.18,7.674-3.617,12.055c-3.801,4.373-10.857,9.799-21.18,16.277
			c-1.469,6.545-1.547,11.57-0.211,15.061c1.652,4.365,4.852,5.662,9.578,3.867c8.035-3.047,14.895-14.619,20.586-34.717
			c0.311-1.043,0.658-1.641,1.066-1.799C424.771,400.536,424.938,400.649,425.035,400.905z M413.227,389.22
			c-0.619-1.627-1.824-2.102-3.594-1.432c-2.691,1.027-5.525,4.234-8.504,9.641c-2.977,5.396-5.438,11.873-7.396,19.412
			c6.6-4.656,11.781-9.664,15.57-15.018C413.078,396.468,414.379,392.265,413.227,389.22z"/>
		<path fill="#FFFFFF" d="M464.955,343.745c1.533,4.588,0.225,11.43-3.955,20.535c-4.166,9.105-10.389,18.742-18.672,28.914
			l13.283-4.459l-0.299,1.393l-13.447,4.514l-2.215,14.406c-2.68,17.807-5.488,31.477-8.41,41.027
			c-2.936,9.553-6.988,18.545-12.182,27c-7.172,11.576-15.047,18.795-23.594,21.664c-3.811,1.279-5.906,1.359-6.271,0.256
			c-0.176-0.518,0.021-0.873,0.584-1.062c0.414-0.139,0.742-0.189,0.984-0.146c2.025-0.092,3.881-0.406,5.523-0.959
			c6.961-2.328,12.916-7.811,17.887-16.395c3.049-5.273,5.33-11.018,6.852-17.258c1.295-5.018,3.867-18.365,7.707-40.064
			l4.641-25.629l-8.27,2.771l0.232-1.361l8.416-2.83c2.848-13.387,6.891-25.502,12.141-36.344
			c5.248-10.838,10.029-16.992,14.354-18.439C462.564,340.507,464.133,341.323,464.955,343.745z M463.965,343.897
			c-0.57-1.697-1.703-2.262-3.41-1.689c-3.906,1.316-7.742,7.586-11.486,18.807c-1.824,5.66-4.033,15.799-6.641,30.422
			c6.482-8.699,11.963-17.994,16.439-27.861C463.359,353.698,465.061,347.147,463.965,343.897z"/>
		<path fill="#FFFFFF" d="M491.797,332.397c1.73,4.518,0.686,11.406-3.098,20.676c-3.797,9.271-9.611,19.154-17.465,29.66
			l13.082-5.004l-0.254,1.404l-13.242,5.059l-1.625,14.484c-1.941,17.898-4.18,31.68-6.723,41.344
			c-2.531,9.654-6.215,18.812-11.066,27.469c-6.697,11.861-14.252,19.398-22.684,22.615c-3.754,1.443-5.842,1.615-6.254,0.518
			c-0.199-0.514-0.01-0.865,0.545-1.076c0.408-0.16,0.729-0.227,0.975-0.189c2.027-0.168,3.859-0.562,5.484-1.197
			c6.855-2.607,12.596-8.316,17.201-17.109c2.838-5.383,4.873-11.229,6.139-17.529c1.086-5.062,3.107-18.514,6.051-40.338
			l3.586-25.795l-8.143,3.111l0.18-1.373l8.289-3.168c2.299-13.494,5.844-25.768,10.643-36.814
			c4.791-11.051,9.316-17.387,13.588-19.018C489.287,329.257,490.887,330.011,491.797,332.397z M490.82,332.595
			c-0.637-1.674-1.793-2.197-3.467-1.549c-3.863,1.471-7.432,7.893-10.709,19.26c-1.592,5.73-3.385,15.951-5.389,30.674
			c6.117-8.963,11.215-18.471,15.289-28.516C490.623,342.413,492.047,335.786,490.82,332.595z"/>
	</g>
</g>
</svg>
