<?xml version="1.0" encoding="utf-8"?>
<!-- Generator: Adobe Illustrator 16.2.1, SVG Export Plug-In . SVG Version: 6.00 Build 0)  -->
<!DOCTYPE svg PUBLIC "-//W3C//DTD SVG 1.1//EN" "http://www.w3.org/Graphics/SVG/1.1/DTD/svg11.dtd">
<svg version="1.1" id="Layer_1" xmlns="http://www.w3.org/2000/svg" xmlns:xlink="http://www.w3.org/1999/xlink" x="0px" y="0px"
	 width="219.181px" height="242.315px" viewBox="0 0 219.181 242.315" enable-background="new 0 0 219.181 242.315"
	 xml:space="preserve">
<g>
	<path fill="#FFFFFF" d="M134.3,106.445c-0.265-0.841-0.655-1.471-1.175-1.885c-0.521-0.417-1.171-0.624-1.948-0.624
		c-1.104,0-1.929,0.364-2.477,1.088c-0.549,0.729-0.819,1.57-0.819,2.527c0,0.39,0.069,0.776,0.204,1.161
		c0.137,0.383,0.338,0.771,0.602,1.16c2.042,0.084,3.062,0.752,3.062,2.004c0,0.275-0.123,0.495-0.373,0.664
		c-0.246,0.168-0.537,0.252-0.873,0.252c-0.339,0-0.627-0.078-0.87-0.236c-0.24-0.158-0.584-0.511-1.023-1.057
		c-0.267-0.339-0.536-0.506-0.821-0.506c-0.561,0-1.098,0.396-1.618,1.184c-0.521,0.79-0.778,1.621-0.778,2.495
		c0,2.021,0.874,3.674,2.626,4.957c1.753,1.284,3.986,1.927,6.701,1.927c1.727,0,3.207-0.183,4.443-0.545
		c1.235-0.364,2.305-1.055,3.204-2.075c0.897-1.02,1.35-2.196,1.35-3.52c0-1.337-0.468-2.53-1.401-3.577
		c-0.938-1.047-2.166-1.57-3.682-1.57c-1.096,0-2.004,0.315-2.737,0.944c-0.73,0.629-1.097,1.337-1.097,2.125
		c0,0.724,0.188,1.346,0.566,1.865c0.38,0.521,0.839,0.779,1.375,0.779c0.295,0,0.512-0.028,0.651-0.084
		c0.146-0.06,0.214-0.141,0.214-0.246c0-0.104-0.107-0.248-0.33-0.428c-0.358-0.305-0.535-0.604-0.535-0.898
		c0-0.38,0.153-0.679,0.472-0.9c0.316-0.22,0.631-0.331,0.949-0.331c0.368,0,0.731,0.144,1.096,0.427
		c0.363,0.287,0.545,0.704,0.545,1.252c0,0.635-0.257,1.159-0.771,1.568c-0.519,0.414-1.105,0.619-1.771,0.619
		c-0.903,0-1.662-0.382-2.271-1.146c-0.61-0.761-0.916-1.601-0.916-2.517c0-1.021,0.438-2.01,1.312-2.968
		c0.862-0.946,2.271-1.42,4.229-1.42c0.601,0,1.269,0.021,2.005,0.063c0.734,0.053,1.325,0.078,1.769,0.078
		c1.221,0,2.247-0.315,3.077-0.948c0.832-0.631,1.245-1.346,1.245-2.146c0-0.778-0.279-1.45-0.842-2.012
		c-0.563-0.563-1.148-0.845-1.763-0.845c-0.367,0-0.553,0.084-0.553,0.253c0,0.073,0.05,0.204,0.146,0.393
		c0.083,0.191,0.127,0.417,0.127,0.68c0,0.348-0.148,0.643-0.444,0.885c-0.295,0.242-0.621,0.363-0.978,0.363
		c-0.37,0-0.693-0.135-0.972-0.403c-0.279-0.269-0.42-0.613-0.42-1.034c0-0.569,0.212-1.031,0.642-1.391
		c0.425-0.355,0.978-0.535,1.647-0.535c1.21,0,2.236,0.386,3.077,1.16c0.844,0.773,1.263,1.808,1.263,3.102
		c0,1.042-0.265,1.917-0.796,2.627c-0.531,0.711-1.169,1.221-1.909,1.533c-0.739,0.311-1.773,0.525-3.102,0.638
		c1.083,1.286,1.623,2.801,1.623,4.547c0,2.327-0.94,4.273-2.825,5.841c-1.883,1.569-4.324,2.353-7.323,2.353
		c-3.112,0-5.652-0.812-7.614-2.438c-1.966-1.625-2.944-3.58-2.944-5.863c0-1.306,0.363-2.439,1.088-3.403
		c0.727-0.963,1.811-1.759,3.25-2.392c-0.389-0.557-0.68-1.11-0.875-1.658c-0.194-0.545-0.291-1.089-0.291-1.626
		c0-1.145,0.379-2.156,1.137-3.029c0.758-0.875,1.735-1.311,2.938-1.311c1.01,0,1.847,0.308,2.509,0.923
		c0.663,0.615,0.994,1.355,0.994,2.218C134.495,105.805,134.431,106.11,134.3,106.445"/>
	<path fill="#FFFFFF" d="M159.368,115.76l2.688,0.458l0.067-0.404c-0.2-0.034-0.339-0.243-0.308-0.469l-0.923-0.126
		c-0.527,0.26-1.915,0.266-3.502,0.003c-1.475-0.243-2.715-0.604-3.246-0.894c0.043-0.278,0.07-0.554,0.104-0.832l7.447,0.731
		l0.385,0.536c0.271-0.243,0.543-0.494,0.809-0.753c-0.218-0.3-0.439-0.594-0.668-0.882l-0.469,0.463l-7.466-0.556
		c0.021-0.278,0.038-0.558,0.045-0.838c0.57-0.197,1.856-0.34,3.351-0.324c1.609,0.017,2.977,0.259,3.449,0.607l0.932,0.032
		c0.006-0.227,0.181-0.41,0.38-0.408l0.007-0.409l-2.731-0.012l0.003-0.108h-5.377h-0.309h-0.114
		c-0.003,1.107-0.097,2.205-0.285,3.288l0.112,0.021l0.305,0.052l5.297,0.929L159.368,115.76z"/>
	<path fill="#FFFFFF" d="M163.285,116.285c-0.187-0.345-0.372-0.685-0.569-1.016c0.06,0.401,0.106,0.805,0.143,1.211l1.403,0.247
		L163.285,116.285z"/>
	<path fill="#FFFFFF" d="M163.669,111.844l1.039-0.267h-1.425c-0.106,0.394-0.226,0.782-0.35,1.167
		C163.186,112.452,163.429,112.152,163.669,111.844"/>
	<path fill="#FFFFFF" d="M158.274,119.924l2.565,0.923l0.139-0.39c-0.19-0.067-0.29-0.296-0.217-0.514l-0.889-0.286
		c-0.563,0.165-1.932-0.072-3.45-0.609c-1.406-0.495-2.563-1.069-3.035-1.446c0.084-0.265,0.167-0.532,0.242-0.799l7.207,2.018
		l0.285,0.597c0.31-0.194,0.62-0.394,0.925-0.604c-0.159-0.335-0.327-0.663-0.502-0.985c-0.18,0.127-0.362,0.253-0.543,0.375
		l-7.254-1.845c0.069-0.27,0.133-0.543,0.187-0.814c0.601-0.092,1.892-0.011,3.357,0.261c1.582,0.294,2.884,0.77,3.292,1.195
		l0.91,0.191c0.048-0.221,0.248-0.373,0.444-0.333l0.075-0.405l-2.686-0.484l0.018-0.104l-5.295-0.93l-0.305-0.052l-0.112-0.02
		c-0.189,1.083-0.477,2.144-0.851,3.174l0.107,0.041l0.292,0.106l5.051,1.839L158.274,119.924z"/>
	<path fill="#FFFFFF" d="M162.041,121.126c-0.119-0.374-0.246-0.739-0.387-1.103c-0.014,0.406-0.035,0.812-0.07,1.22l1.339,0.486
		L162.041,121.126z"/>
	<path fill="#FFFFFF" d="M163.193,116.81l1.068-0.083l-1.403-0.247c-0.175,0.371-0.354,0.734-0.546,1.093
		C162.611,117.326,162.904,117.073,163.193,116.81"/>
	<path fill="#FFFFFF" d="M156.468,123.833l2.368,1.356l0.202-0.356c-0.181-0.103-0.231-0.344-0.125-0.545l-0.822-0.438
		c-0.583,0.064-1.887-0.408-3.288-1.2c-1.299-0.735-2.342-1.502-2.743-1.957c0.136-0.246,0.261-0.494,0.383-0.744l6.743,3.246
		l0.173,0.638c0.344-0.135,0.683-0.278,1.021-0.431c-0.101-0.358-0.206-0.71-0.323-1.06l-0.603,0.275l-6.819-3.088
		c0.117-0.254,0.227-0.509,0.33-0.769c0.604,0.015,1.862,0.32,3.26,0.846c1.505,0.564,2.705,1.261,3.029,1.752l0.867,0.348
		c0.081-0.21,0.306-0.324,0.494-0.252l0.146-0.384l-2.561-0.945l0.034-0.102l-5.051-1.838l-0.292-0.105l-0.107-0.042
		c-0.376,1.033-0.843,2.03-1.393,2.981l0.101,0.058l0.268,0.154l4.655,2.694L156.468,123.833z"/>
	<path fill="#FFFFFF" d="M159.97,125.672c-0.056-0.387-0.117-0.771-0.187-1.148c-0.085,0.395-0.185,0.791-0.282,1.186l1.229,0.713
		L159.97,125.672z"/>
	<path fill="#FFFFFF" d="M161.859,121.626l1.063,0.105l-1.339-0.488c-0.236,0.334-0.479,0.663-0.727,0.98
		C161.191,122.034,161.527,121.834,161.859,121.626"/>
	<path fill="#FFFFFF" d="M154.013,127.368l2.096,1.744l0.263-0.316c-0.156-0.127-0.172-0.375-0.028-0.555l-0.735-0.576
		c-0.586-0.037-1.785-0.729-3.03-1.752c-1.151-0.949-2.043-1.886-2.356-2.399c0.171-0.222,0.342-0.445,0.504-0.671l6.075,4.371
		l0.062,0.658c0.357-0.078,0.72-0.156,1.078-0.25c-0.035-0.367-0.082-0.733-0.136-1.099l-0.639,0.166l-6.178-4.225
		c0.156-0.229,0.311-0.464,0.459-0.701c0.592,0.119,1.775,0.637,3.061,1.397c1.387,0.822,2.442,1.715,2.68,2.256l0.79,0.494
		c0.12-0.194,0.359-0.264,0.535-0.16l0.207-0.354l-2.354-1.377l0.055-0.092l-4.655-2.694l-0.268-0.154l-0.101-0.058
		c-0.552,0.951-1.186,1.854-1.893,2.697l0.089,0.075l0.236,0.199l4.115,3.459L154.013,127.368z"/>
	<path fill="#FFFFFF" d="M157.14,129.788c0.013-0.393,0.021-0.778,0.02-1.164c-0.152,0.373-0.314,0.746-0.485,1.117l1.092,0.918
		L157.14,129.788z"/>
	<path fill="#FFFFFF" d="M159.702,126.133l1.028,0.291l-1.229-0.715c-0.292,0.289-0.588,0.568-0.888,0.838
		C158.976,126.418,159.339,126.282,159.702,126.133"/>
	<path fill="#FFFFFF" d="M150.981,130.424l1.767,2.083l0.311-0.271c-0.135-0.156-0.102-0.4,0.067-0.554l-0.624-0.692
		c-0.57-0.139-1.634-1.027-2.685-2.25c-0.975-1.132-1.688-2.209-1.907-2.771c0.21-0.186,0.413-0.379,0.612-0.573l5.229,5.354
		l-0.051,0.656c0.361-0.008,0.729-0.027,1.103-0.055c0.028-0.37,0.046-0.738,0.06-1.105l-0.658,0.053l-5.354-5.229
		c0.195-0.2,0.39-0.403,0.573-0.61c0.562,0.22,1.64,0.936,2.773,1.908c1.222,1.047,2.108,2.111,2.25,2.684l0.688,0.622
		c0.154-0.167,0.398-0.201,0.555-0.066l0.269-0.31l-2.081-1.766l0.068-0.082l-4.116-3.459l-0.236-0.199l-0.089-0.074
		c-0.708,0.845-1.491,1.626-2.334,2.333l0.074,0.09l0.201,0.235l3.454,4.117L150.981,130.424z"/>
	<path fill="#FFFFFF" d="M153.645,133.347c0.082-0.382,0.154-0.765,0.216-1.144c-0.214,0.342-0.436,0.684-0.67,1.02l0.919,1.091
		L153.645,133.347z"/>
	<path fill="#FFFFFF" d="M156.796,130.193l0.968,0.466l-1.09-0.918c-0.34,0.231-0.679,0.455-1.02,0.67
		C156.035,130.347,156.416,130.277,156.796,130.193"/>
	<path fill="#FFFFFF" d="M147.469,132.913l1.378,2.354l0.353-0.21c-0.104-0.174-0.03-0.411,0.161-0.531l-0.491-0.791
		c-0.54-0.236-1.437-1.296-2.256-2.681c-0.764-1.283-1.277-2.466-1.397-3.06c0.238-0.147,0.469-0.302,0.7-0.459l4.226,6.176
		l-0.164,0.643c0.357,0.051,0.729,0.098,1.097,0.133c0.094-0.357,0.176-0.72,0.246-1.076l-0.654-0.063l-4.372-6.077
		c0.229-0.162,0.454-0.331,0.672-0.502c0.516,0.311,1.454,1.204,2.401,2.357c1.022,1.242,1.714,2.442,1.752,3.031l0.574,0.734
		c0.178-0.143,0.427-0.13,0.56,0.027l0.312-0.258l-1.747-2.1l0.084-0.07l-3.455-4.115l-0.2-0.235l-0.074-0.09
		c-0.844,0.709-1.747,1.342-2.699,1.893l0.06,0.101l0.154,0.27l2.691,4.653L147.469,132.913z"/>
	<path fill="#FFFFFF" d="M149.584,136.25c0.146-0.362,0.284-0.725,0.414-1.088c-0.272,0.301-0.551,0.598-0.84,0.887l0.717,1.234
		L149.584,136.25z"/>
	<path fill="#FFFFFF" d="M153.236,133.691l0.873,0.623l-0.919-1.091c-0.37,0.17-0.746,0.332-1.114,0.482
		C152.459,133.709,152.845,133.704,153.236,133.691"/>
	<path fill="#FFFFFF" d="M143.577,134.749l0.941,2.562l0.386-0.145c-0.072-0.192,0.04-0.412,0.255-0.498l-0.353-0.863
		c-0.49-0.324-1.188-1.525-1.752-3.031c-0.526-1.398-0.83-2.654-0.845-3.258c0.258-0.107,0.515-0.215,0.771-0.329l3.083,6.815
		l-0.273,0.604c0.35,0.115,0.702,0.222,1.061,0.323c0.152-0.34,0.295-0.678,0.435-1.02l-0.641-0.175l-3.246-6.741
		c0.248-0.123,0.499-0.25,0.742-0.383c0.456,0.4,1.223,1.439,1.956,2.741c0.794,1.401,1.27,2.705,1.201,3.29l0.438,0.82
		c0.202-0.105,0.442-0.051,0.546,0.125l0.354-0.2l-1.356-2.369l0.095-0.053l-2.691-4.653l-0.155-0.268l-0.059-0.102
		c-0.949,0.551-1.948,1.018-2.979,1.393l0.04,0.108l0.105,0.292l1.838,5.051L143.577,134.749z"/>
	<path fill="#FFFFFF" d="M145.077,138.407c0.208-0.332,0.404-0.666,0.597-1c-0.319,0.25-0.646,0.492-0.981,0.729l0.488,1.341
		L145.077,138.407z"/>
	<path fill="#FFFFFF" d="M149.123,136.518l0.752,0.766l-0.717-1.234c-0.395,0.104-0.791,0.199-1.188,0.283
		C148.352,136.403,148.736,136.465,149.123,136.518"/>
	<path fill="#FFFFFF" d="M139.423,135.879l0.479,2.688l0.406-0.076c-0.041-0.201,0.11-0.396,0.334-0.447l-0.19-0.911
		c-0.429-0.405-0.903-1.708-1.196-3.289c-0.273-1.468-0.353-2.761-0.258-3.357c0.268-0.057,0.539-0.118,0.811-0.188l1.849,7.252
		c-0.125,0.184-0.246,0.365-0.374,0.545c0.319,0.174,0.646,0.341,0.982,0.503c0.211-0.306,0.409-0.614,0.604-0.927l-0.601-0.285
		l-2.017-7.207c0.269-0.074,0.535-0.156,0.801-0.242c0.377,0.473,0.95,1.63,1.445,3.039c0.537,1.52,0.771,2.883,0.606,3.449
		l0.288,0.886c0.218-0.071,0.446,0.026,0.514,0.217l0.388-0.135l-0.921-2.569l0.099-0.035l-1.838-5.054l-0.104-0.291l-0.041-0.108
		c-1.029,0.375-2.093,0.662-3.177,0.85l0.021,0.114l0.053,0.303l0.928,5.296L139.423,135.879z"/>
	<path fill="#FFFFFF" d="M140.258,139.745c0.265-0.289,0.52-0.584,0.765-0.881c-0.358,0.188-0.724,0.371-1.093,0.545l0.245,1.405
		L140.258,139.745z"/>
	<path fill="#FFFFFF" d="M144.576,138.591l0.604,0.884l-0.488-1.342c-0.406,0.035-0.812,0.059-1.22,0.074
		C143.836,138.344,144.204,138.47,144.576,138.591"/>
	<path fill="#FFFFFF" d="M135.135,136.27l0.012,2.73l0.409-0.008c-0.003-0.203,0.179-0.371,0.407-0.38l-0.031-0.93
		c-0.349-0.476-0.592-1.839-0.605-3.45c-0.019-1.492,0.129-2.777,0.323-3.349c0.279-0.009,0.561-0.022,0.84-0.044l0.555,7.464
		l-0.46,0.469c0.286,0.229,0.578,0.45,0.879,0.668c0.258-0.267,0.51-0.536,0.754-0.81l-0.538-0.383l-0.729-7.449
		c0.277-0.028,0.557-0.061,0.832-0.1c0.29,0.531,0.65,1.77,0.896,3.244c0.262,1.588,0.256,2.975-0.007,3.502l0.13,0.922
		c0.226-0.029,0.438,0.104,0.467,0.305l0.403-0.066l-0.456-2.689l0.104-0.019l-0.929-5.296l-0.054-0.303l-0.021-0.114
		c-1.08,0.188-2.182,0.284-3.285,0.284v0.115v0.309v5.377H135.135L135.135,136.27z"/>
	<path fill="#FFFFFF" d="M135.293,140.221c0.308-0.242,0.605-0.486,0.897-0.736c-0.382,0.124-0.771,0.24-1.166,0.35v1.426
		L135.293,140.221z"/>
	<path fill="#FFFFFF" d="M139.734,139.836l0.44,0.978l-0.245-1.405c-0.406-0.037-0.811-0.084-1.21-0.142
		C139.05,139.466,139.388,139.65,139.734,139.836"/>
	<path fill="#FFFFFF" d="M130.844,135.917l-0.457,2.689l0.402,0.066c0.033-0.201,0.242-0.334,0.468-0.305l0.129-0.922
		c-0.262-0.527-0.265-1.914-0.003-3.502c0.238-1.475,0.604-2.713,0.892-3.244c0.278,0.039,0.557,0.071,0.834,0.1l-0.729,7.449
		l-0.54,0.383c0.245,0.271,0.496,0.542,0.756,0.81c0.3-0.22,0.593-0.438,0.881-0.668l-0.462-0.469l0.557-7.464
		c0.277,0.021,0.559,0.035,0.84,0.044c0.192,0.571,0.339,1.856,0.323,3.349c-0.018,1.61-0.261,2.975-0.607,3.45l-0.031,0.931
		c0.229,0.008,0.41,0.176,0.407,0.379l0.411,0.008l0.011-2.73h0.105v-5.377v-0.309v-0.115c-1.105,0-2.204-0.096-3.288-0.284
		l-0.02,0.114l-0.055,0.303l-0.927,5.296L130.844,135.917z"/>
	<path fill="#FFFFFF" d="M130.32,139.836c0.346-0.187,0.686-0.37,1.017-0.569c-0.4,0.058-0.803,0.104-1.211,0.142l-0.246,1.405
		L130.32,139.836z"/>
	<path fill="#FFFFFF" d="M134.761,140.221l0.266,1.038v-1.425c-0.395-0.11-0.779-0.227-1.165-0.351
		C134.151,139.734,134.453,139.979,134.761,140.221"/>
	<path fill="#FFFFFF" d="M126.681,134.823l-0.923,2.569l0.389,0.135c0.064-0.19,0.295-0.288,0.513-0.216l0.286-0.887
		c-0.163-0.564,0.072-1.93,0.608-3.448c0.496-1.409,1.07-2.565,1.446-3.039c0.266,0.086,0.532,0.169,0.801,0.243l-2.018,7.206
		l-0.601,0.284c0.195,0.312,0.395,0.621,0.604,0.929c0.333-0.162,0.662-0.33,0.981-0.503c-0.124-0.18-0.251-0.362-0.373-0.545
		l1.849-7.251c0.268,0.067,0.543,0.13,0.812,0.187c0.093,0.596,0.017,1.891-0.263,3.358c-0.292,1.581-0.77,2.884-1.194,3.289
		l-0.19,0.911c0.225,0.05,0.377,0.246,0.338,0.447l0.402,0.076l0.481-2.688l0.104,0.02l0.929-5.296l0.055-0.303l0.019-0.114
		c-1.078-0.189-2.143-0.475-3.175-0.85l-0.04,0.108l-0.104,0.291l-1.839,5.052L126.681,134.823z"/>
	<path fill="#FFFFFF" d="M125.477,138.591c0.375-0.122,0.74-0.248,1.104-0.384c-0.404-0.016-0.812-0.039-1.222-0.074l-0.486,1.342
		L125.477,138.591z"/>
	<path fill="#FFFFFF" d="M129.794,139.745l0.084,1.069l0.246-1.405c-0.372-0.174-0.733-0.356-1.093-0.545
		C129.277,139.161,129.529,139.456,129.794,139.745"/>
	<path fill="#FFFFFF" d="M122.771,133.018l-1.356,2.369l0.356,0.201c0.103-0.178,0.344-0.231,0.543-0.125l0.438-0.821
		c-0.065-0.587,0.407-1.888,1.2-3.29c0.731-1.301,1.503-2.34,1.958-2.741c0.244,0.134,0.494,0.261,0.746,0.382l-3.251,6.743
		l-0.637,0.175c0.135,0.34,0.279,0.678,0.432,1.019c0.356-0.103,0.709-0.208,1.061-0.323l-0.275-0.604l3.088-6.816
		c0.252,0.114,0.51,0.223,0.769,0.33c-0.013,0.604-0.317,1.859-0.847,3.257c-0.563,1.507-1.262,2.708-1.75,3.032l-0.348,0.865
		c0.209,0.084,0.323,0.304,0.25,0.496l0.385,0.146l0.946-2.562l0.103,0.037l1.839-5.052l0.104-0.291l0.041-0.108
		c-1.029-0.375-2.029-0.842-2.979-1.393l-0.057,0.102l-0.153,0.269l-2.695,4.653L122.771,133.018z"/>
	<path fill="#FFFFFF" d="M120.93,136.518c0.389-0.055,0.771-0.115,1.15-0.186c-0.396-0.084-0.793-0.181-1.188-0.285l-0.715,1.236
		L120.93,136.518z"/>
	<path fill="#FFFFFF" d="M124.977,138.407l-0.104,1.068l0.486-1.341c-0.334-0.235-0.662-0.479-0.979-0.728
		C124.568,137.743,124.769,138.077,124.977,138.407"/>
	<path fill="#FFFFFF" d="M119.236,130.562l-1.746,2.099l0.317,0.26c0.128-0.159,0.375-0.172,0.556-0.028l0.574-0.733
		c0.039-0.59,0.73-1.789,1.752-3.033c0.95-1.152,1.887-2.045,2.403-2.356c0.22,0.172,0.44,0.339,0.667,0.503l-4.369,6.075
		l-0.658,0.063c0.073,0.356,0.156,0.719,0.248,1.076c0.368-0.037,0.735-0.082,1.098-0.133l-0.164-0.645l4.227-6.174
		c0.229,0.157,0.462,0.311,0.702,0.459c-0.122,0.592-0.642,1.776-1.403,3.061c-0.818,1.384-1.713,2.443-2.25,2.68l-0.496,0.791
		c0.194,0.12,0.268,0.358,0.162,0.532l0.354,0.209l1.379-2.354l0.093,0.054l2.69-4.653l0.156-0.268l0.057-0.102
		c-0.949-0.55-1.856-1.184-2.698-1.894l-0.074,0.09l-0.198,0.235l-3.459,4.117L119.236,130.562z"/>
	<path fill="#FFFFFF" d="M116.816,133.691c0.393,0.013,0.779,0.019,1.166,0.015c-0.375-0.15-0.748-0.312-1.117-0.482l-0.92,1.091
		L116.816,133.691z"/>
	<path fill="#FFFFFF" d="M120.47,136.25l-0.289,1.033l0.714-1.234c-0.287-0.29-0.566-0.586-0.839-0.887
		C120.184,135.526,120.324,135.888,120.47,136.25"/>
	<path fill="#FFFFFF" d="M116.178,127.534l-2.083,1.764l0.271,0.311c0.156-0.135,0.398-0.101,0.555,0.068l0.691-0.623
		c0.139-0.572,1.026-1.639,2.25-2.684c1.133-0.975,2.209-1.688,2.771-1.91c0.187,0.209,0.378,0.412,0.573,0.613l-5.355,5.229
		l-0.656-0.051c0.012,0.365,0.031,0.732,0.058,1.104c0.372,0.027,0.737,0.046,1.104,0.057l-0.051-0.658l5.23-5.354
		c0.197,0.195,0.4,0.388,0.609,0.572c-0.22,0.563-0.936,1.641-1.908,2.774c-1.047,1.223-2.112,2.11-2.685,2.25l-0.622,0.691
		c0.167,0.152,0.199,0.396,0.064,0.555l0.312,0.267l1.765-2.082l0.082,0.067l3.459-4.117l0.199-0.233l0.073-0.091
		c-0.843-0.708-1.625-1.488-2.332-2.333l-0.088,0.073l-0.238,0.201l-4.116,3.457L116.178,127.534z"/>
	<path fill="#FFFFFF" d="M113.256,130.193c0.383,0.084,0.766,0.154,1.145,0.218c-0.344-0.213-0.683-0.438-1.021-0.67l-1.091,0.918
		L113.256,130.193z"/>
	<path fill="#FFFFFF" d="M116.41,133.347l-0.465,0.967l0.918-1.091c-0.233-0.336-0.457-0.676-0.672-1.02
		C116.255,132.583,116.326,132.965,116.41,133.347"/>
	<path fill="#FFFFFF" d="M113.693,124.018l-2.356,1.377l0.209,0.354c0.176-0.104,0.414-0.033,0.532,0.162l0.789-0.496
		c0.236-0.539,1.298-1.433,2.682-2.254c1.286-0.761,2.471-1.28,3.061-1.397c0.149,0.237,0.304,0.472,0.461,0.701l-6.18,4.226
		l-0.638-0.167c-0.054,0.364-0.101,0.729-0.138,1.099c0.358,0.092,0.721,0.174,1.078,0.248l0.062-0.656l6.076-4.371
		c0.162,0.227,0.331,0.449,0.502,0.671c-0.312,0.515-1.203,1.452-2.357,2.401c-1.24,1.021-2.443,1.713-3.029,1.752l-0.735,0.574
		c0.144,0.178,0.13,0.428-0.026,0.555l0.258,0.316l2.1-1.746l0.07,0.084l4.113-3.459l0.238-0.199l0.088-0.073
		c-0.709-0.843-1.343-1.748-1.892-2.699l-0.101,0.058l-0.27,0.154l-4.653,2.694L113.693,124.018z"/>
	<path fill="#FFFFFF" d="M110.352,126.133c0.363,0.146,0.727,0.285,1.09,0.414c-0.302-0.271-0.597-0.549-0.888-0.838l-1.234,0.715
		L110.352,126.133z"/>
	<path fill="#FFFFFF" d="M112.914,129.788l-0.625,0.871l1.092-0.918c-0.17-0.371-0.332-0.744-0.484-1.117
		C112.893,129.009,112.9,129.395,112.914,129.788"/>
	<path fill="#FFFFFF" d="M111.855,120.126l-2.562,0.944l0.144,0.385c0.192-0.073,0.414,0.042,0.498,0.252l0.865-0.349
		c0.325-0.491,1.525-1.187,3.031-1.752c1.396-0.526,2.652-0.83,3.26-0.845c0.102,0.259,0.21,0.515,0.325,0.769l-6.818,3.087
		l-0.601-0.275c-0.115,0.35-0.222,0.701-0.322,1.06c0.34,0.152,0.68,0.296,1.02,0.431l0.177-0.637l6.743-3.247
		c0.119,0.25,0.248,0.498,0.377,0.745c-0.397,0.454-1.438,1.221-2.736,1.957c-1.404,0.792-2.707,1.266-3.292,1.201l-0.822,0.438
		c0.107,0.201,0.054,0.443-0.125,0.543l0.202,0.357l2.367-1.357l0.056,0.095l4.653-2.693l0.27-0.156l0.101-0.057
		c-0.552-0.951-1.019-1.948-1.394-2.981l-0.107,0.041l-0.292,0.106l-5.052,1.838L111.855,120.126z"/>
	<path fill="#FFFFFF" d="M108.195,121.626c0.331,0.208,0.665,0.407,1,0.597c-0.248-0.318-0.491-0.646-0.728-0.98l-1.339,0.488
		L108.195,121.626z"/>
	<path fill="#FFFFFF" d="M110.086,125.672l-0.766,0.75l1.234-0.713c-0.104-0.396-0.198-0.791-0.284-1.186
		C110.201,124.902,110.138,125.286,110.086,125.672"/>
	<path fill="#FFFFFF" d="M110.723,115.971l-2.687,0.483l0.078,0.404c0.198-0.039,0.396,0.112,0.443,0.334l0.91-0.19
		c0.408-0.426,1.71-0.901,3.293-1.196c1.469-0.273,2.759-0.353,3.355-0.261c0.057,0.271,0.119,0.545,0.188,0.814l-7.253,1.845
		c-0.181-0.121-0.364-0.247-0.542-0.374c-0.176,0.321-0.342,0.651-0.502,0.984c0.304,0.211,0.615,0.41,0.925,0.605l0.286-0.597
		l7.207-2.019c0.074,0.268,0.154,0.535,0.242,0.799c-0.473,0.376-1.629,0.95-3.039,1.446c-1.52,0.537-2.883,0.772-3.448,0.61
		l-0.885,0.285c0.069,0.218-0.029,0.447-0.22,0.514l0.137,0.389l2.566-0.923l0.037,0.1l5.053-1.838l0.293-0.107l0.105-0.04
		c-0.376-1.031-0.66-2.092-0.848-3.175l-0.114,0.02l-0.306,0.052l-5.293,0.929L110.723,115.971z"/>
	<path fill="#FFFFFF" d="M106.859,116.81c0.29,0.263,0.584,0.516,0.882,0.763c-0.188-0.359-0.37-0.723-0.544-1.093l-1.405,0.247
		L106.859,116.81z"/>
	<path fill="#FFFFFF" d="M108.013,121.126l-0.884,0.604l1.339-0.486c-0.034-0.408-0.057-0.814-0.072-1.22
		C108.26,120.387,108.134,120.752,108.013,121.126"/>
	<path fill="#FFFFFF" d="M110.334,111.685l-2.729,0.012l0.005,0.41c0.204-0.003,0.373,0.18,0.38,0.407l0.933-0.032
		c0.473-0.349,1.838-0.59,3.446-0.607c1.494-0.015,2.777,0.127,3.352,0.324c0.01,0.28,0.023,0.56,0.043,0.838l-7.461,0.556
		l-0.473-0.463c-0.228,0.288-0.449,0.582-0.667,0.882c0.266,0.259,0.535,0.51,0.808,0.753l0.385-0.536l7.447-0.731
		c0.029,0.278,0.064,0.554,0.102,0.832c-0.527,0.29-1.771,0.651-3.244,0.894c-1.588,0.262-2.975,0.258-3.501-0.003l-0.921,0.126
		c0.032,0.227-0.104,0.436-0.307,0.469l0.067,0.404l2.688-0.459l0.021,0.107l5.296-0.93l0.303-0.052l0.114-0.02
		c-0.189-1.083-0.283-2.182-0.285-3.289h-0.115h-0.311h-5.375V111.685L110.334,111.685z"/>
	<path fill="#FFFFFF" d="M106.384,111.844c0.239,0.308,0.487,0.608,0.734,0.9c-0.124-0.385-0.24-0.773-0.349-1.167h-1.426
		L106.384,111.844z"/>
	<path fill="#FFFFFF" d="M106.767,116.285l-0.976,0.442l1.404-0.247c0.036-0.407,0.084-0.811,0.141-1.211
		C107.141,115.6,106.952,115.94,106.767,116.285"/>
	<path fill="#FFFFFF" d="M110.686,107.395l-2.688-0.46l-0.067,0.404c0.203,0.035,0.338,0.242,0.305,0.468l0.923,0.13
		c0.527-0.264,1.914-0.267,3.501-0.005c1.474,0.242,2.717,0.606,3.246,0.895c-0.037,0.277-0.072,0.554-0.103,0.832l-7.448-0.732
		l-0.384-0.536c-0.271,0.244-0.542,0.496-0.808,0.753c0.218,0.301,0.439,0.597,0.667,0.883l0.473-0.464l7.462,0.555
		c-0.019,0.28-0.033,0.559-0.044,0.838c-0.571,0.195-1.856,0.341-3.353,0.325c-1.607-0.017-2.973-0.26-3.446-0.608l-0.931-0.032
		c-0.009,0.228-0.178,0.411-0.38,0.409l-0.006,0.409l2.729,0.012v0.106h5.375h0.31h0.116c0.002-1.106,0.095-2.204,0.285-3.287
		l-0.114-0.021l-0.304-0.051l-5.295-0.929L110.686,107.395z"/>
	<path fill="#FFFFFF" d="M106.767,106.869c0.187,0.346,0.374,0.685,0.569,1.018c-0.057-0.401-0.104-0.806-0.141-1.211l-1.404-0.247
		L106.767,106.869z"/>
	<path fill="#FFFFFF" d="M106.384,111.311l-1.04,0.265h1.426c0.107-0.392,0.225-0.781,0.349-1.166
		C106.871,110.704,106.623,111.002,106.384,111.311"/>
	<path fill="#FFFFFF" d="M111.779,103.231l-2.569-0.922l-0.136,0.388c0.192,0.066,0.29,0.295,0.22,0.514l0.886,0.285
		c0.564-0.166,1.93,0.072,3.448,0.608c1.409,0.496,2.563,1.072,3.039,1.448c-0.087,0.264-0.168,0.531-0.243,0.799l-7.206-2.018
		l-0.285-0.598c-0.312,0.193-0.622,0.394-0.927,0.605c0.16,0.333,0.326,0.662,0.503,0.985c0.179-0.128,0.361-0.253,0.543-0.375
		l7.252,1.846c-0.069,0.269-0.131,0.541-0.188,0.814c-0.596,0.09-1.887,0.011-3.354-0.262c-1.584-0.294-2.886-0.769-3.293-1.195
		l-0.91-0.193c-0.047,0.225-0.244,0.376-0.445,0.336l-0.075,0.404l2.687,0.483l-0.018,0.105l5.295,0.929l0.304,0.051l0.114,0.021
		c0.188-1.083,0.472-2.145,0.849-3.176l-0.106-0.039l-0.293-0.107l-5.051-1.839L111.779,103.231z"/>
	<path fill="#FFFFFF" d="M108.013,102.028c0.121,0.373,0.247,0.741,0.383,1.102c0.016-0.404,0.039-0.812,0.072-1.22l-1.339-0.486
		L108.013,102.028z"/>
	<path fill="#FFFFFF" d="M106.859,106.345l-1.067,0.083l1.405,0.247c0.174-0.369,0.355-0.733,0.544-1.092
		C107.443,105.829,107.149,106.082,106.859,106.345"/>
	<path fill="#FFFFFF" d="M113.584,99.324l-2.367-1.358l-0.201,0.357c0.18,0.101,0.23,0.342,0.124,0.544l0.822,0.438
		c0.585-0.065,1.887,0.408,3.292,1.2c1.299,0.734,2.339,1.502,2.736,1.957c-0.131,0.245-0.258,0.494-0.377,0.746l-6.744-3.25
		l-0.176-0.637c-0.341,0.137-0.68,0.281-1.021,0.431c0.103,0.36,0.208,0.711,0.323,1.061l0.6-0.275l6.82,3.086
		c-0.115,0.254-0.227,0.51-0.327,0.769c-0.604-0.012-1.86-0.32-3.261-0.844c-1.504-0.567-2.705-1.263-3.03-1.753l-0.864-0.348
		c-0.084,0.211-0.306,0.325-0.497,0.253l-0.145,0.384l2.562,0.944l-0.039,0.103l5.053,1.838l0.293,0.106l0.106,0.04
		c0.375-1.03,0.841-2.029,1.394-2.98l-0.102-0.057l-0.268-0.156l-4.653-2.692L113.584,99.324z"/>
	<path fill="#FFFFFF" d="M110.086,97.482c0.052,0.388,0.117,0.771,0.184,1.149c0.086-0.396,0.182-0.792,0.285-1.187l-1.234-0.717
		L110.086,97.482z"/>
	<path fill="#FFFFFF" d="M108.195,101.528l-1.066-0.104l1.339,0.487c0.236-0.333,0.479-0.661,0.728-0.98
		C108.861,101.12,108.528,101.32,108.195,101.528"/>
	<path fill="#FFFFFF" d="M116.04,95.787l-2.099-1.746l-0.256,0.317c0.156,0.129,0.17,0.377,0.026,0.556l0.733,0.575
		c0.588,0.038,1.789,0.729,3.031,1.752c1.154,0.947,2.045,1.884,2.357,2.4c-0.172,0.22-0.339,0.445-0.503,0.671l-6.074-4.37
		l-0.063-0.658c-0.357,0.075-0.721,0.156-1.078,0.247c0.039,0.368,0.082,0.735,0.135,1.099l0.639-0.164l6.18,4.224
		c-0.158,0.229-0.312,0.464-0.459,0.701c-0.594-0.119-1.775-0.636-3.062-1.399c-1.387-0.821-2.445-1.714-2.682-2.253l-0.787-0.495
		c-0.121,0.193-0.358,0.266-0.534,0.163l-0.209,0.35l2.356,1.38l-0.055,0.092l4.654,2.692l0.268,0.156l0.102,0.056
		c0.55-0.95,1.185-1.854,1.893-2.697l-0.088-0.073l-0.238-0.2l-4.115-3.457L116.04,95.787z"/>
	<path fill="#FFFFFF" d="M112.914,93.367c-0.016,0.392-0.021,0.779-0.018,1.163c0.151-0.374,0.313-0.745,0.483-1.116l-1.093-0.918
		L112.914,93.367z"/>
	<path fill="#FFFFFF" d="M110.352,97.02l-1.032-0.291l1.234,0.717c0.291-0.288,0.586-0.568,0.888-0.838
		C111.076,96.735,110.716,96.873,110.352,97.02"/>
	<path fill="#FFFFFF" d="M119.072,92.729l-1.767-2.083l-0.312,0.27c0.135,0.156,0.104,0.4-0.065,0.553l0.623,0.692
		c0.569,0.139,1.636,1.026,2.685,2.25c0.974,1.131,1.688,2.208,1.908,2.771c-0.208,0.186-0.414,0.378-0.611,0.573l-5.229-5.354
		l0.052-0.658c-0.367,0.01-0.731,0.03-1.104,0.056c-0.027,0.37-0.046,0.737-0.06,1.104l0.658-0.051l5.355,5.228
		c-0.195,0.201-0.387,0.406-0.573,0.613c-0.562-0.22-1.64-0.935-2.771-1.908c-1.225-1.047-2.111-2.111-2.25-2.683l-0.691-0.623
		c-0.154,0.168-0.398,0.199-0.555,0.067l-0.27,0.31l2.081,1.765l-0.067,0.083l4.116,3.457l0.238,0.2l0.088,0.073
		c0.707-0.843,1.489-1.626,2.332-2.332l-0.073-0.089l-0.199-0.237l-3.457-4.116L119.072,92.729z"/>
	<path fill="#FFFFFF" d="M116.41,89.808c-0.084,0.383-0.155,0.764-0.219,1.143c0.215-0.341,0.438-0.682,0.672-1.019l-0.918-1.09
		L116.41,89.808z"/>
	<path fill="#FFFFFF" d="M113.256,92.96l-0.966-0.464l1.091,0.917c0.337-0.231,0.676-0.455,1.02-0.669
		C114.021,92.806,113.639,92.878,113.256,92.96"/>
	<path fill="#FFFFFF" d="M122.587,90.243l-1.379-2.357l-0.354,0.21c0.106,0.174,0.032,0.414-0.16,0.533l0.494,0.791
		c0.539,0.235,1.434,1.294,2.252,2.68c0.762,1.284,1.281,2.468,1.403,3.06c-0.237,0.148-0.474,0.301-0.703,0.458l-4.225-6.176
		l0.163-0.642c-0.36-0.053-0.729-0.098-1.098-0.134c-0.091,0.359-0.174,0.722-0.248,1.078l0.658,0.062l4.37,6.077
		c-0.228,0.162-0.45,0.331-0.669,0.503c-0.518-0.312-1.453-1.205-2.404-2.359c-1.021-1.243-1.712-2.444-1.75-3.031l-0.574-0.735
		c-0.182,0.142-0.43,0.129-0.558-0.03l-0.317,0.26l1.748,2.1l-0.082,0.069l3.455,4.116l0.201,0.236l0.072,0.089
		c0.843-0.707,1.748-1.341,2.698-1.892l-0.058-0.1l-0.154-0.268l-2.693-4.654L122.587,90.243z"/>
	<path fill="#FFFFFF" d="M120.47,86.902c-0.146,0.366-0.286,0.726-0.414,1.089c0.271-0.299,0.552-0.596,0.839-0.886l-0.714-1.235
		L120.47,86.902z"/>
	<path fill="#FFFFFF" d="M116.816,89.463l-0.871-0.622l0.918,1.091c0.369-0.17,0.742-0.331,1.117-0.484
		C117.595,89.445,117.208,89.452,116.816,89.463"/>
	<path fill="#FFFFFF" d="M126.478,88.406l-0.944-2.563l-0.385,0.146c0.071,0.189-0.041,0.412-0.25,0.496l0.346,0.865
		c0.49,0.326,1.188,1.525,1.754,3.032c0.525,1.398,0.83,2.653,0.845,3.258c-0.259,0.105-0.517,0.212-0.769,0.329l-3.088-6.819
		l0.274-0.602c-0.349-0.117-0.702-0.222-1.06-0.323c-0.15,0.338-0.295,0.677-0.43,1.019l0.637,0.176l3.25,6.742
		c-0.252,0.12-0.502,0.25-0.746,0.38c-0.455-0.399-1.227-1.44-1.959-2.74c-0.791-1.4-1.266-2.706-1.2-3.29l-0.438-0.821
		c-0.199,0.106-0.441,0.052-0.543-0.125l-0.356,0.2l1.356,2.368l-0.093,0.055l2.69,4.654l0.156,0.268l0.057,0.1
		c0.95-0.551,1.95-1.017,2.98-1.392l-0.041-0.11l-0.104-0.289l-1.839-5.052L126.478,88.406z"/>
	<path fill="#FFFFFF" d="M124.977,84.747c-0.208,0.331-0.408,0.666-0.596,1c0.316-0.248,0.646-0.491,0.979-0.727l-0.486-1.34
		L124.977,84.747z"/>
	<path fill="#FFFFFF" d="M120.93,86.637l-0.75-0.766l0.715,1.235c0.396-0.105,0.79-0.201,1.188-0.284
		C121.701,86.751,121.318,86.689,120.93,86.637"/>
	<path fill="#FFFFFF" d="M130.632,87.275l-0.481-2.688l-0.402,0.076c0.039,0.202-0.113,0.397-0.338,0.445l0.191,0.912
		c0.428,0.407,0.902,1.708,1.194,3.293c0.276,1.465,0.354,2.757,0.264,3.354c-0.271,0.057-0.545,0.121-0.812,0.188l-1.849-7.252
		c0.122-0.181,0.249-0.363,0.373-0.544c-0.318-0.173-0.646-0.341-0.983-0.502c-0.209,0.305-0.406,0.615-0.604,0.926l0.601,0.287
		l2.018,7.206c-0.269,0.074-0.535,0.154-0.8,0.242c-0.377-0.472-0.951-1.629-1.447-3.038c-0.536-1.519-0.772-2.885-0.607-3.449
		l-0.285-0.887c-0.218,0.073-0.448-0.025-0.515-0.217l-0.388,0.137l0.922,2.566l-0.102,0.037l1.84,5.053l0.104,0.289l0.04,0.11
		c1.032-0.375,2.097-0.658,3.177-0.847l-0.021-0.116l-0.054-0.303l-0.927-5.297L130.632,87.275z"/>
	<path fill="#FFFFFF" d="M129.794,83.41c-0.265,0.289-0.519,0.584-0.763,0.88c0.357-0.189,0.721-0.371,1.093-0.546l-0.246-1.403
		L129.794,83.41z"/>
	<path fill="#FFFFFF" d="M125.477,84.563l-0.604-0.883l0.486,1.34c0.408-0.035,0.815-0.059,1.222-0.074
		C126.217,84.81,125.852,84.685,125.477,84.563"/>
	<path fill="#FFFFFF" d="M134.92,86.883l-0.011-2.729l-0.411,0.006c0.003,0.204-0.182,0.372-0.407,0.381l0.031,0.932
		c0.349,0.472,0.592,1.837,0.607,3.447c0.016,1.491-0.131,2.778-0.323,3.35c-0.281,0.008-0.561,0.023-0.841,0.044l-0.556-7.464
		l0.462-0.469c-0.288-0.227-0.581-0.449-0.881-0.667c-0.26,0.266-0.511,0.535-0.756,0.808l0.54,0.384l0.73,7.448
		c-0.278,0.028-0.557,0.062-0.835,0.101c-0.288-0.531-0.651-1.771-0.892-3.246c-0.262-1.587-0.26-2.973,0.003-3.5l-0.129-0.923
		c-0.228,0.031-0.437-0.103-0.468-0.305l-0.404,0.066l0.459,2.69l-0.105,0.018l0.929,5.298l0.055,0.302l0.021,0.116
		c1.082-0.19,2.182-0.285,3.286-0.285v-0.115v-0.309v-5.378L134.92,86.883L134.92,86.883z"/>
	<path fill="#FFFFFF" d="M134.761,82.935c-0.308,0.239-0.609,0.485-0.899,0.734c0.386-0.124,0.771-0.24,1.165-0.348v-1.426
		L134.761,82.935z"/>
	<path fill="#FFFFFF" d="M130.32,83.318l-0.44-0.977l0.246,1.403c0.408,0.039,0.811,0.086,1.211,0.142
		C131.004,83.689,130.664,83.502,130.32,83.318"/>
	<path fill="#FFFFFF" d="M139.21,87.238l0.456-2.689l-0.403-0.067c-0.031,0.202-0.241,0.335-0.467,0.304l-0.13,0.924
		c0.263,0.527,0.269,1.914,0.007,3.5c-0.243,1.473-0.604,2.713-0.896,3.246c-0.273-0.039-0.552-0.072-0.832-0.102l0.731-7.448
		l0.538-0.383c-0.244-0.272-0.496-0.542-0.754-0.808c-0.301,0.218-0.593,0.44-0.879,0.667l0.46,0.471l-0.557,7.463
		c-0.277-0.021-0.559-0.035-0.838-0.044c-0.194-0.573-0.342-1.857-0.325-3.35c0.018-1.61,0.261-2.976,0.607-3.448l0.031-0.932
		c-0.229-0.009-0.41-0.176-0.407-0.38l-0.409-0.007l-0.012,2.729h-0.108v5.378v0.309v0.116c1.105,0,2.205,0.095,3.287,0.285
		l0.021-0.116l0.054-0.303l0.927-5.297L139.21,87.238z"/>
	<path fill="#FFFFFF" d="M139.734,83.318c-0.347,0.184-0.685,0.371-1.015,0.568c0.399-0.056,0.804-0.104,1.21-0.142l0.245-1.403
		L139.734,83.318z"/>
	<path fill="#FFFFFF" d="M135.293,82.935l-0.269-1.04v1.426c0.396,0.108,0.784,0.224,1.166,0.348
		C135.9,83.421,135.601,83.175,135.293,82.935"/>
	<path fill="#FFFFFF" d="M143.374,88.33l0.921-2.566l-0.388-0.137c-0.065,0.192-0.297,0.29-0.514,0.217l-0.288,0.887
		c0.166,0.564-0.069,1.931-0.605,3.449c-0.496,1.409-1.069,2.566-1.446,3.038c-0.266-0.088-0.532-0.168-0.801-0.242l2.017-7.206
		l0.601-0.287c-0.193-0.309-0.395-0.621-0.604-0.926c-0.336,0.162-0.663,0.329-0.982,0.502c0.128,0.179,0.248,0.363,0.373,0.544
		l-1.849,7.252c-0.271-0.067-0.539-0.131-0.81-0.188c-0.096-0.597-0.018-1.889,0.258-3.354c0.293-1.585,0.77-2.886,1.196-3.293
		l0.19-0.912c-0.224-0.047-0.375-0.244-0.334-0.446l-0.406-0.076l-0.479,2.688l-0.108-0.02l-0.927,5.297l-0.054,0.303l-0.021,0.116
		c1.084,0.189,2.146,0.472,3.176,0.847l0.04-0.11l0.104-0.289l1.839-5.053L143.374,88.33z"/>
	<path fill="#FFFFFF" d="M144.576,84.563c-0.372,0.122-0.74,0.247-1.104,0.382c0.406,0.015,0.812,0.039,1.22,0.074l0.488-1.34
		L144.576,84.563z"/>
	<path fill="#FFFFFF" d="M140.258,83.41l-0.083-1.068l-0.245,1.403c0.369,0.175,0.732,0.357,1.093,0.546
		C140.777,83.995,140.522,83.699,140.258,83.41"/>
	<path fill="#FFFFFF" d="M147.28,90.135l1.355-2.369l-0.354-0.199c-0.104,0.176-0.344,0.23-0.544,0.125l-0.439,0.821
		c0.066,0.584-0.407,1.887-1.201,3.29c-0.732,1.299-1.5,2.34-1.956,2.74c-0.243-0.132-0.494-0.259-0.742-0.382l3.246-6.741
		l0.641-0.176c-0.14-0.342-0.279-0.68-0.435-1.019c-0.356,0.101-0.711,0.206-1.061,0.324l0.273,0.6l-3.083,6.819
		c-0.257-0.115-0.513-0.223-0.771-0.328c0.015-0.605,0.316-1.86,0.845-3.259c0.564-1.505,1.262-2.705,1.752-3.031l0.353-0.865
		c-0.214-0.085-0.327-0.306-0.254-0.496l-0.387-0.146l-0.941,2.562l-0.104-0.039l-1.838,5.052l-0.104,0.289l-0.041,0.11
		c1.03,0.375,2.029,0.839,2.979,1.392l0.061-0.102l0.153-0.267l2.691-4.654L147.28,90.135z"/>
	<path fill="#FFFFFF" d="M149.123,86.637c-0.389,0.053-0.771,0.115-1.15,0.186c0.396,0.083,0.793,0.179,1.188,0.284l0.717-1.235
		L149.123,86.637z"/>
	<path fill="#FFFFFF" d="M145.077,84.747l0.104-1.068l-0.488,1.34c0.335,0.236,0.662,0.479,0.981,0.727
		C145.483,85.413,145.285,85.079,145.077,84.747"/>
	<path fill="#FFFFFF" d="M150.815,92.593l1.747-2.098l-0.312-0.262c-0.133,0.16-0.382,0.172-0.56,0.03l-0.575,0.734
		c-0.037,0.587-0.729,1.788-1.751,3.032c-0.947,1.154-1.888,2.046-2.401,2.358c-0.218-0.172-0.443-0.341-0.67-0.504l4.37-6.075
		l0.654-0.063c-0.07-0.356-0.152-0.719-0.245-1.077c-0.369,0.036-0.737,0.081-1.098,0.133l0.164,0.642l-4.226,6.176
		c-0.231-0.158-0.462-0.309-0.7-0.458c0.12-0.591,0.636-1.776,1.396-3.059c0.82-1.388,1.717-2.446,2.257-2.681l0.491-0.791
		c-0.191-0.12-0.267-0.361-0.161-0.534l-0.353-0.21l-1.378,2.357l-0.095-0.053l-2.692,4.654l-0.154,0.268l-0.059,0.1
		c0.951,0.55,1.855,1.185,2.699,1.894l0.074-0.089l0.199-0.237l3.456-4.116L150.815,92.593z"/>
	<path fill="#FFFFFF" d="M153.236,89.463c-0.392-0.012-0.775-0.018-1.16-0.015c0.369,0.153,0.746,0.314,1.114,0.484l0.919-1.091
		L153.236,89.463z"/>
	<path fill="#FFFFFF" d="M149.584,86.902l0.291-1.032l-0.717,1.235c0.289,0.29,0.565,0.586,0.84,0.886
		C149.868,87.628,149.731,87.268,149.584,86.902"/>
	<path fill="#FFFFFF" d="M153.875,95.623l2.081-1.765l-0.269-0.311c-0.155,0.133-0.398,0.102-0.555-0.067l-0.69,0.623
		c-0.14,0.571-1.026,1.636-2.25,2.683c-1.134,0.974-2.211,1.688-2.771,1.909c-0.188-0.208-0.378-0.413-0.573-0.614l5.354-5.228
		l0.656,0.049c-0.012-0.365-0.027-0.732-0.058-1.103c-0.372-0.026-0.739-0.046-1.103-0.057l0.051,0.658l-5.229,5.354
		c-0.201-0.195-0.402-0.386-0.612-0.573c0.222-0.563,0.935-1.64,1.907-2.772c1.051-1.223,2.112-2.111,2.685-2.25l0.624-0.691
		c-0.169-0.154-0.202-0.398-0.067-0.554l-0.311-0.27l-1.767,2.083l-0.082-0.067l-3.456,4.116l-0.199,0.236l-0.074,0.089
		c0.843,0.708,1.627,1.49,2.334,2.333l0.089-0.073l0.236-0.2l4.114-3.458L153.875,95.623z"/>
	<path fill="#FFFFFF" d="M156.796,92.96c-0.38-0.083-0.761-0.155-1.142-0.216c0.341,0.214,0.68,0.438,1.02,0.669l1.09-0.917
		L156.796,92.96z"/>
	<path fill="#FFFFFF" d="M153.645,89.808l0.465-0.966l-0.919,1.09c0.234,0.336,0.456,0.677,0.67,1.019
		C153.799,90.571,153.727,90.19,153.645,89.808"/>
	<path fill="#FFFFFF" d="M156.361,99.137l2.356-1.379l-0.208-0.351c-0.176,0.103-0.415,0.031-0.535-0.163l-0.79,0.495
		c-0.235,0.538-1.293,1.433-2.68,2.254c-1.283,0.762-2.469,1.28-3.062,1.398c-0.146-0.236-0.301-0.471-0.459-0.701l6.18-4.225
		l0.639,0.165c0.054-0.362,0.1-0.729,0.136-1.098c-0.358-0.09-0.721-0.172-1.079-0.247l-0.062,0.656l-6.074,4.371
		c-0.163-0.227-0.334-0.451-0.505-0.671c0.312-0.517,1.205-1.453,2.355-2.4c1.245-1.022,2.445-1.714,3.031-1.752l0.735-0.575
		c-0.146-0.179-0.128-0.427,0.028-0.556l-0.263-0.317l-2.096,1.748l-0.069-0.083l-4.114,3.458l-0.236,0.2l-0.089,0.072
		c0.707,0.844,1.341,1.749,1.893,2.699l0.101-0.056l0.268-0.156l4.655-2.692L156.361,99.137z"/>
	<path fill="#FFFFFF" d="M159.702,97.02c-0.363-0.147-0.729-0.285-1.089-0.413c0.3,0.271,0.596,0.55,0.888,0.838l1.229-0.717
		L159.702,97.02z"/>
	<path fill="#FFFFFF" d="M157.14,93.367l0.624-0.872l-1.092,0.918c0.171,0.371,0.333,0.743,0.485,1.116
		C157.158,94.146,157.152,93.759,157.14,93.367"/>
	<path fill="#FFFFFF" d="M158.201,103.028l2.561-0.944l-0.146-0.384c-0.188,0.073-0.413-0.042-0.494-0.253l-0.867,0.349
		c-0.324,0.49-1.524,1.186-3.029,1.753c-1.396,0.525-2.655,0.832-3.26,0.845c-0.104-0.259-0.213-0.515-0.33-0.769l6.819-3.086
		l0.603,0.275c0.117-0.35,0.226-0.702,0.323-1.06c-0.34-0.151-0.679-0.295-1.021-0.432l-0.173,0.637l-6.743,3.249
		c-0.121-0.251-0.246-0.5-0.383-0.745c0.401-0.455,1.444-1.222,2.743-1.956c1.4-0.793,2.705-1.265,3.288-1.201l0.822-0.438
		c-0.106-0.203-0.056-0.444,0.125-0.544l-0.202-0.357l-2.368,1.358l-0.052-0.095l-4.655,2.692l-0.268,0.156l-0.101,0.056
		c0.55,0.952,1.017,1.951,1.393,2.981l0.107-0.039l0.292-0.106l5.051-1.839L158.201,103.028z"/>
	<path fill="#FFFFFF" d="M161.859,101.528c-0.333-0.208-0.668-0.408-1-0.598c0.246,0.319,0.488,0.647,0.727,0.98l1.339-0.487
		L161.859,101.528z"/>
	<path fill="#FFFFFF" d="M159.97,97.482l0.763-0.753l-1.229,0.717c0.1,0.393,0.197,0.79,0.282,1.188
		C159.853,98.253,159.914,97.87,159.97,97.482"/>
	<path fill="#FFFFFF" d="M159.33,107.182l2.688-0.482l-0.077-0.404c-0.196,0.039-0.396-0.112-0.444-0.337l-0.91,0.194
		c-0.408,0.426-1.71,0.901-3.292,1.195c-1.468,0.273-2.76,0.353-3.358,0.262c-0.053-0.272-0.113-0.546-0.186-0.815l7.254-1.845
		c0.181,0.122,0.363,0.247,0.543,0.375c0.175-0.323,0.343-0.651,0.502-0.986c-0.305-0.211-0.615-0.412-0.925-0.604l-0.285,0.598
		l-7.207,2.018c-0.075-0.269-0.158-0.535-0.242-0.8c0.472-0.375,1.629-0.953,3.035-1.447c1.521-0.535,2.887-0.774,3.451-0.608
		l0.888-0.286c-0.073-0.217,0.024-0.447,0.217-0.514l-0.139-0.388l-2.565,0.922l-0.035-0.102l-5.053,1.84l-0.292,0.106l-0.107,0.039
		c0.375,1.032,0.661,2.094,0.851,3.175l0.112-0.021l0.305-0.052l5.295-0.928L159.33,107.182z"/>
	<path fill="#FFFFFF" d="M163.193,106.345c-0.287-0.263-0.582-0.517-0.881-0.763c0.19,0.359,0.371,0.723,0.546,1.092l1.403-0.247
		L163.193,106.345z"/>
	<path fill="#FFFFFF" d="M162.041,102.028l0.882-0.604l-1.339,0.486c0.035,0.408,0.059,0.816,0.07,1.22
		C161.795,102.769,161.922,102.401,162.041,102.028"/>
	<path fill="#FFFFFF" d="M159.718,111.47l2.731-0.012l-0.007-0.41c-0.199,0.003-0.374-0.18-0.38-0.408l-0.932,0.032
		c-0.475,0.348-1.84,0.59-3.449,0.607c-1.492,0.016-2.778-0.13-3.351-0.325c-0.007-0.279-0.023-0.559-0.045-0.838l7.466-0.555
		l0.469,0.464c0.229-0.287,0.45-0.582,0.668-0.883c-0.266-0.258-0.535-0.51-0.809-0.754l-0.385,0.536l-7.447,0.732
		c-0.031-0.278-0.061-0.554-0.104-0.831c0.531-0.291,1.771-0.653,3.246-0.895c1.587-0.262,2.975-0.259,3.502,0.005l0.923-0.129
		c-0.031-0.227,0.105-0.434,0.308-0.468l-0.067-0.404l-2.688,0.46l-0.021-0.107l-5.295,0.929l-0.305,0.051l-0.112,0.021
		c0.188,1.083,0.282,2.181,0.285,3.287h0.114h0.309h5.377L159.718,111.47z"/>
	<path fill="#FFFFFF" d="M163.669,111.311c-0.24-0.309-0.483-0.608-0.733-0.901c0.124,0.385,0.241,0.774,0.35,1.166h1.425
		L163.669,111.311z"/>
	<path fill="#FFFFFF" d="M163.285,106.869l0.977-0.44l-1.403,0.247c-0.034,0.406-0.083,0.81-0.143,1.211
		C162.913,107.554,163.101,107.214,163.285,106.869"/>
</g>
<g>
	<g>
		<path fill="#4B3087" d="M55.365,3.187c-4.622,1.05-8.364,3.89-11.227,8.524c-3.862,6.256-5.786,13.966-5.773,23.134
			c8.009-2.861,14.879-2.524,20.606,1.013c4.822,2.978,7.828,7.51,9.012,13.597c1.188,6.086,0.177,11.729-3.03,16.922
			c-1.258,2.033-3.012,3.964-5.269,5.794c-2.257,1.829-3.746,2.521-4.469,2.077c-0.18-0.215-0.201-0.438-0.062-0.662
			c0.117-0.188,0.417-0.419,0.9-0.692c2.776-1.508,4.895-3.45,6.359-5.821c2.648-4.29,3.072-9.107,1.274-14.455
			c-1.798-5.347-5.261-9.603-10.384-12.767c-4.409-2.721-9.324-3.569-14.744-2.545c1.055,11.946,7.001,26.337,17.837,43.176
			c6.562,10.191,10.758,18.402,12.584,24.63c1.828,6.229,2.341,13.701,1.538,22.416c-1.018,10.248-3.435,18.463-7.25,24.639
			c-3.118,5.052-6.87,8.537-11.258,10.461c-4.388,1.923-8.314,1.812-11.781-0.327c-1.922-1.188-3.226-2.783-3.91-4.793
			c-0.682-2.011-0.538-3.81,0.44-5.39c1.417-2.299,3.409-2.658,5.971-1.076c1.282,0.791,2.137,1.853,2.562,3.185
			c0.427,1.33,0.293,2.562-0.406,3.688c-1.208,1.963-2.808,2.275-4.797,0.941c-0.805-0.547-1.266-0.727-1.382-0.539
			c-0.372,0.604,0.439,1.521,2.437,2.752c3.127,1.934,6.677,2.004,10.645,0.213c3.967-1.791,7.394-5.025,10.278-9.699
			c5.096-8.25,6.66-17.615,4.697-28.09c-0.858-4.589-2.045-8.782-3.553-12.576c-1.621-4.122-5.882-13.571-12.788-28.347
			c-3.378-7.342-6.357-15.373-8.934-24.094c-2.579-8.721-3.994-15.659-4.248-20.811c-8.639,2.784-16.472,9.865-23.497,21.244
			C3.925,74.81,1.133,92.187,5.367,111.035c3.465,15.463,9.36,25.763,17.688,30.903c4.221,2.609,8.411,3.322,12.572,2.145
			c4.164-1.178,7.674-4.084,10.535-8.719c4.676-7.574,5.873-17.646,3.59-30.217c-2.281-12.573-6.854-20.975-13.708-25.21
			c-5.463-3.372-9.929-2.252-13.396,3.362c-3.467,5.614-4.047,13.57-1.744,23.862c2.3,10.294,6.2,17.139,11.695,20.531
			c1.355,0.838,2.804,1.104,4.342,0.799c1.541-0.305,2.686-1.063,3.435-2.274c0.396-0.646,0.766-0.862,1.104-0.652
			c0.304,0.187,0.231,0.638-0.213,1.357c-1.122,1.815-2.885,2.841-5.293,3.075c-2.408,0.238-4.797-0.373-7.169-1.838
			c-5.873-3.627-9.606-10.38-11.2-20.265c-1.596-9.883-0.298-18.216,3.89-24.998c4.001-6.481,8.997-7.872,14.988-4.173
			c7.31,4.512,12.147,13.198,14.513,26.055c2.366,12.86,1.071,23.3-3.883,31.326c-3.234,5.237-7.395,8.458-12.482,9.661
			c-5.089,1.205-10.27,0.181-15.544-3.078c-10.663-6.584-16.679-18.61-18.044-36.082c-1.366-17.47,2.452-33.497,11.455-48.078
			c6.84-11.078,15.052-18.86,24.643-23.35c-0.041-9.545,1.929-17.542,5.908-23.984c3.117-5.048,7.128-8.178,12.036-9.392"/>
		<path fill="#4B3087" d="M87.009,68.003c0.365,0.363,0.795,3.31,1.291,8.842c0.437,4.51,0.068,7.356-1.105,8.541
			c-0.795,0.803-1.742,1.159-2.843,1.068c-1.102-0.089-2.104-0.583-3.01-1.479c-0.94-0.931-1.682-2.219-2.226-3.862
			c0.712,4.155,1.036,7.118,0.976,8.882c-0.062,1.769-0.523,3.088-1.387,3.958c-0.913,0.923-2.076,1.305-3.489,1.147
			c-1.412-0.158-2.72-0.833-3.921-2.022c-3.34-3.312-3.962-8.602-1.865-15.873c0.904-3.208,1.985-5.448,3.245-6.719
			c1.069-1.079,2.125-1.102,3.171-0.066c0.295,0.293,0.618,0.751,0.968,1.372l-1.214-3.84c0.641-0.401,1.158-0.803,1.554-1.203
			c0.467-0.47,1.009-1.139,1.63-2.008l3.069,12.2c1.092,4.259,2.067,6.81,2.919,7.654c0.818,0.811,1.564,0.877,2.238,0.196
			c0.691-0.697,0.998-2.603,0.923-5.716c-0.074-3.115-0.495-6.622-1.259-10.524c-0.071-0.275-0.062-0.459,0.024-0.546
			C86.8,67.9,86.905,67.901,87.009,68.003z M75.561,70.914c-0.853-0.844-1.668-0.875-2.443-0.092
			c-1.587,1.601-2.104,5.254-1.549,10.961s1.798,9.518,3.729,11.432c1.132,1.121,2.197,1.177,3.198,0.167
			c1.188-1.202,1.258-5.256,0.205-12.165C77.824,75.558,76.78,72.122,75.561,70.914z"/>
		<path fill="#4B3087" d="M93.175,54.515l0.08,0.621l-3.929,2.783l1.409,16.165c0.158,1.961,0.527,3.351,1.107,4.17
			c0.638,0.899,1.428,1.015,2.367,0.35c1.821-1.292,2.646-6.642,2.473-16.054c-0.002-0.3,0.049-0.485,0.148-0.556
			c0.119-0.085,0.222-0.068,0.306,0.051c0.022,0.075,0.037,0.306,0.042,0.693l-0.036,2.687c-0.059,7.893-1.04,12.512-2.94,13.861
			c-0.941,0.665-1.969,0.881-3.079,0.649c-1.114-0.232-2.031-0.859-2.754-1.879c-0.85-1.201-1.384-3.073-1.599-5.624l-0.954-12.026
			l-3.06,2.167l-0.02-0.662l2.999-2.125l-0.613-8.305c0.714-0.265,1.34-0.588,1.879-0.971c0.56-0.397,1.082-0.887,1.569-1.472
			l0.674,8.261L93.175,54.515z"/>
		<path fill="#4B3087" d="M116.342,53.702c0.084,0.179-0.191,1.306-0.828,3.383c-0.789,2.669-1.924,4.358-3.408,5.07
			c-1.682,0.807-2.988,0.238-3.922-1.705c-0.296-0.619-0.54-1.466-0.73-2.544c-0.81,1.884-1.364,3.63-1.664,5.242
			c-0.3,1.612-0.642,4.767-1.025,9.461c-1.214,0.473-1.92,0.757-2.119,0.852c-0.088,0.043-0.739,0.41-1.957,1.103l1.206-11.422
			c0.599-5.721,0.642-9.113,0.133-10.174c-0.296-0.618-0.7-0.807-1.21-0.562c-1.238,0.596-2.344,4.054-3.313,10.375
			c-0.051,0.406-0.154,0.645-0.311,0.719c-0.099,0.021-0.173-0.023-0.228-0.134c-0.031-0.121-0.03-0.232,0.006-0.33l0.198-1.116
			c1.229-6.174,2.454-9.551,3.671-10.136c1.77-0.849,3.202-0.137,4.293,2.14c0.816,1.701,0.99,4.389,0.525,8.062
			c0.513-1.876,1.087-3.485,1.722-4.822c-0.104-2.368,0.151-4.516,0.763-6.439c0.612-1.926,1.416-3.125,2.409-3.604
			c0.688-0.327,1.171-0.195,1.457,0.403c0.51,1.061-0.301,3.311-2.428,6.75c-0.338,0.543-0.851,1.345-1.535,2.408l-0.24,0.522
			c0.18,1.166,0.427,2.079,0.744,2.741c0.891,1.856,2.033,2.45,3.428,1.78c1.729-0.828,2.922-3.159,3.588-6.997
			c0.207-0.699,0.368-1.076,0.479-1.128C116.182,53.536,116.279,53.571,116.342,53.702z"/>
		<path fill="#4B3087" d="M127.647,52.498c-0.005,0.077-0.068,0.299-0.197,0.664l-0.949,2.514
			c-2.747,7.399-5.291,11.421-7.632,12.064c-1.111,0.307-2.148,0.167-3.111-0.421c-0.962-0.585-1.607-1.468-1.932-2.649
			c-0.377-1.37-0.137-3.674,0.729-6.91l2.943-10.913c0.777-0.035,1.379-0.113,1.805-0.229c0.637-0.176,1.512-0.505,2.624-0.989
			l-4.405,15.432c-0.632,2.232-0.803,3.867-0.519,4.907c0.294,1.063,0.996,1.441,2.106,1.136c2.104-0.58,4.775-5.349,8.01-14.309
			c0.058-0.268,0.14-0.419,0.259-0.451C127.519,52.305,127.609,52.356,127.647,52.498z M123.1,37.987
			c0.229,0.827,0.094,1.695-0.404,2.607c-0.498,0.914-1.162,1.483-1.987,1.711c-1.063,0.292-1.741-0.092-2.033-1.156
			c-0.216-0.781-0.056-1.631,0.478-2.553c0.533-0.921,1.205-1.493,2.008-1.713C122.172,36.603,122.82,36.972,123.1,37.987z"/>
		<path fill="#4B3087" d="M145.348,51.426c0.034,0.315-1.467,2.549-4.496,6.701c-3.315,4.501-6.293,6.892-8.925,7.175
			c-1.706,0.183-3.24-0.313-4.599-1.484c-1.36-1.173-2.137-2.661-2.329-4.463c-0.22-2.046,0.382-4.256,1.805-6.625
			c1.419-2.371,3.445-4.498,6.079-6.383c2.217-1.617,4.067-2.506,5.554-2.666c1.805-0.192,2.821,0.783,3.055,2.926
			c0.179,1.681-0.21,3.423-1.161,5.226c-0.949,1.803-1.988,2.762-3.11,2.883c-1.095,0.118-1.703-0.372-1.819-1.468
			c-0.137-1.292,0.854-2.605,2.979-3.942c1.643-1.038,2.383-2.252,2.231-3.641c-0.114-1.096-0.771-1.581-1.964-1.453
			c-2.022,0.218-4.293,2.494-6.812,6.83c-2.515,4.336-3.628,7.868-3.335,10.596c0.244,2.292,1.44,3.321,3.589,3.091
			c3.365-0.361,7.521-4.645,12.458-12.851c0.277-0.423,0.489-0.644,0.634-0.659C145.28,51.235,145.336,51.303,145.348,51.426z"/>
		<path fill="#4B3087" d="M157.147,53.015c-0.025,0.073-0.156,0.264-0.394,0.573l-1.673,2.103c-4.886,6.201-8.537,9.25-10.963,9.145
			c-1.153-0.049-2.097-0.5-2.835-1.352c-0.736-0.855-1.077-1.892-1.024-3.116c0.062-1.421,0.998-3.539,2.812-6.354l6.146-9.486
			c0.752,0.205,1.35,0.315,1.789,0.335c0.662,0.028,1.594-0.019,2.802-0.137l-8.922,13.339c-1.286,1.931-1.951,3.435-1.997,4.513
			c-0.049,1.102,0.506,1.676,1.658,1.726c2.177,0.093,6.184-3.628,12.008-11.165c0.134-0.239,0.261-0.357,0.382-0.352
			C157.082,52.792,157.152,52.869,157.147,53.015z M157.266,37.809c-0.038,0.856-0.432,1.643-1.188,2.358
			c-0.755,0.716-1.562,1.056-2.417,1.019c-1.104-0.048-1.629-0.621-1.583-1.724c0.036-0.807,0.447-1.568,1.238-2.282
			c0.789-0.714,1.603-1.053,2.438-1.018C156.805,36.207,157.309,36.756,157.266,37.809z"/>
		<path fill="#4B3087" d="M182.882,57.56c-0.104,0.504-2.341,2.472-6.71,5.9c-3.542,2.823-6.13,4.067-7.764,3.728
			c-1.104-0.23-1.922-0.831-2.445-1.803c-0.523-0.972-0.656-2.083-0.397-3.329c0.271-1.296,0.943-2.621,2.026-3.972
			c-3.098,2.86-5.403,4.748-6.918,5.658c-1.52,0.911-2.875,1.244-4.071,0.996c-1.274-0.266-2.227-1.033-2.864-2.303
			c-0.637-1.271-0.783-2.734-0.439-4.389c0.958-4.607,5.054-8.011,12.295-10.213c3.179-0.99,5.649-1.304,7.4-0.941
			c1.484,0.309,2.078,1.183,1.78,2.623c-0.083,0.407-0.291,0.929-0.625,1.561l2.563-3.11c0.683,0.316,1.301,0.532,1.854,0.646
			c0.646,0.134,1.504,0.225,2.569,0.271l-8.558,9.224c-2.978,3.235-4.582,5.442-4.828,6.617c-0.23,1.128,0.12,1.789,1.054,1.983
			c0.962,0.199,2.729-0.581,5.3-2.341c2.572-1.759,5.282-4.022,8.137-6.789c0.193-0.21,0.354-0.302,0.475-0.278
			C182.855,57.329,182.914,57.416,182.882,57.56z M174.204,49.547c0.244-1.175-0.171-1.875-1.252-2.099
			c-2.207-0.458-5.556,1.099-10.036,4.673c-4.484,3.575-7.002,6.694-7.556,9.356c-0.321,1.561,0.21,2.484,1.604,2.773
			c1.656,0.344,5.093-1.809,10.311-6.457C171.547,53.976,173.856,51.226,174.204,49.547z"/>
	</g>
	<g>
		<path fill="#FFFFFF" d="M54.536,1.38c-4.618,1.048-8.357,3.886-11.217,8.516c-3.855,6.249-5.778,13.952-5.767,23.108
			c8.002-2.857,14.865-2.52,20.586,1.012c4.817,2.975,7.819,7.502,9.001,13.583c1.188,6.08,0.177,11.717-3.027,16.905
			c-1.255,2.032-3.008,3.96-5.263,5.788c-2.254,1.828-3.742,2.519-4.463,2.075c-0.18-0.215-0.201-0.437-0.062-0.661
			c0.115-0.187,0.417-0.417,0.899-0.691c2.773-1.506,4.892-3.446,6.353-5.815c2.646-4.285,3.071-9.098,1.273-14.44
			c-1.795-5.341-5.255-9.592-10.374-12.753c-4.403-2.718-9.312-3.566-14.728-2.543c1.054,11.934,6.994,26.31,17.817,43.131
			C62.121,88.776,66.311,96.98,68.136,103.2c1.825,6.223,2.338,13.686,1.536,22.392c-1.018,10.236-3.431,18.443-7.242,24.615
			c-3.115,5.041-6.863,8.525-11.246,10.445c-4.383,1.92-8.305,1.812-11.77-0.326c-1.918-1.184-3.222-2.781-3.905-4.791
			c-0.682-2.004-0.537-3.798,0.44-5.379c1.417-2.294,3.405-2.652,5.964-1.074c1.279,0.789,2.134,1.85,2.56,3.18
			c0.427,1.33,0.292,2.559-0.405,3.688c-1.208,1.957-2.805,2.271-4.791,0.938c-0.805-0.545-1.265-0.728-1.381-0.539
			c-0.373,0.604,0.439,1.519,2.435,2.75c3.124,1.93,6.668,2,10.633,0.209c3.962-1.789,7.387-5.021,10.268-9.688
			c5.09-8.24,6.653-17.595,4.692-28.06c-0.858-4.585-2.042-8.773-3.55-12.562c-1.618-4.117-5.875-13.556-12.773-28.317
			c-3.375-7.335-6.35-15.356-8.925-24.068c-2.576-8.712-3.99-15.643-4.243-20.79c-8.63,2.78-16.456,9.855-23.473,21.222
			C3.153,72.93,0.365,90.288,4.594,109.117c3.46,15.446,9.35,25.737,17.669,30.874c4.216,2.604,8.401,3.314,12.559,2.139
			c4.159-1.176,7.666-4.079,10.523-8.709c4.67-7.564,5.867-17.628,3.587-30.186c-2.278-12.56-6.845-20.953-13.695-25.184
			c-5.457-3.369-9.918-2.25-13.381,3.359c-3.462,5.608-4.044,13.554-1.743,23.837c2.297,10.283,6.193,17.122,11.684,20.509
			c1.353,0.837,2.8,1.104,4.338,0.799c1.54-0.305,2.682-1.062,3.43-2.273c0.397-0.643,0.767-0.859,1.104-0.648
			c0.302,0.186,0.229,0.637-0.213,1.354c-1.122,1.813-2.882,2.837-5.288,3.074c-2.406,0.237-4.793-0.375-7.162-1.838
			c-5.867-3.623-9.596-10.369-11.189-20.243c-1.594-9.873-0.297-18.197,3.887-24.972c3.996-6.475,8.985-7.864,14.972-4.169
			c7.301,4.507,12.134,13.185,14.497,26.028c2.363,12.846,1.071,23.276-3.879,31.292c-3.231,5.232-7.388,8.451-12.471,9.649
			c-5.083,1.205-10.259,0.181-15.528-3.074c-10.653-6.575-16.662-18.59-18.025-36.043c-1.365-17.452,2.45-33.461,11.443-48.027
			C18.546,45.6,26.75,37.826,36.331,33.34c-0.04-9.536,1.928-17.523,5.902-23.959C45.347,4.339,49.353,1.212,54.256,0"/>
		<path fill="#FFFFFF" d="M86.194,66.199c0.366,0.363,0.797,3.31,1.292,8.841c0.437,4.51,0.067,7.357-1.105,8.541
			c-0.794,0.803-1.742,1.159-2.843,1.069c-1.103-0.09-2.104-0.583-3.01-1.48c-0.939-0.931-1.683-2.218-2.227-3.861
			c0.712,4.155,1.038,7.117,0.975,8.883c-0.061,1.768-0.522,3.088-1.385,3.958c-0.914,0.923-2.077,1.305-3.49,1.146
			c-1.411-0.158-2.72-0.833-3.921-2.022c-3.34-3.311-3.963-8.601-1.865-15.872c0.903-3.208,1.985-5.448,3.244-6.719
			c1.069-1.078,2.125-1.101,3.171-0.065c0.296,0.293,0.618,0.751,0.968,1.372l-1.213-3.841c0.639-0.401,1.156-0.802,1.553-1.202
			c0.466-0.471,1.008-1.139,1.628-2.01l3.07,12.201c1.092,4.258,2.066,6.811,2.919,7.653c0.818,0.811,1.563,0.877,2.237,0.197
			c0.69-0.697,0.998-2.603,0.925-5.717c-0.076-3.114-0.496-6.622-1.261-10.523c-0.07-0.276-0.062-0.459,0.024-0.546
			C85.985,66.095,86.088,66.096,86.194,66.199z M74.745,69.109c-0.854-0.844-1.667-0.876-2.444-0.092
			c-1.586,1.601-2.103,5.255-1.548,10.961c0.554,5.708,1.797,9.518,3.729,11.432c1.134,1.121,2.196,1.177,3.198,0.167
			c1.189-1.202,1.259-5.255,0.204-12.164C77.01,73.752,75.964,70.318,74.745,69.109z"/>
		<path fill="#FFFFFF" d="M92.36,52.71l0.079,0.621l-3.929,2.783l1.41,16.165c0.157,1.96,0.527,3.351,1.106,4.17
			c0.639,0.9,1.429,1.016,2.367,0.349c1.822-1.291,2.646-6.641,2.475-16.054c-0.002-0.299,0.047-0.485,0.146-0.555
			c0.119-0.085,0.221-0.067,0.308,0.051c0.021,0.075,0.037,0.308,0.042,0.695l-0.036,2.686c-0.06,7.893-1.039,12.513-2.941,13.861
			c-0.94,0.666-1.968,0.882-3.079,0.65c-1.113-0.232-2.03-0.859-2.753-1.879c-0.85-1.2-1.383-3.073-1.599-5.625l-0.954-12.026
			l-3.06,2.167l-0.02-0.662l3-2.125l-0.615-8.304c0.713-0.265,1.34-0.588,1.88-0.971c0.561-0.396,1.082-0.887,1.57-1.472
			l0.673,8.262L92.36,52.71z"/>
		<path fill="#FFFFFF" d="M115.527,51.898c0.084,0.177-0.189,1.305-0.828,3.383c-0.787,2.669-1.926,4.357-3.406,5.069
			c-1.683,0.807-2.989,0.239-3.922-1.705c-0.297-0.619-0.54-1.466-0.731-2.544c-0.809,1.883-1.363,3.63-1.664,5.241
			c-0.3,1.613-0.642,4.768-1.024,9.462c-1.215,0.473-1.92,0.757-2.12,0.852c-0.088,0.044-0.739,0.41-1.957,1.104l1.207-11.421
			c0.597-5.721,0.641-9.114,0.133-10.175c-0.297-0.618-0.701-0.806-1.21-0.562c-1.24,0.595-2.344,4.053-3.315,10.375
			c-0.05,0.407-0.152,0.646-0.308,0.719c-0.1,0.021-0.174-0.024-0.229-0.134c-0.031-0.121-0.03-0.231,0.007-0.33l0.198-1.117
			c1.23-6.174,2.453-9.551,3.67-10.136c1.771-0.849,3.203-0.137,4.293,2.14c0.817,1.702,0.992,4.389,0.526,8.064
			c0.513-1.877,1.087-3.485,1.722-4.822c-0.103-2.369,0.15-4.517,0.764-6.439c0.611-1.925,1.417-3.125,2.409-3.604
			c0.685-0.327,1.17-0.194,1.458,0.402c0.509,1.061-0.301,3.312-2.429,6.75c-0.337,0.542-0.849,1.345-1.535,2.408l-0.238,0.523
			c0.18,1.165,0.426,2.079,0.742,2.741c0.892,1.856,2.033,2.449,3.43,1.78c1.728-0.828,2.921-3.16,3.587-6.996
			c0.208-0.7,0.37-1.078,0.479-1.131C115.365,51.73,115.463,51.766,115.527,51.898z"/>
		<path fill="#FFFFFF" d="M126.832,50.692c-0.005,0.078-0.071,0.3-0.199,0.667l-0.949,2.513c-2.748,7.398-5.292,11.422-7.634,12.065
			c-1.108,0.306-2.147,0.167-3.11-0.422c-0.963-0.585-1.605-1.469-1.933-2.65c-0.376-1.37-0.136-3.673,0.729-6.91l2.942-10.912
			c0.777-0.036,1.379-0.112,1.806-0.23c0.639-0.175,1.512-0.504,2.623-0.989l-4.402,15.432c-0.633,2.232-0.805,3.869-0.521,4.907
			c0.293,1.063,0.996,1.441,2.107,1.137c2.104-0.58,4.776-5.35,8.008-14.309c0.058-0.269,0.14-0.419,0.259-0.452
			C126.702,50.5,126.794,50.551,126.832,50.692z M122.283,36.182c0.229,0.827,0.093,1.696-0.404,2.607
			c-0.5,0.913-1.161,1.483-1.987,1.711c-1.063,0.292-1.741-0.092-2.034-1.156c-0.216-0.78-0.056-1.63,0.479-2.553
			c0.534-0.921,1.203-1.493,2.006-1.713C121.357,34.797,122.007,35.166,122.283,36.182z"/>
		<path fill="#FFFFFF" d="M144.532,49.621c0.031,0.316-1.468,2.549-4.498,6.701c-3.315,4.501-6.289,6.892-8.923,7.174
			c-1.706,0.185-3.241-0.313-4.6-1.484c-1.361-1.173-2.135-2.661-2.329-4.463c-0.22-2.047,0.382-4.255,1.804-6.625
			c1.42-2.371,3.446-4.498,6.08-6.383c2.22-1.617,4.068-2.506,5.555-2.665c1.804-0.192,2.818,0.782,3.051,2.926
			c0.18,1.681-0.207,3.423-1.158,5.225c-0.951,1.804-1.988,2.763-3.111,2.883c-1.096,0.118-1.701-0.372-1.815-1.467
			c-0.143-1.292,0.852-2.604,2.973-3.941c1.646-1.039,2.385-2.253,2.236-3.641c-0.116-1.097-0.772-1.581-1.966-1.453
			c-2.021,0.218-4.293,2.494-6.812,6.83c-2.515,4.335-3.629,7.867-3.337,10.596c0.246,2.292,1.443,3.321,3.588,3.091
			c3.366-0.361,7.522-4.645,12.462-12.851c0.273-0.423,0.488-0.642,0.635-0.659C144.464,49.43,144.521,49.498,144.532,49.621z"/>
		<path fill="#FFFFFF" d="M156.331,51.211c-0.028,0.072-0.157,0.263-0.393,0.572l-1.677,2.103c-4.883,6.201-8.535,9.25-10.961,9.146
			c-1.152-0.048-2.096-0.5-2.834-1.353c-0.735-0.854-1.076-1.892-1.025-3.115c0.062-1.42,0.998-3.538,2.812-6.355l6.146-9.485
			c0.751,0.205,1.349,0.316,1.788,0.334c0.66,0.029,1.597-0.017,2.801-0.137l-8.922,13.339c-1.285,1.931-1.947,3.436-1.996,4.512
			c-0.049,1.102,0.507,1.677,1.657,1.727c2.183,0.094,6.187-3.628,12.008-11.166c0.135-0.238,0.262-0.357,0.385-0.352
			C156.269,50.987,156.337,51.063,156.331,51.211z M156.45,36.004c-0.038,0.856-0.434,1.644-1.188,2.358
			c-0.756,0.716-1.56,1.056-2.419,1.018c-1.1-0.047-1.627-0.621-1.582-1.724c0.037-0.807,0.448-1.567,1.243-2.282
			c0.788-0.713,1.6-1.053,2.434-1.017C155.989,34.402,156.495,34.951,156.45,36.004z"/>
		<path fill="#FFFFFF" d="M182.07,55.755c-0.105,0.505-2.344,2.473-6.716,5.901c-3.543,2.823-6.128,4.066-7.761,3.728
			c-1.105-0.23-1.92-0.831-2.445-1.803c-0.523-0.973-0.655-2.083-0.397-3.33c0.268-1.296,0.942-2.621,2.023-3.972
			c-3.097,2.86-5.4,4.749-6.917,5.659c-1.517,0.911-2.871,1.244-4.071,0.994c-1.271-0.263-2.229-1.031-2.862-2.302
			c-0.636-1.271-0.783-2.733-0.441-4.389c0.956-4.607,5.055-8.01,12.292-10.213c3.184-0.99,5.652-1.304,7.404-0.939
			c1.486,0.308,2.078,1.181,1.783,2.622c-0.087,0.408-0.295,0.928-0.625,1.561l2.561-3.111c0.685,0.317,1.305,0.534,1.855,0.647
			c0.646,0.135,1.505,0.226,2.569,0.271l-8.559,9.223c-2.975,3.236-4.583,5.442-4.827,6.618c-0.232,1.128,0.116,1.788,1.055,1.983
			c0.961,0.199,2.728-0.581,5.3-2.34c2.567-1.76,5.279-4.023,8.138-6.789c0.192-0.21,0.351-0.304,0.47-0.279
			C182.041,55.524,182.102,55.612,182.07,55.755z M173.388,47.742c0.244-1.174-0.17-1.875-1.25-2.099
			c-2.207-0.458-5.555,1.1-10.036,4.674c-4.481,3.573-7,6.694-7.554,9.355c-0.324,1.561,0.209,2.484,1.6,2.773
			c1.659,0.344,5.095-1.809,10.312-6.457C170.73,52.171,173.041,49.422,173.388,47.742z"/>
	</g>
</g>
<g>
	<g>
		<path fill="#4B3087" d="M183.52,132.991c0.153,0.467-0.817,1.683-2.92,3.654c-2.193,2-4.685,3.928-7.477,5.784
			c-3.864,6.202-6.76,12.53-8.697,18.989c-1.938,6.461-3.544,15.233-4.819,26.326l1.161-0.388
			c5.247-1.737,9.014-5.138,11.296-10.196c1.136-2.509,1.534-5.467,1.194-8.863c-0.039-0.536,0.064-0.848,0.314-0.93
			c0.275-0.093,0.472,0.018,0.572,0.325c1.148,3.476,0.335,7.384-2.441,11.729c-2.78,4.349-6.312,7.229-10.6,8.646
			c-0.649,0.22-1.201,0.369-1.66,0.451c-0.05,0.466-0.346,2.681-0.896,6.646c-1.25,9.189-2.636,15.931-4.156,20.225
			c-1.519,4.284-3.946,8.46-7.275,12.525c-5.319,6.479-11.499,10.893-18.535,13.225c-4.062,1.347-7.701,1.537-10.91,0.57
			c-3.21-0.967-5.286-2.859-6.22-5.682c-0.516-1.551-0.517-3.015,0.011-4.395c0.526-1.372,1.424-2.275,2.696-2.697
			c2.045-0.678,3.414,0.021,4.102,2.098c0.824,2.479,0.118,4.092-2.113,4.834c-1.613,0.533-2.803-0.191-3.562-2.177
			c-0.042-0.125-0.109-0.225-0.203-0.292c-0.524,0.172-0.543,1.008-0.048,2.49c0.81,2.45,2.727,4.094,5.738,4.938
			c3.017,0.84,6.387,0.646,10.104-0.594c7.938-2.628,13.719-8.142,17.334-16.533c1.423-3.291,2.577-7.07,3.472-11.317
			c1.396-7.108,2.804-14.233,4.218-21.38l0.312-1.549c-3.453,0.08-6.509-0.795-9.174-2.609c-2.667-1.814-4.524-4.293-5.564-7.421
			c-1.85-5.581-1.088-11.015,2.289-16.298c1.998-3.105,4.24-5.555,6.727-7.344c2.489-1.787,7.195-4.33,14.127-7.625
			c3.036-1.422,6.575-3.404,10.621-5.949c4.545-5.603,7.928-8.773,10.162-9.514C183.134,132.552,183.404,132.651,183.52,132.991z
			 M171.896,143.247c-1.929,1.229-4.563,2.838-7.893,4.838c-5.399,3.238-9.406,5.994-12.021,8.271
			c-2.618,2.279-4.825,4.904-6.63,7.876c-3.819,6.329-4.9,12.003-3.233,17.024c1.627,4.9,5.468,7.359,11.531,7.382
			C157.367,168.713,163.449,153.584,171.896,143.247z"/>
		<path fill="#4B3087" d="M189.146,164.901c0.028,0.07-0.063,0.441-0.274,1.113l-0.764,2.378
			c-2.483,7.545-5.396,11.954-8.743,13.224c-1.58,0.603-3.124,0.535-4.632-0.201c-1.506-0.729-2.583-1.953-3.234-3.668
			c-1.545-4.062-0.068-8.719,4.424-13.963c2.362-2.752,4.479-4.488,6.352-5.199c0.813-0.311,1.602-0.328,2.361-0.062
			c0.759,0.268,1.271,0.75,1.537,1.45c0.617,1.627,0.081,3.409-1.606,5.356c-1.688,1.943-4.83,4.354-9.417,7.233
			c-0.652,2.908-0.683,5.142-0.091,6.695c0.736,1.94,2.157,2.515,4.257,1.72c3.569-1.359,6.619-6.5,9.149-15.432
			c0.137-0.463,0.292-0.729,0.474-0.795C189.032,164.739,189.107,164.79,189.146,164.901z M183.902,159.708
			c-0.275-0.722-0.81-0.933-1.598-0.633c-1.196,0.454-2.454,1.881-3.782,4.281c-1.317,2.398-2.416,5.276-3.284,8.63
			c2.934-2.069,5.237-4.295,6.92-6.675C183.836,162.931,184.414,161.063,183.902,159.708z"/>
		<path fill="#4B3087" d="M206.887,139.499c0.688,2.037,0.104,5.08-1.751,9.125c-1.851,4.047-4.619,8.33-8.299,12.851l5.905-1.981
			l-0.139,0.619l-5.973,2.004l-0.984,6.403c-1.192,7.914-2.439,13.991-3.742,18.235c-1.301,4.246-3.104,8.242-5.412,12
			c-3.19,5.144-6.685,8.354-10.486,9.629c-1.695,0.566-2.622,0.607-2.789,0.113c-0.076-0.229,0.012-0.388,0.266-0.47
			c0.182-0.063,0.327-0.085,0.438-0.067c0.896-0.041,1.722-0.18,2.453-0.426c3.091-1.039,5.738-3.468,7.95-7.287
			c1.354-2.342,2.365-4.896,3.045-7.67c0.573-2.232,1.718-8.164,3.421-17.808l2.066-11.387l-3.676,1.233l0.104-0.608l3.74-1.259
			c1.267-5.947,3.062-11.332,5.396-16.152c2.336-4.816,4.461-7.551,6.383-8.195C205.833,138.058,206.527,138.422,206.887,139.499z
			 M206.451,139.568c-0.252-0.756-0.758-1.007-1.514-0.754c-1.737,0.585-3.438,3.37-5.104,8.36
			c-0.813,2.515-1.799,7.021-2.956,13.52c2.881-3.867,5.319-7.996,7.307-12.382C206.182,143.924,206.938,141.01,206.451,139.568z"/>
		<path fill="#4B3087" d="M218.818,134.454c0.771,2.008,0.311,5.071-1.373,9.19c-1.685,4.12-4.271,8.515-7.764,13.181l5.814-2.223
			l-0.109,0.623l-5.886,2.249l-0.72,6.438c-0.864,7.955-1.862,14.08-2.991,18.375c-1.127,4.295-2.763,8.359-4.916,12.209
			c-2.979,5.27-6.335,8.619-10.084,10.053c-1.666,0.637-2.597,0.713-2.781,0.229c-0.085-0.229-0.003-0.386,0.243-0.483
			c0.181-0.069,0.325-0.096,0.433-0.084c0.903-0.075,1.714-0.25,2.438-0.525c3.047-1.163,5.593-3.698,7.645-7.607
			c1.258-2.394,2.164-4.99,2.727-7.789c0.485-2.252,1.382-8.228,2.691-17.93l1.592-11.462l-3.616,1.382l0.077-0.611l3.688-1.407
			c1.02-5.997,2.595-11.451,4.729-16.362c2.133-4.908,4.145-7.729,6.043-8.451C217.707,133.059,218.416,133.395,218.818,134.454z
			 M218.388,134.542c-0.282-0.742-0.797-0.975-1.54-0.689c-1.716,0.654-3.302,3.509-4.76,8.561
			c-0.706,2.547-1.503,7.09-2.396,13.635c2.72-3.985,4.988-8.211,6.797-12.676C218.3,138.909,218.931,135.961,218.388,134.542z"/>
	</g>
	<g>
		<path fill="#FFFFFF" d="M183.272,131.198c0.154,0.463-0.816,1.68-2.919,3.652c-2.19,1.999-4.682,3.928-7.476,5.783
			c-3.866,6.201-6.762,12.531-8.696,18.988c-1.94,6.461-3.544,15.236-4.821,26.328l1.161-0.384c5.248-1.743,9.015-5.142,11.297-10.2
			c1.134-2.509,1.534-5.466,1.195-8.863c-0.04-0.536,0.063-0.848,0.313-0.932c0.276-0.09,0.471,0.018,0.573,0.326
			c1.149,3.477,0.332,7.385-2.444,11.73c-2.779,4.346-6.311,7.229-10.596,8.646c-0.65,0.218-1.202,0.368-1.661,0.448
			c-0.052,0.467-0.347,2.682-0.896,6.646c-1.25,9.19-2.637,15.934-4.155,20.225c-1.52,4.289-3.945,8.464-7.279,12.527
			c-5.318,6.48-11.498,10.891-18.532,13.227c-4.062,1.347-7.7,1.535-10.911,0.57c-3.213-0.969-5.285-2.86-6.22-5.684
			c-0.514-1.553-0.512-3.01,0.011-4.396c0.528-1.377,1.424-2.276,2.696-2.696c2.047-0.679,3.414,0.021,4.103,2.101
			c0.823,2.479,0.117,4.088-2.114,4.829c-1.61,0.534-2.802-0.188-3.562-2.174c-0.041-0.125-0.104-0.226-0.203-0.297
			c-0.522,0.173-0.545,1.005-0.047,2.496c0.81,2.446,2.728,4.091,5.739,4.935c3.017,0.844,6.384,0.646,10.104-0.588
			c7.934-2.63,13.718-8.145,17.334-16.537c1.422-3.294,2.575-7.068,3.468-11.318c1.396-7.107,2.806-14.229,4.22-21.379l0.313-1.547
			c-3.452,0.076-6.511-0.795-9.177-2.609c-2.667-1.817-4.521-4.291-5.562-7.424c-1.849-5.582-1.089-11.016,2.287-16.299
			c1.998-3.104,4.242-5.555,6.729-7.343c2.489-1.786,7.196-4.329,14.124-7.625c3.038-1.421,6.575-3.403,10.622-5.948
			c4.544-5.604,7.929-8.771,10.163-9.515C182.889,130.757,183.16,130.856,183.272,131.198z M171.652,141.454
			c-1.933,1.227-4.564,2.836-7.896,4.834c-5.396,3.238-9.402,5.994-12.019,8.273c-2.619,2.279-4.828,4.902-6.631,7.876
			c-3.822,6.327-4.9,12.003-3.233,17.024c1.627,4.897,5.47,7.354,11.532,7.381C157.124,166.918,163.203,151.788,171.652,141.454z"/>
		<path fill="#FFFFFF" d="M188.904,163.108c0.022,0.068-0.069,0.438-0.278,1.109l-0.763,2.377
			c-2.486,7.548-5.399,11.955-8.743,13.225c-1.582,0.602-3.125,0.536-4.629-0.197c-1.511-0.73-2.59-1.957-3.237-3.67
			c-1.544-4.063-0.069-8.719,4.422-13.961c2.363-2.757,4.479-4.49,6.355-5.203c0.811-0.31,1.599-0.33,2.355-0.062
			c0.761,0.268,1.272,0.751,1.538,1.449c0.615,1.626,0.081,3.41-1.608,5.357c-1.688,1.944-4.826,4.356-9.414,7.235
			c-0.651,2.909-0.686,5.142-0.094,6.694c0.736,1.94,2.158,2.516,4.258,1.718c3.571-1.354,6.619-6.497,9.15-15.429
			c0.137-0.463,0.292-0.729,0.473-0.799C188.788,162.944,188.861,162.993,188.904,163.108z M183.656,157.915
			c-0.274-0.723-0.81-0.934-1.597-0.636c-1.196,0.456-2.455,1.882-3.78,4.284c-1.321,2.398-2.416,5.277-3.287,8.628
			c2.935-2.069,5.236-4.295,6.92-6.675C183.59,161.135,184.168,159.267,183.656,157.915z"/>
		<path fill="#FFFFFF" d="M206.646,137.702c0.682,2.039,0.101,5.08-1.758,9.127c-1.85,4.047-4.617,8.33-8.297,12.851l5.904-1.981
			l-0.134,0.619l-5.976,2.006l-0.984,6.402c-1.192,7.914-2.439,13.99-3.738,18.234c-1.305,4.246-3.107,8.242-5.415,12
			c-3.188,5.146-6.687,8.354-10.486,9.629c-1.693,0.568-2.625,0.605-2.788,0.113c-0.078-0.229,0.011-0.387,0.261-0.471
			c0.184-0.062,0.329-0.084,0.438-0.066c0.899-0.041,1.723-0.18,2.454-0.426c3.094-1.035,5.741-3.471,7.95-7.287
			c1.355-2.343,2.368-4.896,3.045-7.67c0.575-2.229,1.719-8.162,3.426-17.806l2.062-11.39l-3.676,1.232l0.104-0.605l3.74-1.258
			c1.265-5.949,3.062-11.334,5.396-16.153c2.332-4.817,4.458-7.552,6.379-8.195C205.585,136.264,206.282,136.627,206.646,137.702z
			 M206.207,137.771c-0.253-0.755-0.757-1.006-1.516-0.751c-1.736,0.585-3.44,3.371-5.104,8.359
			c-0.812,2.515-1.794,7.021-2.952,13.52c2.88-3.867,5.317-7.997,7.307-12.383C205.937,142.127,206.693,139.215,206.207,137.771z"/>
		<path fill="#FFFFFF" d="M218.576,132.659c0.769,2.008,0.306,5.07-1.377,9.19c-1.687,4.12-4.271,8.513-7.762,13.181l5.815-2.223
			l-0.113,0.624l-5.884,2.248l-0.723,6.438c-0.864,7.955-1.857,14.08-2.988,18.375c-1.126,4.291-2.763,8.361-4.918,12.209
			c-2.977,5.271-6.334,8.621-10.083,10.051c-1.667,0.641-2.595,0.717-2.78,0.23c-0.087-0.229-0.002-0.385,0.244-0.479
			c0.181-0.071,0.324-0.1,0.432-0.084c0.901-0.075,1.715-0.25,2.438-0.532c3.048-1.159,5.597-3.696,7.644-7.604
			c1.263-2.393,2.167-4.99,2.729-7.791c0.483-2.25,1.381-8.228,2.69-17.928l1.594-11.464l-3.62,1.383l0.08-0.61l3.684-1.408
			c1.021-5.998,2.597-11.453,4.73-16.363c2.13-4.911,4.142-7.729,6.039-8.452C217.461,131.264,218.173,131.599,218.576,132.659z
			 M218.143,132.747c-0.283-0.744-0.798-0.976-1.541-0.688c-1.716,0.653-3.303,3.508-4.759,8.56
			c-0.708,2.547-1.504,7.09-2.396,13.633c2.719-3.984,4.984-8.209,6.796-12.674C218.054,137.111,218.687,134.167,218.143,132.747z"
			/>
	</g>
</g>
</svg>
