<?xml version="1.0" encoding="utf-8"?>
<!-- Generator: Adobe Illustrator 16.0.0, SVG Export Plug-In . SVG Version: 6.00 Build 0)  -->
<!DOCTYPE svg PUBLIC "-//W3C//DTD SVG 1.1//EN" "http://www.w3.org/Graphics/SVG/1.1/DTD/svg11.dtd">
<svg version="1.1" id="Layer_1" xmlns="http://www.w3.org/2000/svg" xmlns:xlink="http://www.w3.org/1999/xlink" x="0px" y="0px"
	 width="56.101px" height="164.142px" viewBox="0 0 56.101 164.142" enable-background="new 0 0 56.101 164.142"
	 xml:space="preserve">
<polygon points="0.1,0 0.1,164.142 28.045,153 56.001,164.142 56.001,0 "/>
<g>
	<path fill="#FFFFFF" d="M27.364,42.255c-0.251-0.795-0.619-1.391-1.111-1.78c-0.493-0.395-1.105-0.591-1.841-0.591
		c-1.042,0-1.822,0.346-2.341,1.028c-0.519,0.688-0.773,1.484-0.773,2.39c0,0.367,0.064,0.732,0.192,1.097
		c0.13,0.361,0.32,0.729,0.57,1.096c1.929,0.079,2.894,0.711,2.894,1.893c0,0.261-0.118,0.469-0.354,0.629
		c-0.231,0.158-0.507,0.237-0.824,0.237c-0.32,0-0.592-0.075-0.823-0.223c-0.224-0.149-0.551-0.482-0.965-0.999
		c-0.254-0.321-0.506-0.478-0.775-0.478c-0.531,0-1.038,0.374-1.53,1.118c-0.492,0.746-0.735,1.532-0.735,2.357
		c0,1.909,0.828,3.473,2.482,4.685c1.656,1.213,3.766,1.821,6.332,1.821c1.632,0,3.031-0.173,4.199-0.516
		c1.165-0.344,2.178-0.998,3.027-1.962c0.847-0.963,1.274-2.073,1.274-3.324c0-1.266-0.441-2.392-1.322-3.381
		c-0.889-0.989-2.048-1.483-3.481-1.483c-1.035,0-1.892,0.296-2.586,0.891c-0.688,0.596-1.037,1.264-1.037,2.01
		c0,0.683,0.178,1.271,0.536,1.764c0.357,0.49,0.793,0.734,1.299,0.734c0.278,0,0.482-0.027,0.615-0.079
		c0.138-0.057,0.203-0.134,0.203-0.233c0-0.098-0.102-0.233-0.312-0.404c-0.339-0.288-0.506-0.571-0.506-0.847
		c0-0.361,0.145-0.643,0.445-0.852c0.299-0.209,0.598-0.313,0.897-0.313c0.348,0,0.691,0.136,1.036,0.403
		c0.344,0.271,0.515,0.667,0.515,1.184c0,0.599-0.243,1.096-0.728,1.482c-0.491,0.391-1.046,0.585-1.674,0.585
		c-0.854,0-1.57-0.362-2.146-1.084c-0.575-0.72-0.866-1.513-0.866-2.378c0-0.965,0.414-1.899,1.242-2.807
		c0.813-0.893,2.145-1.34,3.994-1.34c0.568,0,1.198,0.021,1.896,0.06c0.693,0.05,1.252,0.074,1.671,0.074
		c1.154,0,2.124-0.3,2.907-0.896c0.786-0.597,1.176-1.271,1.176-2.028c0-0.735-0.262-1.369-0.795-1.901
		c-0.531-0.531-1.083-0.799-1.665-0.799c-0.348,0-0.522,0.079-0.522,0.239c0,0.069,0.047,0.194,0.137,0.37
		c0.079,0.183,0.12,0.396,0.12,0.645c0,0.328-0.138,0.608-0.421,0.836c-0.277,0.229-0.585,0.344-0.922,0.344
		c-0.35,0-0.654-0.129-0.918-0.382c-0.264-0.254-0.396-0.58-0.396-0.977c0-0.539,0.199-0.974,0.605-1.314
		c0.4-0.336,0.925-0.505,1.556-0.505c1.144,0,2.112,0.363,2.907,1.095c0.8,0.73,1.194,1.708,1.194,2.933
		c0,0.984-0.251,1.811-0.751,2.482c-0.503,0.671-1.105,1.153-1.805,1.447c-0.698,0.296-1.676,0.496-2.931,0.604
		c1.023,1.216,1.533,2.647,1.533,4.298c0,2.198-0.888,4.037-2.67,5.52c-1.779,1.483-4.085,2.223-6.919,2.223
		c-2.941,0-5.343-0.77-7.195-2.305c-1.858-1.537-2.782-3.383-2.782-5.541c0-1.232,0.342-2.304,1.026-3.217
		c0.688-0.908,1.713-1.661,3.073-2.26c-0.368-0.525-0.643-1.048-0.828-1.565c-0.182-0.515-0.274-1.028-0.274-1.537
		c0-1.082,0.357-2.037,1.074-2.86c0.717-0.828,1.639-1.24,2.775-1.24c0.955,0,1.746,0.289,2.372,0.872
		c0.627,0.58,0.939,1.28,0.939,2.097C27.548,41.651,27.488,41.938,27.364,42.255"/>
	<g display="none">
		<path display="inline" fill="#FFFFFF" d="M51.053,51.058l2.539,0.434l0.063-0.383c-0.188-0.031-0.32-0.229-0.29-0.444
			l-0.873-0.117c-0.497,0.246-1.81,0.25-3.309,0.003c-1.395-0.229-2.567-0.571-3.067-0.845c0.04-0.264,0.065-0.523,0.097-0.787
			l7.037,0.691l0.364,0.506c0.257-0.229,0.514-0.468,0.767-0.711c-0.207-0.285-0.417-0.562-0.633-0.834l-0.442,0.437l-7.056-0.523
			c0.02-0.264,0.034-0.528,0.041-0.792c0.54-0.186,1.756-0.322,3.167-0.307c1.521,0.016,2.813,0.244,3.26,0.574l0.88,0.029
			c0.006-0.214,0.171-0.387,0.359-0.386l0.007-0.386l-2.579-0.012l0.002-0.102h-5.082h-0.291h-0.107
			c-0.003,1.046-0.092,2.083-0.27,3.105l0.105,0.021l0.288,0.05l5.006,0.878L51.053,51.058z"/>
		<path display="inline" fill="#FFFFFF" d="M54.754,51.555c-0.177-0.326-0.352-0.647-0.539-0.96
			c0.059,0.377,0.102,0.761,0.136,1.144l1.325,0.233L54.754,51.555z"/>
		<path display="inline" fill="#FFFFFF" d="M55.117,47.357l0.98-0.252h-1.347c-0.1,0.373-0.213,0.737-0.329,1.103
			C54.659,47.931,54.89,47.647,55.117,47.357"/>
		<path display="inline" fill="#FFFFFF" d="M50.019,54.992l2.422,0.873l0.133-0.367c-0.181-0.064-0.274-0.283-0.204-0.488
			l-0.841-0.271c-0.531,0.157-1.827-0.068-3.26-0.575c-1.327-0.467-2.422-1.009-2.868-1.366c0.079-0.251,0.158-0.504,0.229-0.754
			l6.811,1.906l0.268,0.565c0.295-0.185,0.587-0.373,0.876-0.572c-0.15-0.316-0.31-0.627-0.476-0.931
			c-0.17,0.12-0.342,0.24-0.514,0.354l-6.854-1.743c0.064-0.256,0.126-0.514,0.177-0.768c0.567-0.088,1.788-0.012,3.172,0.246
			c1.496,0.277,2.726,0.728,3.109,1.128l0.861,0.182c0.046-0.21,0.234-0.354,0.421-0.315l0.069-0.384l-2.537-0.456l0.017-0.099
			l-5.004-0.878l-0.289-0.05l-0.104-0.018c-0.179,1.023-0.452,2.026-0.807,2.998l0.102,0.039l0.277,0.1l4.772,1.738L50.019,54.992z"
			/>
		<path display="inline" fill="#FFFFFF" d="M53.578,56.128c-0.113-0.353-0.234-0.698-0.366-1.041
			c-0.014,0.383-0.032,0.766-0.066,1.151l1.265,0.459L53.578,56.128z"/>
		<path display="inline" fill="#FFFFFF" d="M54.666,52.051l1.009-0.079l-1.324-0.233c-0.167,0.35-0.335,0.692-0.517,1.031
			C54.117,52.539,54.395,52.298,54.666,52.051"/>
		<path display="inline" fill="#FFFFFF" d="M48.311,58.687l2.238,1.28l0.19-0.336c-0.17-0.096-0.217-0.325-0.117-0.516l-0.777-0.412
			c-0.552,0.061-1.783-0.387-3.106-1.136c-1.229-0.695-2.214-1.418-2.592-1.849c0.129-0.231,0.246-0.466,0.363-0.702l6.37,3.067
			l0.163,0.603c0.325-0.127,0.646-0.264,0.966-0.407c-0.097-0.339-0.196-0.672-0.306-1.001l-0.57,0.259l-6.443-2.918
			c0.109-0.24,0.215-0.48,0.311-0.727c0.572,0.015,1.76,0.304,3.082,0.801c1.423,0.532,2.557,1.189,2.861,1.655l0.819,0.328
			c0.077-0.199,0.288-0.306,0.468-0.236l0.139-0.364l-2.422-0.893l0.033-0.097l-4.772-1.736l-0.276-0.099l-0.101-0.04
			c-0.356,0.975-0.798,1.917-1.316,2.816l0.095,0.055l0.253,0.146l4.399,2.546L48.311,58.687z"/>
		<path display="inline" fill="#FFFFFF" d="M51.622,60.425c-0.055-0.366-0.112-0.729-0.179-1.086
			c-0.079,0.372-0.174,0.748-0.267,1.121l1.163,0.674L51.622,60.425z"/>
		<path display="inline" fill="#FFFFFF" d="M53.406,56.601l1.004,0.099l-1.265-0.461c-0.224,0.315-0.452,0.627-0.688,0.927
			C52.774,56.985,53.092,56.797,53.406,56.601"/>
		<path display="inline" fill="#FFFFFF" d="M45.993,62.025l1.979,1.649l0.248-0.299c-0.148-0.12-0.162-0.355-0.026-0.523
			L47.5,62.306c-0.555-0.034-1.688-0.688-2.863-1.654c-1.088-0.897-1.931-1.781-2.226-2.267c0.161-0.211,0.322-0.421,0.476-0.634
			l5.74,4.13l0.058,0.621c0.339-0.073,0.681-0.148,1.021-0.235c-0.034-0.348-0.079-0.693-0.128-1.039l-0.605,0.158l-5.838-3.994
			c0.147-0.215,0.294-0.437,0.435-0.661c0.559,0.113,1.678,0.603,2.891,1.32c1.313,0.778,2.309,1.621,2.533,2.131l0.747,0.467
			c0.114-0.183,0.339-0.249,0.506-0.15l0.195-0.335l-2.225-1.302l0.053-0.086l-4.398-2.547l-0.254-0.146l-0.096-0.054
			c-0.521,0.898-1.12,1.752-1.79,2.548l0.084,0.071l0.224,0.188l3.89,3.268L45.993,62.025z"/>
		<path display="inline" fill="#FFFFFF" d="M48.947,64.313c0.011-0.371,0.021-0.737,0.018-1.101
			c-0.144,0.354-0.297,0.706-0.458,1.056l1.032,0.868L48.947,64.313z"/>
		<path display="inline" fill="#FFFFFF" d="M51.368,60.86l0.972,0.274l-1.163-0.675c-0.276,0.273-0.555,0.536-0.838,0.792
			C50.681,61.13,51.025,61.001,51.368,60.86"/>
		<path display="inline" fill="#FFFFFF" d="M43.127,64.915l1.67,1.968l0.292-0.256c-0.127-0.146-0.096-0.378,0.064-0.524
			l-0.589-0.653c-0.54-0.131-1.544-0.969-2.538-2.127c-0.921-1.069-1.596-2.086-1.802-2.618c0.197-0.177,0.39-0.359,0.578-0.541
			l4.94,5.061l-0.048,0.62c0.342-0.009,0.688-0.028,1.043-0.053c0.025-0.352,0.045-0.698,0.057-1.045l-0.621,0.05l-5.06-4.942
			c0.184-0.188,0.368-0.381,0.54-0.577c0.531,0.208,1.552,0.885,2.621,1.804c1.154,0.989,1.992,1.995,2.126,2.536l0.649,0.587
			c0.146-0.157,0.377-0.188,0.524-0.062l0.256-0.293l-1.967-1.67l0.063-0.075l-3.89-3.268l-0.222-0.189l-0.086-0.07
			c-0.668,0.799-1.408,1.537-2.205,2.205l0.07,0.084l0.191,0.224l3.262,3.89L43.127,64.915z"/>
		<path display="inline" fill="#FFFFFF" d="M45.644,67.678c0.078-0.362,0.145-0.725,0.205-1.081
			c-0.202,0.321-0.412,0.645-0.634,0.962l0.869,1.033L45.644,67.678z"/>
		<path display="inline" fill="#FFFFFF" d="M48.62,64.696l0.917,0.44l-1.031-0.868c-0.322,0.219-0.641,0.43-0.965,0.634
			C47.902,64.843,48.263,64.775,48.62,64.696"/>
		<path display="inline" fill="#FFFFFF" d="M39.808,67.268l1.303,2.224l0.333-0.2c-0.098-0.162-0.028-0.388,0.153-0.5l-0.466-0.747
			c-0.51-0.225-1.356-1.225-2.131-2.533c-0.722-1.213-1.207-2.331-1.32-2.893c0.225-0.139,0.443-0.285,0.661-0.433l3.994,5.834
			l-0.154,0.609c0.337,0.049,0.687,0.093,1.035,0.125c0.089-0.337,0.167-0.68,0.232-1.017l-0.619-0.06l-4.13-5.742
			c0.217-0.153,0.428-0.312,0.634-0.475c0.489,0.294,1.374,1.137,2.271,2.226c0.965,1.175,1.619,2.31,1.656,2.868l0.542,0.692
			c0.168-0.135,0.403-0.123,0.529,0.025l0.295-0.244l-1.652-1.984l0.08-0.065l-3.266-3.89L39.6,60.867l-0.071-0.086
			c-0.796,0.669-1.647,1.269-2.548,1.789l0.055,0.095l0.146,0.254l2.544,4.398L39.808,67.268z"/>
		<path display="inline" fill="#FFFFFF" d="M41.806,70.42c0.139-0.342,0.269-0.685,0.393-1.029
			c-0.259,0.286-0.521,0.565-0.794,0.839l0.677,1.166L41.806,70.42z"/>
		<path display="inline" fill="#FFFFFF" d="M45.258,68.003l0.824,0.589l-0.869-1.033c-0.348,0.161-0.703,0.314-1.053,0.455
			C44.523,68.018,44.889,68.014,45.258,68.003"/>
		<path display="inline" fill="#FFFFFF" d="M36.129,69l0.89,2.421l0.366-0.135c-0.069-0.183,0.037-0.39,0.24-0.472l-0.333-0.815
			c-0.465-0.308-1.123-1.441-1.656-2.864c-0.497-1.323-0.784-2.511-0.798-3.079c0.244-0.101,0.488-0.202,0.729-0.311l2.914,6.439
			l-0.26,0.571c0.331,0.109,0.664,0.21,1.003,0.305c0.144-0.321,0.28-0.641,0.413-0.963l-0.607-0.167l-3.066-6.371
			c0.233-0.113,0.47-0.234,0.7-0.36c0.431,0.377,1.156,1.359,1.851,2.592c0.747,1.323,1.198,2.555,1.132,3.107l0.414,0.775
			c0.19-0.1,0.42-0.049,0.517,0.117l0.335-0.188l-1.282-2.239l0.09-0.049l-2.543-4.396l-0.147-0.255l-0.055-0.094
			c-0.896,0.518-1.841,0.959-2.814,1.313l0.038,0.104l0.098,0.274l1.737,4.774L36.129,69z"/>
		<path display="inline" fill="#FFFFFF" d="M37.548,72.458c0.195-0.312,0.381-0.628,0.562-0.944
			c-0.301,0.236-0.609,0.464-0.925,0.688l0.462,1.268L37.548,72.458z"/>
		<path display="inline" fill="#FFFFFF" d="M41.37,70.673l0.711,0.725l-0.677-1.166c-0.374,0.098-0.749,0.188-1.123,0.268
			C40.642,70.564,41.006,70.623,41.37,70.673"/>
		<path display="inline" fill="#FFFFFF" d="M32.203,70.068l0.453,2.541l0.386-0.072c-0.04-0.188,0.103-0.374,0.315-0.422
			l-0.181-0.86c-0.405-0.383-0.854-1.614-1.13-3.108c-0.258-1.387-0.333-2.609-0.244-3.172c0.253-0.056,0.51-0.113,0.767-0.179
			l1.747,6.852c-0.117,0.174-0.232,0.346-0.353,0.516c0.301,0.165,0.609,0.322,0.927,0.476c0.201-0.288,0.387-0.581,0.572-0.876
			l-0.568-0.27l-1.906-6.811c0.254-0.07,0.504-0.147,0.757-0.228c0.355,0.447,0.896,1.539,1.365,2.87
			c0.507,1.438,0.729,2.726,0.572,3.26l0.273,0.838c0.206-0.067,0.421,0.024,0.485,0.204l0.365-0.127l-0.87-2.428l0.095-0.032
			l-1.738-4.776l-0.098-0.274l-0.037-0.105c-0.975,0.356-1.979,0.627-3.002,0.806l0.02,0.106l0.049,0.287l0.877,5.003L32.203,70.068
			z"/>
		<path display="inline" fill="#FFFFFF" d="M32.994,73.722c0.25-0.272,0.49-0.551,0.723-0.831c-0.339,0.178-0.686,0.349-1.033,0.516
			l0.23,1.326L32.994,73.722z"/>
		<path display="inline" fill="#FFFFFF" d="M37.073,72.632l0.572,0.836l-0.462-1.27c-0.384,0.033-0.768,0.056-1.152,0.071
			C36.375,72.398,36.724,72.519,37.073,72.632"/>
		<path display="inline" fill="#FFFFFF" d="M28.152,70.438l0.012,2.58l0.387-0.007c-0.004-0.193,0.168-0.353,0.383-0.359
			l-0.027-0.879c-0.329-0.449-0.561-1.738-0.572-3.261c-0.018-1.41,0.123-2.625,0.306-3.163c0.263-0.011,0.529-0.023,0.794-0.044
			l0.523,7.056l-0.435,0.442c0.271,0.216,0.546,0.424,0.829,0.63c0.246-0.25,0.485-0.507,0.713-0.764l-0.507-0.362l-0.689-7.041
			c0.263-0.026,0.527-0.055,0.786-0.091c0.275,0.499,0.615,1.671,0.847,3.063c0.249,1.501,0.241,2.812-0.007,3.309l0.124,0.873
			c0.215-0.027,0.414,0.098,0.441,0.287l0.381-0.062l-0.432-2.54l0.099-0.02l-0.877-5.003l-0.053-0.287l-0.019-0.106
			c-1.021,0.177-2.062,0.269-3.104,0.269v0.107v0.292v5.081H28.152L28.152,70.438z"/>
		<path display="inline" fill="#FFFFFF" d="M28.303,74.173c0.291-0.229,0.571-0.459,0.848-0.696c-0.36,0.117-0.73,0.228-1.104,0.331
			v1.347L28.303,74.173z"/>
		<path display="inline" fill="#FFFFFF" d="M32.498,73.808l0.416,0.925l-0.23-1.326c-0.384-0.036-0.768-0.081-1.145-0.136
			C31.852,73.46,32.173,73.633,32.498,73.808"/>
		<path display="inline" fill="#FFFFFF" d="M24.099,70.104l-0.432,2.541l0.38,0.062c0.031-0.189,0.228-0.314,0.441-0.287
			l0.121-0.873c-0.247-0.497-0.25-1.808-0.003-3.309c0.225-1.395,0.571-2.564,0.845-3.065c0.261,0.036,0.525,0.066,0.787,0.093
			l-0.689,7.038l-0.51,0.363c0.231,0.256,0.469,0.512,0.714,0.766c0.284-0.208,0.561-0.414,0.834-0.632l-0.437-0.443l0.525-7.053
			c0.262,0.02,0.526,0.033,0.793,0.041c0.182,0.541,0.321,1.754,0.306,3.166c-0.017,1.521-0.245,2.812-0.573,3.26l-0.028,0.88
			c0.216,0.007,0.385,0.166,0.384,0.359l0.388,0.007l0.011-2.581h0.1v-5.08v-0.292v-0.109c-1.045,0-2.083-0.09-3.107-0.268
			l-0.019,0.106l-0.053,0.287L24,70.086L24.099,70.104z"/>
		<path display="inline" fill="#FFFFFF" d="M23.604,73.808c0.326-0.176,0.646-0.348,0.96-0.537
			c-0.378,0.055-0.759,0.099-1.144,0.136l-0.234,1.326L23.604,73.808z"/>
		<path display="inline" fill="#FFFFFF" d="M27.801,74.173l0.25,0.979v-1.346c-0.374-0.103-0.736-0.215-1.101-0.332
			C27.223,73.712,27.509,73.944,27.801,74.173"/>
		<path display="inline" fill="#FFFFFF" d="M20.164,69.072l-0.873,2.427l0.367,0.128c0.061-0.18,0.28-0.271,0.486-0.204l0.27-0.838
			c-0.154-0.534,0.069-1.825,0.576-3.26c0.466-1.331,1.01-2.423,1.365-2.87c0.252,0.08,0.503,0.159,0.757,0.229l-1.906,6.809
			l-0.568,0.268c0.184,0.296,0.373,0.588,0.57,0.88c0.314-0.155,0.627-0.312,0.928-0.477c-0.118-0.171-0.238-0.343-0.353-0.515
			l1.747-6.852c0.254,0.063,0.513,0.121,0.767,0.177c0.087,0.562,0.017,1.785-0.249,3.173c-0.276,1.495-0.726,2.725-1.128,3.108
			l-0.178,0.859c0.21,0.048,0.354,0.233,0.318,0.422l0.38,0.072l0.455-2.538l0.098,0.018l0.878-5.004l0.051-0.287l0.02-0.106
			c-1.018-0.178-2.027-0.448-3-0.802l-0.038,0.101l-0.1,0.274l-1.738,4.775L20.164,69.072z"/>
		<path display="inline" fill="#FFFFFF" d="M19.027,72.632c0.354-0.115,0.699-0.233,1.042-0.362
			c-0.381-0.016-0.768-0.038-1.154-0.071l-0.46,1.27L19.027,72.632z"/>
		<path display="inline" fill="#FFFFFF" d="M23.105,73.722l0.079,1.011l0.233-1.326c-0.353-0.167-0.694-0.338-1.034-0.516
			C22.618,73.171,22.855,73.449,23.105,73.722"/>
		<path display="inline" fill="#FFFFFF" d="M16.47,67.365l-1.283,2.239l0.338,0.189c0.097-0.169,0.323-0.219,0.514-0.117
			l0.413-0.776c-0.061-0.555,0.385-1.784,1.133-3.108c0.693-1.229,1.42-2.212,1.852-2.592c0.229,0.128,0.468,0.248,0.704,0.361
			l-3.072,6.373l-0.601,0.167c0.127,0.32,0.263,0.64,0.408,0.96c0.337-0.096,0.67-0.195,1.003-0.305l-0.261-0.57l2.917-6.441
			c0.239,0.108,0.483,0.21,0.727,0.312c-0.012,0.568-0.299,1.757-0.8,3.077c-0.53,1.424-1.191,2.56-1.653,2.866l-0.328,0.817
			c0.198,0.079,0.306,0.287,0.236,0.469l0.363,0.138l0.894-2.422l0.097,0.037l1.738-4.776l0.1-0.273l0.037-0.104
			c-0.972-0.354-1.916-0.796-2.814-1.316l-0.054,0.096l-0.145,0.255l-2.546,4.396L16.47,67.365z"/>
		<path display="inline" fill="#FFFFFF" d="M14.73,70.673c0.366-0.053,0.729-0.108,1.085-0.176c-0.372-0.079-0.749-0.172-1.12-0.269
			l-0.678,1.167L14.73,70.673z"/>
		<path display="inline" fill="#FFFFFF" d="M18.555,72.458l-0.1,1.01l0.46-1.267c-0.315-0.224-0.627-0.454-0.925-0.688
			C18.167,71.832,18.357,72.147,18.555,72.458"/>
		<path display="inline" fill="#FFFFFF" d="M13.128,65.045l-1.647,1.983l0.298,0.246c0.12-0.15,0.354-0.162,0.525-0.026l0.543-0.693
			c0.036-0.557,0.688-1.691,1.655-2.865c0.898-1.09,1.783-1.933,2.27-2.229c0.209,0.163,0.417,0.321,0.631,0.476l-4.128,5.741
			l-0.622,0.06c0.068,0.337,0.147,0.68,0.235,1.017c0.347-0.034,0.693-0.076,1.038-0.125l-0.157-0.611l3.996-5.832
			c0.215,0.147,0.437,0.292,0.663,0.433c-0.115,0.561-0.608,1.68-1.325,2.893c-0.773,1.309-1.619,2.308-2.126,2.533l-0.469,0.747
			c0.183,0.112,0.251,0.338,0.151,0.503l0.334,0.197l1.303-2.224l0.09,0.05l2.542-4.396l0.147-0.255l0.053-0.094
			c-0.896-0.521-1.753-1.119-2.548-1.79l-0.071,0.085l-0.187,0.223l-3.27,3.89L13.128,65.045z"/>
		<path display="inline" fill="#FFFFFF" d="M10.843,68.003c0.371,0.011,0.737,0.017,1.101,0.014
			c-0.354-0.141-0.706-0.297-1.055-0.455l-0.87,1.03L10.843,68.003z"/>
		<path display="inline" fill="#FFFFFF" d="M14.296,70.42l-0.274,0.976l0.675-1.166c-0.271-0.273-0.534-0.553-0.792-0.839
			C14.024,69.735,14.157,70.078,14.296,70.42"/>
		<path display="inline" fill="#FFFFFF" d="M10.239,62.183L8.272,63.85l0.254,0.294c0.147-0.127,0.377-0.095,0.525,0.065
			l0.652-0.589c0.13-0.541,0.97-1.55,2.126-2.537c1.071-0.92,2.088-1.595,2.619-1.805c0.176,0.198,0.356,0.391,0.541,0.579
			l-5.06,4.94l-0.62-0.047c0.011,0.345,0.029,0.692,0.054,1.043c0.353,0.025,0.696,0.043,1.044,0.053l-0.048-0.621l4.942-5.061
			c0.185,0.186,0.377,0.367,0.575,0.541c-0.208,0.531-0.885,1.551-1.804,2.622c-0.989,1.155-1.995,1.994-2.538,2.125l-0.585,0.653
			c0.157,0.144,0.188,0.376,0.058,0.523l0.296,0.253l1.669-1.967l0.077,0.063l3.269-3.891l0.188-0.221l0.068-0.086
			c-0.797-0.669-1.537-1.405-2.205-2.205l-0.082,0.069l-0.226,0.19l-3.889,3.267L10.239,62.183z"/>
		<path display="inline" fill="#FFFFFF" d="M7.478,64.696c0.363,0.079,0.724,0.146,1.083,0.206
			c-0.325-0.203-0.646-0.413-0.966-0.634l-1.031,0.868L7.478,64.696z"/>
		<path display="inline" fill="#FFFFFF" d="M10.458,67.678l-0.439,0.914l0.867-1.033c-0.22-0.317-0.432-0.638-0.634-0.962
			C10.312,66.953,10.379,67.315,10.458,67.678"/>
		<path display="inline" fill="#FFFFFF" d="M7.891,58.861l-2.228,1.302l0.198,0.334c0.168-0.099,0.391-0.031,0.503,0.151
			l0.747-0.469c0.223-0.508,1.226-1.353,2.533-2.129c1.216-0.718,2.336-1.209,2.894-1.32c0.141,0.225,0.286,0.446,0.436,0.661
			l-5.841,3.994L6.53,61.228c-0.052,0.346-0.096,0.69-0.13,1.039c0.338,0.086,0.68,0.165,1.019,0.233l0.059-0.619l5.74-4.13
			c0.154,0.214,0.314,0.423,0.476,0.634c-0.295,0.485-1.137,1.371-2.227,2.27c-1.172,0.963-2.311,1.617-2.863,1.655l-0.695,0.543
			c0.138,0.166,0.124,0.403-0.025,0.523l0.245,0.299l1.984-1.65l0.065,0.079l3.889-3.268l0.223-0.189l0.085-0.069
			c-0.672-0.796-1.27-1.651-1.788-2.549l-0.096,0.053l-0.255,0.146l-4.396,2.547L7.891,58.861z"/>
		<path display="inline" fill="#FFFFFF" d="M4.734,60.86c0.342,0.138,0.687,0.27,1.031,0.392C5.479,60.996,5.2,60.733,4.925,60.46
			l-1.166,0.675L4.734,60.86z"/>
		<path display="inline" fill="#FFFFFF" d="M7.153,64.313l-0.59,0.823l1.031-0.868c-0.16-0.35-0.312-0.702-0.456-1.056
			C7.136,63.576,7.143,63.942,7.153,64.313"/>
		<path display="inline" fill="#FFFFFF" d="M6.154,55.184l-2.422,0.893l0.137,0.364c0.182-0.069,0.391,0.037,0.47,0.236l0.817-0.329
			c0.309-0.465,1.441-1.122,2.865-1.656c1.318-0.495,2.507-0.784,3.08-0.799c0.096,0.246,0.198,0.486,0.308,0.727l-6.443,2.918
			l-0.568-0.259c-0.107,0.329-0.209,0.662-0.303,1.001c0.319,0.144,0.642,0.28,0.963,0.407l0.168-0.603l6.371-3.067
			c0.113,0.236,0.234,0.471,0.356,0.704c-0.373,0.429-1.358,1.151-2.585,1.85c-1.326,0.746-2.56,1.194-3.112,1.134l-0.776,0.413
			c0.102,0.191,0.052,0.419-0.117,0.514l0.191,0.339l2.235-1.283l0.053,0.089l4.396-2.545l0.256-0.147l0.096-0.054
			c-0.521-0.9-0.962-1.84-1.316-2.817l-0.104,0.04l-0.274,0.099l-4.773,1.737L6.154,55.184z"/>
		<path display="inline" fill="#FFFFFF" d="M2.695,56.601c0.313,0.196,0.629,0.385,0.945,0.564
			c-0.236-0.301-0.466-0.611-0.688-0.927l-1.266,0.461L2.695,56.601z"/>
		<path display="inline" fill="#FFFFFF" d="M4.482,60.425l-0.724,0.709l1.165-0.674c-0.099-0.374-0.188-0.749-0.268-1.121
			C4.59,59.696,4.532,60.059,4.482,60.425"/>
		<path display="inline" fill="#FFFFFF" d="M5.085,51.257l-2.54,0.455l0.074,0.384c0.187-0.038,0.374,0.105,0.418,0.315l0.859-0.18
			c0.387-0.402,1.616-0.853,3.112-1.13c1.388-0.258,2.608-0.334,3.171-0.246c0.053,0.254,0.112,0.514,0.178,0.768l-6.854,1.743
			c-0.17-0.113-0.343-0.231-0.511-0.353c-0.167,0.303-0.324,0.615-0.477,0.93c0.289,0.199,0.582,0.388,0.875,0.572l0.271-0.564
			l6.811-1.907c0.07,0.253,0.146,0.505,0.229,0.754c-0.447,0.355-1.538,0.898-2.872,1.366c-1.437,0.507-2.724,0.73-3.257,0.577
			L3.732,55.01c0.065,0.205-0.024,0.424-0.207,0.488l0.131,0.367l2.425-0.873l0.034,0.095l4.775-1.738l0.276-0.1l0.1-0.039
			c-0.354-0.974-0.624-1.978-0.802-2.998l-0.107,0.017l-0.29,0.051l-5.002,0.877L5.085,51.257z"/>
		<path display="inline" fill="#FFFFFF" d="M1.434,52.051c0.273,0.247,0.552,0.488,0.833,0.719c-0.177-0.339-0.35-0.682-0.514-1.031
			l-1.329,0.233L1.434,52.051z"/>
		<path display="inline" fill="#FFFFFF" d="M2.524,56.128l-0.837,0.571l1.267-0.458c-0.033-0.387-0.055-0.77-0.068-1.154
			C2.756,55.43,2.637,55.775,2.524,56.128"/>
		<path display="inline" fill="#FFFFFF" d="M4.718,47.206l-2.58,0.013l0.006,0.388c0.191-0.004,0.352,0.17,0.358,0.386l0.881-0.031
			c0.448-0.331,1.736-0.559,3.256-0.574c1.414-0.014,2.626,0.12,3.168,0.308c0.011,0.262,0.023,0.527,0.041,0.791L2.797,49.01
			l-0.445-0.438c-0.218,0.273-0.427,0.549-0.631,0.835c0.251,0.244,0.505,0.48,0.765,0.71l0.361-0.506l7.038-0.69
			c0.027,0.264,0.06,0.524,0.096,0.787c-0.498,0.272-1.674,0.614-3.064,0.844c-1.502,0.249-2.812,0.244-3.311-0.003l-0.869,0.12
			c0.032,0.215-0.1,0.413-0.289,0.441l0.063,0.383l2.54-0.435l0.02,0.103l5.004-0.88l0.287-0.048l0.106-0.02
			c-0.179-1.022-0.265-2.062-0.27-3.107h-0.107H9.797H4.718V47.206L4.718,47.206z"/>
		<path display="inline" fill="#FFFFFF" d="M0.983,47.357c0.228,0.29,0.461,0.573,0.694,0.851c-0.117-0.365-0.227-0.729-0.329-1.103
			H0L0.983,47.357z"/>
		<path display="inline" fill="#FFFFFF" d="M1.346,51.555l-0.922,0.417l1.326-0.233c0.034-0.386,0.081-0.768,0.134-1.144
			C1.7,50.907,1.521,51.229,1.346,51.555"/>
		<path display="inline" fill="#FFFFFF" d="M5.051,43.154L2.509,42.72l-0.062,0.381c0.189,0.033,0.319,0.229,0.286,0.441
			l0.872,0.123c0.499-0.249,1.809-0.253,3.311-0.005c1.391,0.229,2.566,0.573,3.066,0.847c-0.036,0.261-0.069,0.521-0.098,0.787
			l-7.038-0.692l-0.361-0.506c-0.259,0.229-0.514,0.469-0.765,0.71c0.204,0.284,0.413,0.564,0.631,0.835l0.445-0.438l7.051,0.524
			c-0.017,0.264-0.03,0.528-0.041,0.791c-0.538,0.184-1.753,0.321-3.168,0.308c-1.52-0.016-2.81-0.246-3.257-0.574l-0.88-0.031
			c-0.007,0.216-0.167,0.39-0.358,0.387l-0.006,0.387l2.58,0.013v0.1h5.078h0.292h0.11c0.002-1.047,0.09-2.084,0.269-3.106
			l-0.106-0.02l-0.289-0.048l-5.001-0.88L5.051,43.154z"/>
		<path display="inline" fill="#FFFFFF" d="M1.346,42.655c0.178,0.327,0.354,0.647,0.538,0.962
			c-0.053-0.377-0.098-0.761-0.134-1.144L0.424,42.24L1.346,42.655z"/>
		<path display="inline" fill="#FFFFFF" d="M0.983,46.854l-0.982,0.252H1.35c0.1-0.372,0.211-0.74,0.328-1.103
			C1.444,46.281,1.211,46.561,0.983,46.854"/>
		<path display="inline" fill="#FFFFFF" d="M6.082,39.218l-2.428-0.871l-0.129,0.366c0.183,0.063,0.272,0.28,0.207,0.486
			l0.839,0.269c0.533-0.155,1.824,0.07,3.257,0.576c1.334,0.468,2.424,1.013,2.872,1.368c-0.081,0.249-0.158,0.502-0.229,0.754
			l-6.811-1.905l-0.268-0.565c-0.296,0.182-0.588,0.371-0.878,0.569c0.152,0.316,0.31,0.627,0.477,0.934
			c0.169-0.122,0.341-0.241,0.514-0.354l6.853,1.743c-0.065,0.254-0.126,0.512-0.179,0.77c-0.562,0.086-1.783,0.011-3.168-0.247
			c-1.498-0.279-2.728-0.727-3.114-1.13L3.04,41.798c-0.045,0.213-0.23,0.354-0.421,0.316l-0.071,0.383l2.54,0.456L5.07,43.052
			l5.003,0.878l0.288,0.048l0.106,0.02c0.179-1.021,0.447-2.026,0.803-3l-0.101-0.038l-0.275-0.1L6.12,39.121L6.082,39.218z"/>
		<path display="inline" fill="#FFFFFF" d="M2.524,38.081c0.112,0.352,0.231,0.7,0.361,1.043C2.9,38.74,2.923,38.356,2.954,37.97
			l-1.267-0.459L2.524,38.081z"/>
		<path display="inline" fill="#FFFFFF" d="M1.434,42.161l-1.01,0.079l1.329,0.233c0.164-0.351,0.335-0.693,0.514-1.032
			C1.985,41.673,1.707,41.912,1.434,42.161"/>
		<path display="inline" fill="#FFFFFF" d="M7.787,35.525L5.55,34.242l-0.188,0.339c0.17,0.095,0.218,0.322,0.117,0.514l0.776,0.414
			c0.552-0.062,1.784,0.384,3.11,1.133c1.229,0.695,2.211,1.421,2.587,1.85c-0.124,0.232-0.244,0.468-0.357,0.706l-6.373-3.072
			l-0.165-0.601c-0.322,0.128-0.644,0.265-0.966,0.406c0.098,0.341,0.196,0.671,0.306,1.003l0.568-0.259l6.443,2.915
			c-0.108,0.24-0.214,0.482-0.311,0.727c-0.569-0.012-1.756-0.302-3.079-0.798c-1.423-0.535-2.558-1.192-2.865-1.655l-0.815-0.328
			c-0.079,0.199-0.291,0.306-0.469,0.236l-0.138,0.364l2.422,0.892l-0.038,0.098l4.775,1.736l0.276,0.099l0.1,0.04
			c0.355-0.975,0.796-1.918,1.317-2.816l-0.097-0.053l-0.252-0.147l-4.396-2.546L7.787,35.525z"/>
		<path display="inline" fill="#FFFFFF" d="M4.482,33.786c0.05,0.367,0.111,0.729,0.175,1.085c0.081-0.374,0.171-0.749,0.27-1.121
			l-1.168-0.679L4.482,33.786z"/>
		<path display="inline" fill="#FFFFFF" d="M2.695,37.608l-1.008-0.098l1.267,0.46c0.223-0.315,0.45-0.624,0.688-0.925
			C3.324,37.224,3.01,37.413,2.695,37.608"/>
		<path display="inline" fill="#FFFFFF" d="M10.109,32.184l-1.983-1.65l-0.243,0.301c0.146,0.123,0.16,0.356,0.025,0.524
			l0.692,0.544c0.556,0.035,1.691,0.688,2.866,1.655c1.088,0.896,1.932,1.78,2.226,2.269c-0.163,0.207-0.32,0.419-0.477,0.634
			l-5.738-4.13l-0.061-0.62c-0.337,0.069-0.68,0.146-1.019,0.231c0.038,0.349,0.077,0.695,0.127,1.04l0.604-0.155l5.841,3.99
			c-0.15,0.217-0.295,0.438-0.435,0.664c-0.561-0.113-1.678-0.602-2.894-1.322c-1.311-0.776-2.311-1.619-2.535-2.129l-0.743-0.469
			c-0.114,0.183-0.337,0.251-0.505,0.154l-0.197,0.331l2.227,1.305l-0.051,0.086l4.397,2.545l0.252,0.147l0.097,0.051
			c0.521-0.897,1.122-1.75,1.79-2.548l-0.085-0.068l-0.223-0.188l-3.89-3.267L10.109,32.184z"/>
		<path display="inline" fill="#FFFFFF" d="M7.153,29.896c-0.014,0.371-0.018,0.736-0.015,1.102
			c0.141-0.355,0.295-0.707,0.455-1.057l-1.032-0.867L7.153,29.896z"/>
		<path display="inline" fill="#FFFFFF" d="M4.734,33.351l-0.976-0.277l1.166,0.679c0.275-0.273,0.554-0.536,0.841-0.792
			C5.418,33.08,5.078,33.209,4.734,33.351"/>
		<path display="inline" fill="#FFFFFF" d="M12.974,29.294l-1.669-1.969l-0.296,0.256c0.127,0.147,0.1,0.378-0.062,0.522
			l0.589,0.655c0.538,0.13,1.548,0.968,2.538,2.125c0.919,1.068,1.594,2.087,1.804,2.619c-0.198,0.175-0.392,0.357-0.579,0.541
			l-4.94-5.059l0.05-0.622c-0.348,0.009-0.691,0.027-1.044,0.054c-0.026,0.349-0.043,0.695-0.058,1.042L9.93,29.41l5.061,4.941
			c-0.186,0.188-0.366,0.383-0.543,0.578c-0.531-0.208-1.549-0.883-2.617-1.804c-1.157-0.988-1.996-1.993-2.126-2.534L9.05,30.003
			c-0.144,0.158-0.376,0.188-0.523,0.064l-0.254,0.291l1.965,1.668l-0.062,0.081l3.889,3.265l0.225,0.19l0.083,0.068
			c0.668-0.797,1.407-1.537,2.204-2.204l-0.068-0.083l-0.188-0.226l-3.269-3.89L12.974,29.294z"/>
		<path display="inline" fill="#FFFFFF" d="M10.458,26.534c-0.079,0.362-0.146,0.722-0.206,1.081
			c0.202-0.324,0.414-0.646,0.634-0.965l-0.867-1.03L10.458,26.534z"/>
		<path display="inline" fill="#FFFFFF" d="M7.478,29.514l-0.913-0.439l1.03,0.867c0.32-0.219,0.641-0.429,0.966-0.634
			C8.201,29.368,7.841,29.435,7.478,29.514"/>
		<path display="inline" fill="#FFFFFF" d="M16.295,26.946l-1.304-2.229l-0.333,0.2c0.1,0.165,0.03,0.392-0.15,0.503l0.465,0.747
			c0.511,0.223,1.356,1.224,2.13,2.532c0.72,1.215,1.21,2.333,1.325,2.893c-0.225,0.14-0.448,0.283-0.664,0.432l-3.993-5.836
			l0.155-0.606c-0.343-0.05-0.689-0.091-1.038-0.127c-0.085,0.34-0.164,0.684-0.235,1.019l0.622,0.061l4.13,5.742
			c-0.216,0.152-0.427,0.312-0.634,0.476c-0.489-0.296-1.372-1.139-2.27-2.231c-0.966-1.172-1.618-2.308-1.654-2.863l-0.543-0.694
			c-0.172,0.134-0.405,0.122-0.527-0.027l-0.3,0.246l1.651,1.982l-0.077,0.065l3.265,3.89l0.191,0.223l0.066,0.085
			c0.798-0.668,1.652-1.267,2.55-1.787l-0.054-0.096l-0.147-0.252l-2.545-4.4L16.295,26.946z"/>
		<path display="inline" fill="#FFFFFF" d="M14.296,23.788c-0.139,0.346-0.271,0.688-0.392,1.029
			c0.254-0.283,0.521-0.563,0.792-0.838l-0.675-1.167L14.296,23.788z"/>
		<path display="inline" fill="#FFFFFF" d="M10.843,26.208l-0.824-0.588l0.867,1.03c0.35-0.158,0.702-0.312,1.056-0.456
			C11.58,26.191,11.211,26.198,10.843,26.208"/>
		<path display="inline" fill="#FFFFFF" d="M19.973,25.209l-0.893-2.422l-0.364,0.139c0.067,0.18-0.037,0.389-0.235,0.468
			l0.327,0.817c0.463,0.31,1.123,1.44,1.656,2.866c0.496,1.32,0.785,2.505,0.799,3.079c-0.245,0.1-0.489,0.199-0.726,0.311
			l-2.919-6.445l0.26-0.568c-0.331-0.109-0.665-0.209-1.003-0.306c-0.142,0.319-0.278,0.641-0.405,0.963l0.602,0.166l3.07,6.373
			c-0.237,0.113-0.474,0.234-0.704,0.358c-0.43-0.378-1.159-1.36-1.852-2.59c-0.746-1.322-1.195-2.558-1.133-3.108l-0.414-0.775
			c-0.189,0.1-0.418,0.049-0.514-0.119l-0.336,0.188l1.28,2.238l-0.087,0.053l2.541,4.398l0.148,0.252l0.053,0.095
			c0.898-0.521,1.842-0.962,2.816-1.315l-0.038-0.105l-0.1-0.271l-1.738-4.773L19.973,25.209z"/>
		<path display="inline" fill="#FFFFFF" d="M18.555,21.751c-0.197,0.313-0.387,0.631-0.564,0.945
			c0.298-0.233,0.61-0.464,0.925-0.687l-0.458-1.266L18.555,21.751z"/>
		<path display="inline" fill="#FFFFFF" d="M14.73,23.538l-0.709-0.726l0.675,1.168c0.374-0.1,0.747-0.188,1.123-0.268
			C15.459,23.646,15.097,23.587,14.73,23.538"/>
		<path display="inline" fill="#FFFFFF" d="M23.896,24.141l-0.452-2.54l-0.382,0.071c0.037,0.191-0.104,0.376-0.319,0.422
			l0.182,0.859c0.403,0.387,0.853,1.615,1.127,3.112c0.262,1.386,0.335,2.606,0.25,3.17c-0.255,0.055-0.515,0.115-0.768,0.179
			l-1.747-6.854c0.116-0.172,0.236-0.344,0.354-0.513c-0.301-0.164-0.611-0.324-0.929-0.477c-0.198,0.289-0.386,0.58-0.571,0.875
			l0.567,0.272l1.908,6.809c-0.254,0.07-0.507,0.146-0.758,0.229c-0.355-0.446-0.898-1.538-1.366-2.869
			c-0.507-1.436-0.73-2.728-0.574-3.26l-0.27-0.838c-0.206,0.068-0.422-0.024-0.486-0.206l-0.365,0.13l0.871,2.424l-0.099,0.035
			l1.739,4.775l0.099,0.271l0.037,0.105c0.976-0.354,1.982-0.622,3.003-0.801l-0.02-0.109l-0.052-0.285L24,24.123L23.896,24.141z"/>
		<path display="inline" fill="#FFFFFF" d="M23.105,20.487c-0.25,0.273-0.489,0.552-0.722,0.833c0.339-0.18,0.682-0.351,1.034-0.516
			l-0.233-1.327L23.105,20.487z"/>
		<path display="inline" fill="#FFFFFF" d="M19.027,21.578l-0.572-0.834l0.46,1.266c0.385-0.033,0.77-0.058,1.154-0.071
			C19.727,21.812,19.381,21.693,19.027,21.578"/>
		<path display="inline" fill="#FFFFFF" d="M27.95,23.77l-0.011-2.577l-0.39,0.004c0.004,0.194-0.172,0.353-0.384,0.359l0.029,0.883
			c0.33,0.445,0.559,1.734,0.574,3.256c0.014,1.41-0.123,2.626-0.306,3.167c-0.267,0.007-0.529,0.021-0.795,0.041l-0.525-7.053
			l0.438-0.445c-0.273-0.212-0.55-0.422-0.835-0.629c-0.243,0.252-0.48,0.506-0.713,0.764l0.511,0.362l0.69,7.039
			c-0.265,0.025-0.527,0.059-0.79,0.094c-0.271-0.501-0.615-1.672-0.843-3.066c-0.247-1.499-0.246-2.81,0.004-3.308l-0.123-0.871
			c-0.216,0.027-0.412-0.098-0.442-0.288l-0.382,0.062l0.434,2.541l-0.099,0.018l0.878,5.008l0.051,0.285l0.021,0.109
			c1.022-0.18,2.061-0.269,3.104-0.269v-0.111v-0.291v-5.081L27.95,23.77L27.95,23.77z"/>
		<path display="inline" fill="#FFFFFF" d="M27.801,20.039c-0.292,0.228-0.578,0.458-0.851,0.694
			c0.364-0.119,0.728-0.227,1.101-0.328v-1.348L27.801,20.039z"/>
		<path display="inline" fill="#FFFFFF" d="M23.604,20.401l-0.418-0.924l0.234,1.327c0.385,0.035,0.766,0.08,1.144,0.134
			C24.249,20.752,23.928,20.575,23.604,20.401"/>
		<path display="inline" fill="#FFFFFF" d="M32.002,24.106l0.432-2.542l-0.38-0.063c-0.028,0.19-0.228,0.315-0.441,0.288
			l-0.124,0.873c0.25,0.498,0.254,1.808,0.008,3.307c-0.23,1.391-0.57,2.564-0.847,3.067c-0.26-0.036-0.521-0.067-0.787-0.096
			l0.69-7.039l0.508-0.36c-0.228-0.259-0.469-0.514-0.712-0.766c-0.282,0.207-0.56,0.418-0.829,0.632l0.435,0.443l-0.526,7.054
			c-0.262-0.021-0.528-0.032-0.793-0.042c-0.182-0.542-0.323-1.754-0.305-3.166c0.015-1.521,0.244-2.812,0.572-3.258l0.028-0.881
			c-0.216-0.009-0.387-0.164-0.384-0.358l-0.387-0.006l-0.011,2.578h-0.103v5.081v0.294v0.108c1.044,0,2.084,0.091,3.105,0.269
			l0.021-0.109l0.052-0.285l0.876-5.008L32.002,24.106z"/>
		<path display="inline" fill="#FFFFFF" d="M32.498,20.401c-0.328,0.174-0.646,0.351-0.959,0.537
			c0.377-0.054,0.761-0.099,1.145-0.134l0.23-1.327L32.498,20.401z"/>
		<path display="inline" fill="#FFFFFF" d="M28.303,20.039l-0.256-0.981v1.348c0.376,0.102,0.743,0.209,1.104,0.328
			C28.875,20.498,28.594,20.267,28.303,20.039"/>
		<path display="inline" fill="#FFFFFF" d="M35.938,25.137l0.87-2.424l-0.367-0.13c-0.062,0.182-0.279,0.274-0.484,0.206
			l-0.273,0.838c0.156,0.532-0.065,1.824-0.572,3.26c-0.469,1.331-1.008,2.423-1.366,2.869c-0.25-0.082-0.501-0.158-0.757-0.229
			l1.907-6.809l0.567-0.272c-0.182-0.291-0.373-0.586-0.57-0.875c-0.318,0.155-0.627,0.312-0.929,0.477
			c0.122,0.168,0.235,0.341,0.353,0.513l-1.747,6.854c-0.256-0.063-0.509-0.124-0.767-0.179c-0.089-0.563-0.015-1.784,0.244-3.17
			c0.276-1.497,0.729-2.726,1.132-3.112l0.179-0.859c-0.212-0.045-0.354-0.23-0.315-0.423L32.658,21.6l-0.453,2.538l-0.102-0.018
			l-0.876,5.006l-0.051,0.287l-0.02,0.109c1.023,0.179,2.026,0.446,3.001,0.8l0.037-0.104l0.098-0.273l1.739-4.773L35.938,25.137z"
			/>
		<path display="inline" fill="#FFFFFF" d="M37.073,21.578c-0.35,0.115-0.698,0.233-1.042,0.36c0.383,0.014,0.768,0.037,1.152,0.071
			l0.462-1.269L37.073,21.578z"/>
		<path display="inline" fill="#FFFFFF" d="M32.994,20.487l-0.08-1.008l-0.23,1.326c0.348,0.164,0.691,0.336,1.033,0.515
			C33.484,21.041,33.244,20.761,32.994,20.487"/>
		<path display="inline" fill="#FFFFFF" d="M39.629,26.843l1.281-2.239l-0.335-0.187c-0.099,0.166-0.325,0.217-0.514,0.117
			l-0.416,0.775c0.062,0.554-0.385,1.785-1.132,3.11c-0.694,1.228-1.42,2.21-1.851,2.588c-0.23-0.124-0.467-0.244-0.7-0.358
			l3.066-6.373l0.607-0.166c-0.133-0.322-0.266-0.642-0.413-0.963c-0.337,0.097-0.672,0.196-1.003,0.308l0.26,0.566l-2.914,6.443
			c-0.243-0.108-0.484-0.209-0.729-0.309c0.014-0.574,0.299-1.759,0.798-3.081c0.533-1.422,1.191-2.555,1.656-2.864l0.333-0.817
			c-0.201-0.081-0.31-0.288-0.24-0.468l-0.366-0.139l-0.89,2.422l-0.097-0.037l-1.737,4.772l-0.098,0.273l-0.039,0.104
			c0.973,0.354,1.918,0.792,2.815,1.316l0.058-0.097l0.144-0.253l2.544-4.398L39.629,26.843z"/>
		<path display="inline" fill="#FFFFFF" d="M41.37,23.538c-0.367,0.049-0.729,0.108-1.085,0.177
			c0.373,0.077,0.749,0.166,1.121,0.268l0.679-1.168L41.37,23.538z"/>
		<path display="inline" fill="#FFFFFF" d="M37.548,21.751l0.1-1.01l-0.462,1.269c0.315,0.223,0.624,0.452,0.925,0.686
			C37.932,22.382,37.743,22.065,37.548,21.751"/>
		<path display="inline" fill="#FFFFFF" d="M42.97,29.167l1.65-1.983l-0.295-0.248c-0.126,0.152-0.36,0.163-0.528,0.027
			l-0.544,0.694c-0.034,0.555-0.688,1.69-1.654,2.866c-0.896,1.091-1.784,1.934-2.269,2.228c-0.206-0.163-0.419-0.321-0.634-0.476
			l4.13-5.741l0.618-0.059c-0.067-0.338-0.144-0.682-0.231-1.02c-0.35,0.036-0.697,0.077-1.038,0.127l0.155,0.605l-3.993,5.835
			c-0.217-0.148-0.438-0.289-0.662-0.43c0.113-0.561,0.601-1.68,1.318-2.893c0.776-1.311,1.623-2.312,2.134-2.533l0.465-0.747
			c-0.181-0.112-0.253-0.342-0.153-0.504l-0.333-0.2l-1.304,2.229l-0.089-0.052l-2.544,4.398l-0.145,0.252l-0.058,0.097
			c0.9,0.519,1.756,1.12,2.552,1.789l0.071-0.084l0.188-0.225l3.265-3.89L42.97,29.167z"/>
		<path display="inline" fill="#FFFFFF" d="M45.258,26.208c-0.371-0.013-0.733-0.017-1.098-0.014
			c0.35,0.145,0.706,0.298,1.053,0.456l0.869-1.03L45.258,26.208z"/>
		<path display="inline" fill="#FFFFFF" d="M41.806,23.788l0.275-0.976l-0.677,1.167c0.273,0.274,0.534,0.555,0.794,0.838
			C42.074,24.476,41.945,24.134,41.806,23.788"/>
		<path display="inline" fill="#FFFFFF" d="M45.86,32.027l1.967-1.668l-0.253-0.292c-0.147,0.127-0.377,0.096-0.524-0.064
			l-0.652,0.589c-0.134,0.541-0.97,1.548-2.127,2.537c-1.069,0.92-2.089,1.595-2.619,1.803c-0.176-0.196-0.356-0.39-0.541-0.579
			l5.06-4.942l0.62,0.047c-0.011-0.345-0.026-0.691-0.055-1.04c-0.352-0.026-0.698-0.045-1.041-0.056l0.046,0.621l-4.939,5.06
			c-0.19-0.184-0.38-0.364-0.579-0.541c0.209-0.53,0.884-1.551,1.803-2.618c0.992-1.156,1.995-1.996,2.536-2.127l0.591-0.653
			c-0.161-0.145-0.192-0.377-0.063-0.524l-0.294-0.254l-1.671,1.969l-0.076-0.064l-3.267,3.89l-0.188,0.223l-0.071,0.085
			c0.798,0.669,1.537,1.408,2.205,2.205l0.085-0.068l0.223-0.19l3.888-3.268L45.86,32.027z"/>
		<path display="inline" fill="#FFFFFF" d="M48.62,29.514c-0.357-0.08-0.718-0.147-1.079-0.206c0.324,0.205,0.643,0.415,0.965,0.634
			l1.031-0.867L48.62,29.514z"/>
		<path display="inline" fill="#FFFFFF" d="M45.644,26.534l0.44-0.914l-0.869,1.03c0.222,0.318,0.432,0.641,0.634,0.965
			C45.788,27.256,45.722,26.895,45.644,26.534"/>
		<path display="inline" fill="#FFFFFF" d="M48.209,35.351l2.229-1.304l-0.198-0.332c-0.166,0.097-0.392,0.03-0.505-0.154
			l-0.746,0.469c-0.223,0.507-1.222,1.353-2.533,2.13c-1.211,0.72-2.332,1.209-2.893,1.321c-0.139-0.224-0.285-0.447-0.434-0.664
			l5.839-3.992l0.604,0.157c0.052-0.343,0.095-0.688,0.129-1.038c-0.338-0.085-0.682-0.163-1.018-0.233l-0.061,0.62l-5.739,4.13
			c-0.154-0.215-0.316-0.427-0.478-0.634c0.296-0.488,1.139-1.373,2.226-2.269c1.177-0.966,2.311-1.62,2.865-1.655l0.692-0.544
			c-0.137-0.168-0.12-0.401,0.027-0.524l-0.248-0.301l-1.981,1.653l-0.064-0.078l-3.888,3.267l-0.223,0.19l-0.085,0.066
			c0.668,0.798,1.268,1.653,1.79,2.551l0.095-0.052l0.254-0.147l4.397-2.546L48.209,35.351z"/>
		<path display="inline" fill="#FFFFFF" d="M51.368,33.351c-0.343-0.142-0.688-0.271-1.029-0.393
			c0.283,0.258,0.562,0.521,0.838,0.792l1.163-0.677L51.368,33.351z"/>
		<path display="inline" fill="#FFFFFF" d="M48.947,29.896l0.59-0.822l-1.034,0.867c0.161,0.35,0.317,0.701,0.459,1.055
			C48.964,30.633,48.958,30.268,48.947,29.896"/>
		<path display="inline" fill="#FFFFFF" d="M49.95,39.025l2.419-0.891l-0.138-0.363c-0.177,0.069-0.39-0.04-0.467-0.24l-0.819,0.332
			c-0.306,0.463-1.44,1.12-2.863,1.655c-1.318,0.496-2.508,0.786-3.08,0.798c-0.098-0.243-0.201-0.486-0.311-0.727l6.443-2.915
			l0.569,0.259c0.11-0.329,0.213-0.662,0.305-1.001c-0.321-0.143-0.641-0.28-0.963-0.408l-0.166,0.601l-6.37,3.072
			c-0.116-0.238-0.234-0.473-0.363-0.706c0.38-0.429,1.366-1.151,2.593-1.849c1.322-0.747,2.557-1.194,3.107-1.132l0.775-0.414
			c-0.1-0.193-0.051-0.421,0.119-0.516l-0.19-0.336l-2.237,1.283l-0.051-0.091l-4.397,2.544l-0.254,0.147l-0.095,0.054
			c0.519,0.897,0.96,1.843,1.315,2.815l0.102-0.038l0.275-0.099l4.773-1.737L49.95,39.025z"/>
		<path display="inline" fill="#FFFFFF" d="M53.406,37.608c-0.314-0.195-0.632-0.385-0.946-0.565
			c0.233,0.304,0.462,0.612,0.687,0.927l1.266-0.459L53.406,37.608z"/>
		<path display="inline" fill="#FFFFFF" d="M51.622,33.786l0.72-0.713l-1.161,0.679c0.095,0.37,0.185,0.747,0.267,1.123
			C51.51,34.515,51.567,34.153,51.622,33.786"/>
		<path display="inline" fill="#FFFFFF" d="M51.016,42.951l2.54-0.454l-0.072-0.383c-0.185,0.038-0.375-0.106-0.419-0.319
			l-0.86,0.185c-0.387,0.403-1.616,0.851-3.112,1.13c-1.385,0.258-2.607,0.333-3.171,0.247c-0.052-0.258-0.108-0.517-0.178-0.771
			l6.855-1.742c0.172,0.113,0.342,0.232,0.514,0.354c0.166-0.307,0.323-0.617,0.475-0.934c-0.288-0.198-0.581-0.39-0.874-0.569
			l-0.27,0.565l-6.811,1.905c-0.071-0.254-0.147-0.505-0.229-0.755c0.446-0.354,1.54-0.9,2.868-1.367
			c1.437-0.506,2.728-0.731,3.261-0.576l0.839-0.269c-0.068-0.205,0.022-0.423,0.205-0.486l-0.131-0.368l-2.425,0.873l-0.033-0.097
			l-4.775,1.738l-0.274,0.1l-0.101,0.038c0.354,0.976,0.623,1.979,0.803,3l0.105-0.021l0.29-0.048l5.003-0.878L51.016,42.951z"/>
		<path display="inline" fill="#FFFFFF" d="M54.666,42.161c-0.271-0.249-0.549-0.489-0.832-0.722
			c0.178,0.339,0.35,0.684,0.517,1.033l1.325-0.234L54.666,42.161z"/>
		<path display="inline" fill="#FFFFFF" d="M53.578,38.081l0.832-0.57l-1.265,0.459c0.034,0.387,0.056,0.771,0.066,1.154
			C53.344,38.781,53.465,38.433,53.578,38.081"/>
		<path display="inline" fill="#FFFFFF" d="M51.382,47.004l2.582-0.011l-0.007-0.388c-0.188,0.004-0.354-0.17-0.359-0.387
			l-0.88,0.031c-0.45,0.328-1.739,0.558-3.26,0.574c-1.41,0.014-2.626-0.125-3.167-0.308c-0.007-0.264-0.021-0.529-0.042-0.792
			l7.054-0.523l0.445,0.437c0.216-0.271,0.424-0.549,0.63-0.833c-0.253-0.245-0.505-0.481-0.764-0.713l-0.364,0.507l-7.037,0.691
			c-0.029-0.263-0.057-0.523-0.098-0.785c0.501-0.274,1.672-0.618,3.066-0.847c1.499-0.247,2.811-0.243,3.31,0.006l0.872-0.122
			c-0.029-0.215,0.1-0.411,0.292-0.443l-0.063-0.382l-2.539,0.435l-0.021-0.101l-5.004,0.879l-0.288,0.047l-0.106,0.021
			c0.178,1.023,0.268,2.061,0.271,3.106h0.106h0.292h5.081L51.382,47.004z"/>
		<path display="inline" fill="#FFFFFF" d="M55.117,46.854c-0.228-0.293-0.458-0.574-0.693-0.851c0.118,0.362,0.228,0.73,0.33,1.103
			h1.347L55.117,46.854z"/>
		<path display="inline" fill="#FFFFFF" d="M54.754,42.655l0.922-0.415l-1.325,0.233c-0.033,0.383-0.077,0.767-0.136,1.144
			C54.402,43.303,54.579,42.982,54.754,42.655"/>
	</g>
</g>
</svg>
