<?xml version="1.0" encoding="utf-8"?>
<!-- Generator: Adobe Illustrator 16.0.0, SVG Export Plug-In . SVG Version: 6.00 Build 0)  -->
<!DOCTYPE svg PUBLIC "-//W3C//DTD SVG 1.1//EN" "http://www.w3.org/Graphics/SVG/1.1/DTD/svg11.dtd">
<svg version="1.1" id="Layer_1" xmlns="http://www.w3.org/2000/svg" xmlns:xlink="http://www.w3.org/1999/xlink" x="0px" y="0px"
	 width="792px" height="378px" viewBox="0 0 792 378" enable-background="new 0 0 792 378" xml:space="preserve">
<rect fill="#2A0844" width="792" height="378"/>
<polygon fill="#DEDFE0" points="345.917,0 345.917,328.283 401.809,306 457.72,328.283 457.72,0 "/>
<polygon points="344.919,0 344.919,328.283 400.81,306.001 456.721,328.283 456.721,0 "/>
<g>
	<path fill="#FFFFFF" d="M404.417,138.927c-0.265-0.841-0.655-1.471-1.175-1.885c-0.521-0.417-1.171-0.624-1.948-0.624
		c-1.104,0-1.929,0.364-2.477,1.088c-0.548,0.729-0.819,1.57-0.819,2.527c0,0.39,0.069,0.776,0.204,1.161
		c0.137,0.383,0.338,0.771,0.602,1.16c2.042,0.084,3.062,0.752,3.062,2.004c0,0.275-0.123,0.495-0.373,0.664
		c-0.246,0.168-0.537,0.252-0.873,0.252c-0.339,0-0.627-0.078-0.87-0.236c-0.24-0.158-0.584-0.511-1.023-1.057
		c-0.267-0.339-0.537-0.506-0.822-0.506c-0.56,0-1.097,0.396-1.618,1.184c-0.521,0.79-0.778,1.621-0.778,2.495
		c0,2.021,0.874,3.674,2.626,4.957c1.753,1.284,3.986,1.927,6.701,1.927c1.726,0,3.207-0.183,4.443-0.545
		c1.236-0.364,2.305-1.055,3.204-2.075c0.898-1.02,1.35-2.196,1.35-3.52c0-1.337-0.468-2.53-1.401-3.577
		c-0.939-1.047-2.166-1.57-3.682-1.57c-1.096,0-2.004,0.315-2.737,0.944c-0.731,0.629-1.097,1.337-1.097,2.125
		c0,0.724,0.188,1.346,0.566,1.865c0.38,0.521,0.839,0.779,1.375,0.779c0.295,0,0.512-0.028,0.652-0.084
		c0.145-0.06,0.214-0.141,0.214-0.246c0-0.104-0.108-0.248-0.33-0.428c-0.359-0.305-0.536-0.604-0.536-0.898
		c0-0.38,0.154-0.679,0.472-0.9c0.316-0.22,0.631-0.331,0.949-0.331c0.368,0,0.732,0.144,1.096,0.427
		c0.363,0.287,0.545,0.704,0.545,1.252c0,0.635-0.257,1.159-0.772,1.568c-0.518,0.414-1.105,0.619-1.77,0.619
		c-0.903,0-1.662-0.382-2.271-1.146c-0.61-0.761-0.916-1.601-0.916-2.517c0-1.021,0.438-2.01,1.312-2.968
		c0.862-0.946,2.271-1.42,4.229-1.42c0.601,0,1.269,0.021,2.005,0.063c0.735,0.053,1.325,0.078,1.769,0.078
		c1.22,0,2.247-0.315,3.077-0.948c0.832-0.631,1.245-1.346,1.245-2.146c0-0.778-0.279-1.45-0.842-2.012
		c-0.563-0.563-1.148-0.845-1.762-0.845c-0.368,0-0.553,0.084-0.553,0.253c0,0.073,0.05,0.204,0.145,0.393
		c0.083,0.191,0.127,0.417,0.127,0.68c0,0.348-0.148,0.643-0.444,0.885c-0.295,0.242-0.621,0.363-0.978,0.363
		c-0.37,0-0.693-0.135-0.971-0.403c-0.28-0.269-0.42-0.613-0.42-1.034c0-0.569,0.212-1.031,0.641-1.391
		c0.425-0.355,0.978-0.535,1.648-0.535c1.21,0,2.236,0.386,3.077,1.16c0.844,0.773,1.263,1.808,1.263,3.102
		c0,1.042-0.265,1.917-0.796,2.627c-0.531,0.711-1.169,1.221-1.909,1.533c-0.74,0.311-1.774,0.525-3.102,0.638
		c1.083,1.286,1.623,2.801,1.623,4.547c0,2.327-0.94,4.273-2.825,5.841c-1.883,1.569-4.324,2.352-7.323,2.352
		c-3.113,0-5.653-0.812-7.615-2.438c-1.965-1.625-2.944-3.58-2.944-5.863c0-1.306,0.363-2.439,1.088-3.403
		c0.726-0.963,1.811-1.759,3.25-2.392c-0.389-0.557-0.68-1.11-0.875-1.658c-0.194-0.545-0.291-1.089-0.291-1.626
		c0-1.145,0.379-2.156,1.137-3.029c0.757-0.875,1.735-1.311,2.938-1.311c1.01,0,1.847,0.308,2.509,0.923
		c0.663,0.615,0.994,1.355,0.994,2.218C404.612,138.287,404.548,138.592,404.417,138.927"/>
	<path fill="#FFFFFF" d="M429.485,148.242l2.688,0.458l0.067-0.404c-0.2-0.034-0.339-0.243-0.307-0.469l-0.923-0.126
		c-0.527,0.26-1.915,0.266-3.502,0.003c-1.475-0.243-2.715-0.604-3.246-0.894c0.043-0.278,0.07-0.554,0.103-0.832l7.448,0.731
		l0.384,0.536c0.272-0.243,0.543-0.494,0.809-0.753c-0.218-0.3-0.44-0.594-0.668-0.882l-0.469,0.463l-7.466-0.556
		c0.021-0.278,0.038-0.558,0.045-0.838c0.571-0.197,1.857-0.34,3.351-0.324c1.609,0.017,2.976,0.259,3.449,0.607l0.932,0.032
		c0.006-0.227,0.18-0.41,0.38-0.408l0.006-0.409l-2.731-0.012l0.003-0.108h-5.377h-0.309h-0.114
		c-0.003,1.107-0.097,2.205-0.285,3.288l0.112,0.021l0.305,0.052l5.297,0.929L429.485,148.242z"/>
	<path fill="#FFFFFF" d="M433.402,148.767c-0.186-0.345-0.372-0.685-0.569-1.016c0.06,0.401,0.106,0.805,0.143,1.211l1.403,0.247
		L433.402,148.767z"/>
	<path fill="#FFFFFF" d="M433.786,144.326l1.039-0.267H433.4c-0.106,0.394-0.225,0.782-0.349,1.167
		C433.303,144.934,433.546,144.634,433.786,144.326"/>
	<path fill="#FFFFFF" d="M428.392,152.406l2.565,0.923l0.139-0.39c-0.191-0.067-0.29-0.296-0.217-0.514l-0.889-0.286
		c-0.563,0.165-1.931-0.072-3.45-0.609c-1.406-0.495-2.563-1.069-3.035-1.446c0.084-0.265,0.167-0.532,0.242-0.799l7.207,2.018
		l0.285,0.597c0.31-0.194,0.62-0.394,0.925-0.604c-0.159-0.335-0.327-0.663-0.502-0.985c-0.18,0.127-0.362,0.253-0.543,0.375
		l-7.254-1.845c0.07-0.27,0.133-0.543,0.187-0.814c0.6-0.092,1.891-0.011,3.357,0.261c1.582,0.294,2.884,0.77,3.292,1.195
		l0.91,0.191c0.048-0.221,0.248-0.373,0.445-0.333l0.075-0.405l-2.686-0.484l0.018-0.104l-5.295-0.93l-0.305-0.052l-0.112-0.02
		c-0.189,1.083-0.477,2.144-0.851,3.174l0.108,0.041l0.292,0.106l5.051,1.839L428.392,152.406z"/>
	<path fill="#FFFFFF" d="M432.158,153.608c-0.119-0.374-0.246-0.739-0.386-1.103c-0.014,0.406-0.036,0.812-0.071,1.22l1.339,0.486
		L432.158,153.608z"/>
	<path fill="#FFFFFF" d="M433.311,149.292l1.068-0.083l-1.403-0.247c-0.175,0.371-0.354,0.734-0.546,1.093
		C432.728,149.808,433.021,149.555,433.311,149.292"/>
	<path fill="#FFFFFF" d="M426.585,156.314l2.368,1.357l0.202-0.357c-0.18-0.102-0.231-0.343-0.125-0.544l-0.822-0.438
		c-0.583,0.065-1.887-0.408-3.288-1.2c-1.299-0.735-2.342-1.502-2.743-1.957c0.136-0.246,0.261-0.494,0.383-0.744l6.743,3.246
		l0.173,0.638c0.343-0.135,0.682-0.279,1.021-0.431c-0.1-0.359-0.206-0.71-0.323-1.06l-0.603,0.275l-6.819-3.087
		c0.117-0.254,0.227-0.509,0.33-0.769c0.604,0.015,1.862,0.32,3.26,0.846c1.505,0.564,2.705,1.261,3.029,1.752l0.867,0.348
		c0.081-0.21,0.306-0.324,0.494-0.252l0.146-0.384l-2.561-0.945l0.035-0.102l-5.051-1.838l-0.292-0.105l-0.108-0.042
		c-0.376,1.033-0.842,2.03-1.392,2.981l0.1,0.058l0.268,0.154l4.655,2.694L426.585,156.314z"/>
	<path fill="#FFFFFF" d="M430.087,158.155c-0.056-0.387-0.117-0.771-0.187-1.149c-0.085,0.395-0.184,0.791-0.282,1.185l1.23,0.714
		L430.087,158.155z"/>
	<path fill="#FFFFFF" d="M431.977,154.108l1.063,0.105l-1.339-0.488c-0.236,0.334-0.479,0.663-0.726,0.98
		C431.309,154.516,431.644,154.316,431.977,154.108"/>
	<path fill="#FFFFFF" d="M424.13,159.849l2.096,1.745l0.262-0.316c-0.156-0.127-0.172-0.376-0.028-0.555l-0.735-0.576
		c-0.586-0.038-1.786-0.73-3.031-1.752c-1.151-0.949-2.043-1.886-2.356-2.4c0.171-0.222,0.342-0.445,0.504-0.671l6.075,4.371
		l0.062,0.658c0.358-0.077,0.72-0.156,1.079-0.249c-0.036-0.368-0.082-0.734-0.136-1.099l-0.639,0.166l-6.178-4.225
		c0.157-0.229,0.311-0.464,0.459-0.701c0.592,0.119,1.776,0.637,3.061,1.398c1.387,0.822,2.442,1.715,2.68,2.255l0.79,0.495
		c0.12-0.195,0.359-0.264,0.535-0.161l0.207-0.354l-2.354-1.377l0.055-0.092l-4.655-2.694l-0.268-0.154l-0.1-0.058
		c-0.552,0.951-1.186,1.855-1.893,2.697l0.089,0.075l0.236,0.199l4.115,3.459L424.13,159.849z"/>
	<path fill="#FFFFFF" d="M427.257,162.27c0.013-0.393,0.02-0.779,0.019-1.164c-0.152,0.373-0.314,0.746-0.485,1.117l1.092,0.918
		L427.257,162.27z"/>
	<path fill="#FFFFFF" d="M429.819,158.615l1.029,0.291l-1.23-0.714c-0.292,0.288-0.588,0.568-0.888,0.838
		C429.093,158.901,429.456,158.763,429.819,158.615"/>
	<path fill="#FFFFFF" d="M421.099,162.906l1.766,2.083l0.311-0.27c-0.135-0.156-0.102-0.4,0.067-0.554l-0.624-0.693
		c-0.57-0.138-1.634-1.026-2.684-2.25c-0.975-1.131-1.688-2.208-1.908-2.771c0.21-0.186,0.413-0.379,0.613-0.573l5.229,5.355
		l-0.051,0.656c0.362-0.008,0.729-0.028,1.103-0.055c0.028-0.37,0.046-0.738,0.059-1.105l-0.658,0.052l-5.354-5.229
		c0.195-0.2,0.389-0.404,0.573-0.611c0.562,0.22,1.64,0.936,2.773,1.908c1.222,1.047,2.109,2.112,2.25,2.684l0.689,0.622
		c0.154-0.167,0.398-0.201,0.555-0.066l0.268-0.31l-2.081-1.766l0.068-0.081l-4.116-3.459l-0.236-0.199l-0.089-0.075
		c-0.708,0.845-1.491,1.626-2.334,2.333l0.074,0.09l0.201,0.236l3.455,4.116L421.099,162.906z"/>
	<path fill="#FFFFFF" d="M423.762,165.829c0.082-0.382,0.154-0.764,0.216-1.143c-0.214,0.342-0.436,0.683-0.67,1.019l0.919,1.091
		L423.762,165.829z"/>
	<path fill="#FFFFFF" d="M426.913,162.675l0.968,0.465l-1.09-0.918c-0.34,0.232-0.679,0.456-1.02,0.67
		C426.152,162.829,426.533,162.759,426.913,162.675"/>
	<path fill="#FFFFFF" d="M417.586,165.394l1.378,2.355l0.352-0.21c-0.104-0.174-0.03-0.411,0.162-0.531l-0.492-0.791
		c-0.54-0.236-1.436-1.296-2.255-2.681c-0.764-1.283-1.278-2.466-1.398-3.06c0.238-0.147,0.469-0.301,0.7-0.458l4.226,6.175
		l-0.164,0.643c0.357,0.051,0.728,0.097,1.096,0.133c0.094-0.358,0.176-0.72,0.247-1.077l-0.655-0.063l-4.372-6.077
		c0.229-0.162,0.454-0.331,0.672-0.502c0.516,0.311,1.454,1.204,2.401,2.357c1.023,1.242,1.714,2.443,1.752,3.032l0.575,0.734
		c0.177-0.142,0.426-0.13,0.559,0.027l0.312-0.258l-1.747-2.099l0.084-0.07l-3.456-4.116l-0.2-0.235l-0.074-0.09
		c-0.844,0.709-1.747,1.342-2.699,1.893l0.059,0.101l0.155,0.269l2.691,4.653L417.586,165.394z"/>
	<path fill="#FFFFFF" d="M419.701,168.733c0.146-0.363,0.284-0.725,0.414-1.089c-0.272,0.301-0.551,0.598-0.84,0.887l0.717,1.235
		L419.701,168.733z"/>
	<path fill="#FFFFFF" d="M423.354,166.173l0.873,0.623l-0.919-1.091c-0.37,0.17-0.746,0.332-1.115,0.483
		C422.576,166.192,422.962,166.185,423.354,166.173"/>
	<path fill="#FFFFFF" d="M413.694,167.231l0.942,2.562l0.386-0.145c-0.073-0.192,0.04-0.412,0.254-0.497l-0.352-0.864
		c-0.49-0.324-1.188-1.525-1.752-3.031c-0.526-1.399-0.83-2.655-0.845-3.258c0.258-0.107,0.515-0.215,0.771-0.329l3.083,6.816
		l-0.274,0.604c0.35,0.115,0.702,0.221,1.061,0.323c0.152-0.34,0.295-0.678,0.434-1.019l-0.64-0.175l-3.246-6.742
		c0.248-0.122,0.499-0.25,0.742-0.382c0.456,0.4,1.223,1.439,1.956,2.741c0.794,1.402,1.269,2.705,1.201,3.29l0.438,0.821
		c0.202-0.106,0.442-0.052,0.545,0.125l0.354-0.201l-1.356-2.369l0.094-0.053l-2.691-4.653l-0.155-0.268l-0.059-0.101
		c-0.949,0.55-1.948,1.017-2.979,1.392l0.04,0.109l0.105,0.292l1.838,5.051L413.694,167.231z"/>
	<path fill="#FFFFFF" d="M415.194,170.889c0.208-0.332,0.405-0.666,0.597-1c-0.319,0.249-0.646,0.492-0.981,0.728l0.488,1.341
		L415.194,170.889z"/>
	<path fill="#FFFFFF" d="M419.24,169l0.752,0.766l-0.717-1.235c-0.394,0.104-0.791,0.199-1.187,0.284
		C418.469,168.885,418.854,168.947,419.24,169"/>
	<path fill="#FFFFFF" d="M409.54,168.361l0.479,2.688l0.406-0.077c-0.041-0.201,0.11-0.396,0.334-0.446l-0.191-0.912
		c-0.428-0.405-0.903-1.708-1.196-3.289c-0.273-1.468-0.352-2.761-0.258-3.357c0.268-0.057,0.539-0.119,0.811-0.188l1.848,7.251
		c-0.125,0.184-0.246,0.366-0.374,0.545c0.32,0.174,0.647,0.341,0.983,0.503c0.211-0.306,0.409-0.614,0.604-0.927l-0.6-0.285
		l-2.017-7.207c0.269-0.074,0.535-0.156,0.801-0.242c0.377,0.473,0.95,1.63,1.445,3.039c0.537,1.519,0.771,2.883,0.607,3.449
		l0.288,0.886c0.218-0.072,0.446,0.026,0.513,0.217l0.388-0.135l-0.921-2.569l0.099-0.036l-1.838-5.053l-0.104-0.291l-0.041-0.109
		c-1.029,0.375-2.092,0.662-3.176,0.85l0.021,0.114l0.053,0.303l0.928,5.296L409.54,168.361z"/>
	<path fill="#FFFFFF" d="M410.375,172.226c0.265-0.289,0.52-0.584,0.765-0.88c-0.359,0.188-0.724,0.371-1.093,0.544l0.245,1.406
		L410.375,172.226z"/>
	<path fill="#FFFFFF" d="M414.693,171.073l0.604,0.884l-0.488-1.342c-0.407,0.036-0.812,0.059-1.22,0.075
		C413.953,170.826,414.321,170.952,414.693,171.073"/>
	<path fill="#FFFFFF" d="M405.252,168.752l0.012,2.73l0.409-0.007c-0.003-0.204,0.179-0.371,0.407-0.38l-0.031-0.93
		c-0.349-0.475-0.592-1.839-0.606-3.45c-0.018-1.493,0.129-2.778,0.324-3.349c0.279-0.009,0.56-0.022,0.839-0.044l0.555,7.464
		l-0.46,0.469c0.286,0.229,0.578,0.45,0.879,0.668c0.258-0.267,0.51-0.536,0.754-0.81l-0.538-0.383l-0.73-7.449
		c0.278-0.028,0.557-0.06,0.832-0.099c0.29,0.531,0.651,1.769,0.896,3.244c0.262,1.588,0.256,2.975-0.007,3.502l0.13,0.922
		c0.226-0.03,0.437,0.104,0.467,0.305l0.403-0.067l-0.456-2.689l0.104-0.019l-0.928-5.296l-0.054-0.303l-0.021-0.114
		c-1.081,0.189-2.182,0.284-3.286,0.284v0.116v0.308v5.377H405.252L405.252,168.752z"/>
	<path fill="#FFFFFF" d="M405.41,172.703c0.308-0.242,0.606-0.486,0.898-0.736c-0.382,0.124-0.771,0.24-1.166,0.35v1.425
		L405.41,172.703z"/>
	<path fill="#FFFFFF" d="M409.852,172.319l0.44,0.977l-0.245-1.406c-0.406-0.037-0.811-0.084-1.21-0.141
		C409.167,171.948,409.505,172.132,409.852,172.319"/>
	<path fill="#FFFFFF" d="M400.961,168.399l-0.457,2.689l0.402,0.067c0.033-0.202,0.242-0.335,0.468-0.305l0.129-0.922
		c-0.262-0.527-0.265-1.914-0.003-3.502c0.238-1.475,0.604-2.713,0.892-3.244c0.278,0.039,0.556,0.071,0.834,0.099l-0.73,7.449
		l-0.54,0.383c0.245,0.272,0.496,0.542,0.756,0.81c0.3-0.22,0.593-0.439,0.881-0.668l-0.462-0.469l0.556-7.464
		c0.278,0.021,0.559,0.036,0.84,0.044c0.193,0.571,0.339,1.856,0.324,3.349c-0.018,1.61-0.261,2.975-0.608,3.45l-0.031,0.93
		c0.229,0.009,0.41,0.176,0.407,0.38l0.411,0.007l0.011-2.73h0.105v-5.377v-0.308v-0.116c-1.105,0-2.204-0.095-3.288-0.284
		l-0.019,0.114l-0.055,0.303l-0.927,5.296L400.961,168.399z"/>
	<path fill="#FFFFFF" d="M400.438,172.319c0.345-0.187,0.685-0.371,1.016-0.57c-0.4,0.057-0.803,0.104-1.211,0.141l-0.246,1.406
		L400.438,172.319z"/>
	<path fill="#FFFFFF" d="M404.878,172.703l0.266,1.038v-1.425c-0.395-0.11-0.78-0.226-1.165-0.35
		C404.269,172.216,404.57,172.461,404.878,172.703"/>
	<path fill="#FFFFFF" d="M396.798,167.305l-0.923,2.569l0.389,0.135c0.064-0.191,0.295-0.288,0.512-0.216l0.286-0.887
		c-0.163-0.564,0.073-1.929,0.609-3.448c0.496-1.409,1.07-2.566,1.446-3.039c0.266,0.086,0.532,0.169,0.801,0.243l-2.018,7.206
		l-0.6,0.285c0.195,0.311,0.394,0.621,0.604,0.928c0.333-0.162,0.662-0.33,0.982-0.503c-0.124-0.179-0.251-0.362-0.373-0.545
		l1.848-7.251c0.268,0.068,0.543,0.13,0.812,0.187c0.093,0.596,0.016,1.89-0.263,3.358c-0.292,1.581-0.769,2.884-1.194,3.289
		l-0.191,0.912c0.225,0.049,0.377,0.246,0.338,0.446l0.403,0.077l0.481-2.688l0.105,0.02l0.928-5.296l0.055-0.303l0.018-0.114
		c-1.078-0.189-2.142-0.474-3.174-0.849l-0.04,0.108l-0.104,0.291l-1.839,5.052L396.798,167.305z"/>
	<path fill="#FFFFFF" d="M395.594,171.073c0.375-0.122,0.74-0.248,1.104-0.383c-0.404-0.016-0.812-0.039-1.221-0.075l-0.487,1.342
		L395.594,171.073z"/>
	<path fill="#FFFFFF" d="M399.911,172.226l0.084,1.07l0.246-1.406c-0.372-0.173-0.733-0.356-1.093-0.544
		C399.395,171.642,399.646,171.937,399.911,172.226"/>
	<path fill="#FFFFFF" d="M392.889,165.5l-1.357,2.369l0.356,0.201c0.103-0.178,0.345-0.231,0.544-0.125l0.438-0.821
		c-0.065-0.587,0.408-1.888,1.2-3.29c0.732-1.301,1.503-2.34,1.958-2.741c0.244,0.133,0.494,0.26,0.746,0.382l-3.25,6.743
		l-0.637,0.174c0.134,0.341,0.279,0.678,0.431,1.019c0.357-0.102,0.71-0.208,1.061-0.323l-0.275-0.603l3.087-6.817
		c0.252,0.114,0.51,0.222,0.769,0.33c-0.013,0.603-0.317,1.859-0.847,3.257c-0.563,1.507-1.261,2.708-1.75,3.032l-0.348,0.865
		c0.209,0.084,0.324,0.304,0.251,0.497l0.384,0.145l0.947-2.562l0.102,0.038l1.839-5.052l0.104-0.291l0.041-0.109
		c-1.03-0.375-2.03-0.841-2.98-1.392l-0.057,0.102l-0.153,0.268l-2.695,4.653L392.889,165.5z"/>
	<path fill="#FFFFFF" d="M391.047,169c0.389-0.054,0.772-0.115,1.15-0.186c-0.396-0.084-0.792-0.18-1.187-0.284l-0.715,1.235
		L391.047,169z"/>
	<path fill="#FFFFFF" d="M395.094,170.889l-0.104,1.068l0.487-1.341c-0.334-0.235-0.662-0.479-0.979-0.728
		C394.686,170.224,394.886,170.558,395.094,170.889"/>
	<path fill="#FFFFFF" d="M389.354,163.044l-1.747,2.098l0.318,0.26c0.128-0.159,0.375-0.171,0.556-0.028l0.574-0.734
		c0.039-0.589,0.73-1.789,1.751-3.032c0.951-1.153,1.887-2.045,2.404-2.357c0.219,0.172,0.44,0.339,0.667,0.503l-4.369,6.075
		l-0.659,0.064c0.074,0.356,0.157,0.719,0.248,1.076c0.369-0.037,0.736-0.082,1.099-0.133l-0.165-0.644l4.227-6.174
		c0.229,0.157,0.462,0.31,0.702,0.458c-0.122,0.593-0.642,1.777-1.403,3.061c-0.819,1.384-1.713,2.444-2.251,2.68l-0.496,0.791
		c0.195,0.12,0.268,0.358,0.163,0.532l0.353,0.209l1.379-2.355l0.093,0.054l2.691-4.653l0.155-0.268l0.057-0.101
		c-0.949-0.55-1.856-1.184-2.698-1.894l-0.074,0.09l-0.199,0.236l-3.458,4.116L389.354,163.044z"/>
	<path fill="#FFFFFF" d="M386.934,166.173c0.392,0.012,0.779,0.019,1.165,0.015c-0.375-0.151-0.748-0.313-1.117-0.483l-0.919,1.091
		L386.934,166.173z"/>
	<path fill="#FFFFFF" d="M390.587,168.733l-0.289,1.033l0.714-1.235c-0.287-0.29-0.566-0.586-0.839-0.887
		C390.301,168.008,390.442,168.37,390.587,168.733"/>
	<path fill="#FFFFFF" d="M386.295,160.015l-2.083,1.765l0.271,0.31c0.155-0.135,0.398-0.101,0.554,0.068l0.691-0.623
		c0.139-0.572,1.027-1.638,2.25-2.684c1.133-0.974,2.21-1.688,2.771-1.909c0.186,0.208,0.378,0.412,0.573,0.612l-5.355,5.229
		l-0.657-0.051c0.012,0.366,0.032,0.733,0.058,1.104c0.372,0.027,0.738,0.046,1.104,0.057l-0.05-0.659l5.23-5.354
		c0.197,0.195,0.401,0.388,0.61,0.572c-0.22,0.564-0.936,1.641-1.908,2.774c-1.048,1.223-2.113,2.111-2.685,2.25l-0.622,0.692
		c0.167,0.153,0.199,0.397,0.065,0.554l0.311,0.267l1.765-2.082l0.082,0.068l3.458-4.117l0.2-0.234l0.073-0.091
		c-0.843-0.708-1.625-1.488-2.332-2.333l-0.088,0.074l-0.238,0.2l-4.116,3.458L386.295,160.015z"/>
	<path fill="#FFFFFF" d="M383.373,162.675c0.383,0.084,0.765,0.154,1.144,0.218c-0.343-0.214-0.682-0.438-1.02-0.67l-1.091,0.918
		L383.373,162.675z"/>
	<path fill="#FFFFFF" d="M386.527,165.829l-0.465,0.967l0.918-1.091c-0.233-0.336-0.457-0.676-0.672-1.019
		C386.372,165.065,386.444,165.447,386.527,165.829"/>
	<path fill="#FFFFFF" d="M383.811,156.5l-2.357,1.377l0.209,0.354c0.176-0.104,0.414-0.034,0.533,0.162l0.789-0.496
		c0.235-0.539,1.297-1.433,2.681-2.255c1.286-0.76,2.47-1.279,3.061-1.397c0.149,0.237,0.303,0.472,0.46,0.701l-6.179,4.226
		l-0.638-0.167c-0.054,0.364-0.101,0.73-0.137,1.098c0.358,0.092,0.72,0.174,1.078,0.249l0.062-0.657l6.076-4.371
		c0.163,0.227,0.331,0.449,0.502,0.671c-0.312,0.515-1.203,1.452-2.358,2.401c-1.239,1.021-2.442,1.714-3.028,1.752l-0.736,0.574
		c0.144,0.179,0.13,0.428-0.026,0.556l0.257,0.316l2.1-1.746l0.07,0.083l4.114-3.459l0.238-0.198l0.088-0.074
		c-0.709-0.843-1.343-1.748-1.892-2.699l-0.101,0.058l-0.269,0.154l-4.653,2.694L383.811,156.5z"/>
	<path fill="#FFFFFF" d="M380.469,158.615c0.363,0.147,0.726,0.286,1.09,0.415c-0.302-0.271-0.597-0.55-0.888-0.838l-1.234,0.714
		L380.469,158.615z"/>
	<path fill="#FFFFFF" d="M383.031,162.27l-0.625,0.871l1.092-0.918c-0.17-0.371-0.332-0.744-0.484-1.117
		C383.01,161.491,383.017,161.877,383.031,162.27"/>
	<path fill="#FFFFFF" d="M381.973,152.608l-2.562,0.944l0.144,0.385c0.192-0.073,0.414,0.042,0.498,0.252l0.865-0.349
		c0.325-0.491,1.525-1.187,3.031-1.752c1.397-0.526,2.653-0.83,3.26-0.845c0.101,0.259,0.21,0.515,0.325,0.769l-6.818,3.088
		l-0.601-0.276c-0.115,0.35-0.222,0.701-0.322,1.06c0.34,0.152,0.679,0.296,1.019,0.431l0.177-0.637l6.743-3.247
		c0.119,0.25,0.249,0.498,0.378,0.745c-0.398,0.454-1.438,1.221-2.737,1.957c-1.404,0.792-2.707,1.266-3.292,1.201l-0.822,0.438
		c0.107,0.201,0.054,0.443-0.125,0.543l0.202,0.357l2.367-1.357l0.056,0.094l4.653-2.693l0.269-0.156l0.101-0.057
		c-0.551-0.951-1.019-1.948-1.394-2.981l-0.107,0.041l-0.292,0.106l-5.051,1.838L381.973,152.608z"/>
	<path fill="#FFFFFF" d="M378.312,154.108c0.331,0.208,0.665,0.407,1,0.597c-0.248-0.318-0.491-0.646-0.728-0.98l-1.339,0.488
		L378.312,154.108z"/>
	<path fill="#FFFFFF" d="M380.203,158.155l-0.766,0.75l1.234-0.714c-0.104-0.395-0.199-0.79-0.285-1.185
		C380.319,157.384,380.255,157.768,380.203,158.155"/>
	<path fill="#FFFFFF" d="M380.84,148.453l-2.687,0.483l0.078,0.404c0.198-0.039,0.396,0.112,0.443,0.334l0.91-0.19
		c0.408-0.426,1.71-0.901,3.293-1.196c1.469-0.273,2.759-0.353,3.355-0.261c0.057,0.271,0.119,0.545,0.188,0.814l-7.253,1.845
		c-0.181-0.121-0.364-0.247-0.542-0.374c-0.176,0.321-0.342,0.651-0.502,0.984c0.304,0.211,0.615,0.41,0.925,0.605l0.286-0.597
		l7.207-2.019c0.074,0.268,0.155,0.535,0.242,0.799c-0.473,0.376-1.628,0.95-3.039,1.446c-1.52,0.537-2.882,0.772-3.448,0.61
		l-0.885,0.285c0.069,0.218-0.029,0.447-0.22,0.514l0.137,0.389l2.566-0.923l0.037,0.1l5.054-1.838l0.292-0.107l0.106-0.04
		c-0.376-1.031-0.66-2.092-0.848-3.175l-0.114,0.02l-0.305,0.052l-5.294,0.929L380.84,148.453z"/>
	<path fill="#FFFFFF" d="M376.976,149.292c0.29,0.263,0.584,0.516,0.882,0.763c-0.188-0.359-0.37-0.723-0.544-1.093l-1.405,0.247
		L376.976,149.292z"/>
	<path fill="#FFFFFF" d="M378.13,153.608l-0.884,0.604l1.339-0.486c-0.034-0.408-0.057-0.814-0.072-1.22
		C378.377,152.869,378.251,153.234,378.13,153.608"/>
	<path fill="#FFFFFF" d="M380.451,144.167l-2.729,0.012l0.005,0.41c0.204-0.003,0.373,0.18,0.38,0.407l0.933-0.032
		c0.473-0.349,1.838-0.59,3.446-0.607c1.495-0.015,2.778,0.127,3.352,0.324c0.01,0.28,0.024,0.56,0.043,0.838l-7.461,0.556
		l-0.473-0.463c-0.228,0.288-0.449,0.582-0.667,0.882c0.266,0.259,0.535,0.51,0.808,0.753l0.385-0.536l7.447-0.731
		c0.029,0.278,0.064,0.554,0.102,0.832c-0.528,0.29-1.771,0.651-3.245,0.894c-1.588,0.262-2.975,0.258-3.501-0.003l-0.921,0.126
		c0.032,0.227-0.104,0.436-0.307,0.469l0.067,0.404l2.688-0.459l0.021,0.107l5.296-0.93l0.303-0.052l0.114-0.02
		c-0.19-1.083-0.283-2.182-0.285-3.289h-0.116h-0.31h-5.375V144.167L380.451,144.167z"/>
	<path fill="#FFFFFF" d="M376.501,144.326c0.239,0.308,0.487,0.608,0.734,0.9c-0.124-0.385-0.24-0.773-0.349-1.167h-1.426
		L376.501,144.326z"/>
	<path fill="#FFFFFF" d="M376.884,148.767l-0.976,0.442l1.404-0.247c0.036-0.407,0.084-0.811,0.141-1.211
		C377.258,148.082,377.069,148.422,376.884,148.767"/>
	<path fill="#FFFFFF" d="M380.803,139.877l-2.688-0.46l-0.067,0.404c0.203,0.035,0.338,0.242,0.305,0.468l0.923,0.13
		c0.527-0.264,1.913-0.267,3.502-0.005c1.473,0.242,2.716,0.606,3.245,0.895c-0.037,0.277-0.072,0.554-0.102,0.832l-7.448-0.732
		l-0.384-0.536c-0.271,0.244-0.542,0.496-0.808,0.753c0.218,0.301,0.439,0.597,0.667,0.883l0.473-0.464l7.462,0.555
		c-0.019,0.28-0.034,0.559-0.044,0.838c-0.572,0.195-1.856,0.341-3.352,0.325c-1.608-0.017-2.974-0.26-3.447-0.608l-0.931-0.032
		c-0.009,0.228-0.178,0.411-0.38,0.409l-0.006,0.409l2.729,0.012v0.106h5.375h0.309h0.117c0.002-1.106,0.094-2.204,0.285-3.287
		l-0.114-0.021l-0.304-0.051l-5.295-0.929L380.803,139.877z"/>
	<path fill="#FFFFFF" d="M376.884,139.351c0.187,0.346,0.374,0.685,0.569,1.018c-0.057-0.401-0.104-0.806-0.141-1.211l-1.404-0.247
		L376.884,139.351z"/>
	<path fill="#FFFFFF" d="M376.501,143.793l-1.04,0.265h1.426c0.107-0.392,0.225-0.781,0.349-1.166
		C376.988,143.186,376.74,143.484,376.501,143.793"/>
	<path fill="#FFFFFF" d="M381.896,135.713l-2.569-0.922l-0.136,0.388c0.192,0.066,0.29,0.295,0.22,0.514l0.886,0.285
		c0.565-0.166,1.93,0.072,3.448,0.608c1.409,0.496,2.564,1.072,3.039,1.448c-0.087,0.264-0.168,0.531-0.243,0.799l-7.206-2.018
		l-0.285-0.598c-0.312,0.193-0.622,0.394-0.927,0.605c0.16,0.333,0.326,0.662,0.503,0.985c0.179-0.128,0.361-0.253,0.543-0.375
		l7.252,1.846c-0.069,0.269-0.131,0.541-0.188,0.814c-0.597,0.09-1.888,0.011-3.355-0.262c-1.584-0.294-2.886-0.769-3.293-1.195
		l-0.91-0.193c-0.047,0.225-0.244,0.376-0.445,0.336l-0.075,0.404l2.687,0.483l-0.018,0.105l5.295,0.929l0.304,0.051l0.114,0.021
		c0.188-1.083,0.472-2.145,0.849-3.176l-0.107-0.039l-0.292-0.107l-5.052-1.839L381.896,135.713z"/>
	<path fill="#FFFFFF" d="M378.13,134.51c0.121,0.373,0.247,0.741,0.383,1.102c0.016-0.404,0.039-0.812,0.072-1.22l-1.339-0.486
		L378.13,134.51z"/>
	<path fill="#FFFFFF" d="M376.976,138.827l-1.067,0.083l1.405,0.247c0.174-0.369,0.355-0.733,0.544-1.092
		C377.56,138.311,377.266,138.564,376.976,138.827"/>
	<path fill="#FFFFFF" d="M383.701,131.806l-2.367-1.358l-0.201,0.357c0.179,0.101,0.23,0.342,0.124,0.544l0.822,0.438
		c0.585-0.065,1.887,0.408,3.292,1.2c1.299,0.734,2.339,1.502,2.737,1.957c-0.132,0.245-0.259,0.494-0.378,0.746l-6.743-3.25
		l-0.176-0.637c-0.341,0.137-0.68,0.281-1.021,0.431c0.103,0.36,0.208,0.711,0.323,1.061l0.6-0.275l6.82,3.086
		c-0.115,0.254-0.226,0.51-0.327,0.769c-0.605-0.012-1.861-0.32-3.26-0.844c-1.505-0.567-2.706-1.263-3.031-1.753l-0.864-0.348
		c-0.084,0.211-0.306,0.325-0.497,0.253l-0.145,0.384l2.562,0.944l-0.039,0.103l5.053,1.838l0.292,0.106l0.107,0.04
		c0.375-1.03,0.84-2.029,1.394-2.98l-0.102-0.057l-0.268-0.156l-4.653-2.692L383.701,131.806z"/>
	<path fill="#FFFFFF" d="M380.203,129.964c0.052,0.388,0.117,0.771,0.184,1.149c0.086-0.396,0.181-0.792,0.285-1.187l-1.234-0.717
		L380.203,129.964z"/>
	<path fill="#FFFFFF" d="M378.312,134.01l-1.066-0.104l1.339,0.487c0.236-0.333,0.479-0.661,0.728-0.98
		C378.978,133.602,378.645,133.802,378.312,134.01"/>
	<path fill="#FFFFFF" d="M386.157,128.269l-2.098-1.746l-0.257,0.317c0.157,0.129,0.171,0.377,0.027,0.556l0.734,0.575
		c0.587,0.038,1.789,0.729,3.031,1.752c1.154,0.947,2.044,1.884,2.357,2.4c-0.172,0.22-0.339,0.445-0.503,0.671l-6.074-4.37
		l-0.063-0.658c-0.358,0.075-0.721,0.156-1.079,0.247c0.039,0.368,0.083,0.735,0.135,1.099l0.639-0.164l6.179,4.224
		c-0.157,0.229-0.311,0.464-0.459,0.701c-0.593-0.119-1.775-0.636-3.062-1.399c-1.386-0.821-2.445-1.714-2.682-2.253l-0.787-0.495
		c-0.121,0.193-0.358,0.266-0.534,0.163l-0.209,0.35l2.357,1.38l-0.055,0.092l4.654,2.692l0.268,0.156l0.102,0.056
		c0.549-0.95,1.184-1.854,1.892-2.697l-0.088-0.073l-0.238-0.2l-4.115-3.457L386.157,128.269z"/>
	<path fill="#FFFFFF" d="M383.031,125.849c-0.015,0.392-0.021,0.779-0.018,1.163c0.152-0.374,0.314-0.745,0.484-1.116l-1.092-0.918
		L383.031,125.849z"/>
	<path fill="#FFFFFF" d="M380.469,129.502l-1.032-0.291l1.234,0.717c0.291-0.288,0.586-0.568,0.888-0.838
		C381.194,129.217,380.833,129.355,380.469,129.502"/>
	<path fill="#FFFFFF" d="M389.189,125.211l-1.766-2.083l-0.311,0.27c0.134,0.156,0.103,0.4-0.066,0.553l0.623,0.692
		c0.57,0.139,1.635,1.026,2.684,2.25c0.974,1.131,1.689,2.208,1.909,2.771c-0.208,0.186-0.414,0.378-0.611,0.573l-5.23-5.354
		l0.051-0.658c-0.366,0.01-0.731,0.03-1.104,0.056c-0.027,0.37-0.046,0.737-0.059,1.104l0.658-0.051l5.355,5.228
		c-0.195,0.201-0.387,0.406-0.573,0.613c-0.562-0.22-1.639-0.935-2.771-1.908c-1.224-1.047-2.111-2.111-2.25-2.683l-0.691-0.623
		c-0.154,0.168-0.398,0.199-0.554,0.067l-0.27,0.31l2.081,1.765l-0.067,0.083l4.116,3.457l0.238,0.2l0.088,0.073
		c0.707-0.843,1.489-1.626,2.332-2.332l-0.073-0.089l-0.2-0.237l-3.457-4.116L389.189,125.211z"/>
	<path fill="#FFFFFF" d="M386.527,122.29c-0.083,0.383-0.155,0.764-0.218,1.143c0.215-0.341,0.438-0.682,0.672-1.019l-0.919-1.09
		L386.527,122.29z"/>
	<path fill="#FFFFFF" d="M383.373,125.442l-0.966-0.464l1.091,0.917c0.337-0.231,0.676-0.455,1.02-0.669
		C384.138,125.288,383.756,125.36,383.373,125.442"/>
	<path fill="#FFFFFF" d="M392.704,122.725l-1.379-2.357l-0.354,0.21c0.106,0.174,0.032,0.414-0.161,0.533l0.495,0.791
		c0.539,0.235,1.434,1.294,2.252,2.68c0.762,1.284,1.281,2.468,1.403,3.06c-0.237,0.148-0.473,0.301-0.703,0.458l-4.225-6.176
		l0.164-0.642c-0.361-0.053-0.729-0.098-1.098-0.134c-0.091,0.359-0.174,0.722-0.249,1.078l0.659,0.062l4.37,6.077
		c-0.228,0.162-0.45,0.331-0.669,0.503c-0.518-0.312-1.453-1.205-2.404-2.359c-1.021-1.243-1.712-2.444-1.751-3.031l-0.573-0.735
		c-0.182,0.142-0.43,0.129-0.558-0.03l-0.317,0.26l1.747,2.1l-0.082,0.069l3.456,4.116l0.2,0.236l0.073,0.089
		c0.843-0.707,1.748-1.341,2.698-1.892l-0.058-0.1l-0.154-0.268l-2.693-4.654L392.704,122.725z"/>
	<path fill="#FFFFFF" d="M390.587,119.384c-0.145,0.366-0.286,0.726-0.414,1.089c0.271-0.299,0.552-0.596,0.839-0.886l-0.714-1.235
		L390.587,119.384z"/>
	<path fill="#FFFFFF" d="M386.934,121.945l-0.872-0.622l0.919,1.091c0.369-0.17,0.742-0.331,1.117-0.484
		C387.712,121.927,387.325,121.934,386.934,121.945"/>
	<path fill="#FFFFFF" d="M396.595,120.888l-0.945-2.563l-0.384,0.146c0.071,0.189-0.042,0.412-0.251,0.496l0.346,0.865
		c0.491,0.326,1.188,1.525,1.754,3.032c0.526,1.398,0.83,2.653,0.845,3.258c-0.259,0.105-0.517,0.212-0.769,0.329l-3.088-6.819
		l0.275-0.602c-0.349-0.117-0.702-0.222-1.059-0.323c-0.151,0.338-0.296,0.677-0.431,1.019l0.637,0.176l3.25,6.742
		c-0.252,0.12-0.502,0.25-0.746,0.38c-0.455-0.399-1.226-1.44-1.958-2.74c-0.792-1.4-1.266-2.706-1.201-3.29l-0.438-0.821
		c-0.199,0.106-0.442,0.052-0.544-0.125l-0.356,0.2l1.357,2.368l-0.093,0.055l2.691,4.654l0.155,0.268l0.057,0.1
		c0.95-0.551,1.95-1.017,2.981-1.392l-0.041-0.11l-0.104-0.289l-1.839-5.052L396.595,120.888z"/>
	<path fill="#FFFFFF" d="M395.094,117.229c-0.208,0.331-0.408,0.666-0.596,1c0.317-0.248,0.646-0.491,0.979-0.727l-0.487-1.34
		L395.094,117.229z"/>
	<path fill="#FFFFFF" d="M391.047,119.119l-0.75-0.766l0.715,1.235c0.395-0.105,0.79-0.201,1.187-0.284
		C391.819,119.233,391.436,119.171,391.047,119.119"/>
	<path fill="#FFFFFF" d="M400.749,119.757l-0.481-2.688l-0.403,0.076c0.039,0.202-0.113,0.397-0.338,0.445l0.192,0.912
		c0.428,0.407,0.902,1.708,1.194,3.293c0.276,1.465,0.354,2.757,0.264,3.354c-0.271,0.057-0.545,0.121-0.813,0.188l-1.848-7.252
		c0.122-0.181,0.249-0.363,0.373-0.544c-0.319-0.173-0.647-0.341-0.984-0.502c-0.209,0.305-0.406,0.615-0.603,0.926l0.6,0.287
		l2.018,7.206c-0.269,0.074-0.535,0.154-0.8,0.242c-0.377-0.472-0.951-1.629-1.447-3.038c-0.536-1.519-0.773-2.885-0.608-3.449
		l-0.285-0.887c-0.218,0.073-0.448-0.025-0.514-0.217l-0.388,0.137l0.922,2.566l-0.102,0.037l1.84,5.053l0.104,0.289l0.04,0.11
		c1.032-0.375,2.096-0.658,3.176-0.847l-0.021-0.116l-0.054-0.303l-0.927-5.297L400.749,119.757z"/>
	<path fill="#FFFFFF" d="M399.911,115.892c-0.265,0.289-0.518,0.584-0.763,0.88c0.358-0.189,0.721-0.371,1.093-0.546l-0.246-1.403
		L399.911,115.892z"/>
	<path fill="#FFFFFF" d="M395.594,117.045l-0.604-0.883l0.487,1.34c0.408-0.035,0.815-0.059,1.221-0.074
		C396.334,117.292,395.969,117.167,395.594,117.045"/>
	<path fill="#FFFFFF" d="M405.037,119.365l-0.011-2.729l-0.411,0.006c0.003,0.204-0.181,0.372-0.407,0.381l0.031,0.932
		c0.349,0.472,0.592,1.837,0.608,3.447c0.015,1.491-0.131,2.778-0.324,3.35c-0.281,0.008-0.56,0.023-0.84,0.044l-0.556-7.464
		l0.462-0.469c-0.288-0.227-0.581-0.449-0.881-0.667c-0.26,0.266-0.511,0.535-0.756,0.808l0.54,0.384l0.731,7.448
		c-0.279,0.028-0.557,0.062-0.835,0.101c-0.288-0.531-0.652-1.771-0.892-3.246c-0.262-1.587-0.26-2.973,0.003-3.5l-0.129-0.923
		c-0.227,0.031-0.436-0.103-0.468-0.305l-0.404,0.066l0.459,2.69l-0.105,0.018l0.928,5.298l0.055,0.302l0.02,0.116
		c1.083-0.19,2.182-0.285,3.287-0.285v-0.115v-0.309v-5.378L405.037,119.365L405.037,119.365z"/>
	<path fill="#FFFFFF" d="M404.878,115.417c-0.308,0.239-0.609,0.485-0.899,0.734c0.385-0.124,0.771-0.24,1.165-0.348v-1.426
		L404.878,115.417z"/>
	<path fill="#FFFFFF" d="M400.438,115.8l-0.441-0.977l0.246,1.403c0.408,0.039,0.811,0.086,1.211,0.142
		C401.121,116.171,400.781,115.984,400.438,115.8"/>
	<path fill="#FFFFFF" d="M409.327,119.72l0.456-2.689l-0.403-0.067c-0.031,0.202-0.241,0.335-0.467,0.304l-0.13,0.924
		c0.263,0.527,0.269,1.914,0.007,3.5c-0.243,1.473-0.604,2.713-0.896,3.246c-0.274-0.039-0.552-0.072-0.832-0.102l0.731-7.448
		l0.538-0.383c-0.244-0.272-0.496-0.542-0.754-0.808c-0.301,0.218-0.593,0.44-0.879,0.667l0.46,0.471l-0.556,7.463
		c-0.278-0.021-0.559-0.035-0.838-0.044c-0.195-0.573-0.342-1.857-0.325-3.35c0.017-1.61,0.26-2.976,0.607-3.448l0.031-0.932
		c-0.229-0.009-0.41-0.176-0.407-0.38l-0.409-0.007l-0.012,2.729h-0.108v5.378v0.309v0.116c1.105,0,2.205,0.095,3.287,0.285
		l0.021-0.116l0.054-0.303l0.927-5.297L409.327,119.72z"/>
	<path fill="#FFFFFF" d="M409.852,115.8c-0.347,0.184-0.685,0.371-1.015,0.568c0.399-0.056,0.804-0.104,1.21-0.142l0.245-1.403
		L409.852,115.8z"/>
	<path fill="#FFFFFF" d="M405.41,115.417l-0.268-1.04v1.426c0.396,0.108,0.784,0.224,1.166,0.348
		C406.018,115.903,405.718,115.657,405.41,115.417"/>
	<path fill="#FFFFFF" d="M413.491,120.812l0.921-2.566l-0.388-0.137c-0.065,0.192-0.296,0.29-0.513,0.217l-0.288,0.887
		c0.166,0.564-0.07,1.931-0.606,3.449c-0.496,1.409-1.069,2.566-1.446,3.038c-0.266-0.088-0.532-0.168-0.801-0.242l2.017-7.206
		l0.6-0.287c-0.193-0.309-0.394-0.621-0.604-0.926c-0.336,0.162-0.663,0.329-0.983,0.502c0.128,0.179,0.248,0.363,0.373,0.544
		l-1.848,7.252c-0.271-0.067-0.539-0.131-0.81-0.188c-0.095-0.597-0.017-1.889,0.258-3.354c0.293-1.585,0.77-2.886,1.196-3.293
		l0.191-0.912c-0.224-0.047-0.375-0.244-0.334-0.446l-0.406-0.076l-0.479,2.688l-0.108-0.02l-0.927,5.297l-0.054,0.303l-0.021,0.116
		c1.084,0.189,2.146,0.472,3.175,0.847l0.04-0.11l0.105-0.289l1.839-5.053L413.491,120.812z"/>
	<path fill="#FFFFFF" d="M414.693,117.045c-0.372,0.122-0.74,0.247-1.104,0.382c0.406,0.015,0.812,0.039,1.22,0.074l0.488-1.34
		L414.693,117.045z"/>
	<path fill="#FFFFFF" d="M410.375,115.892l-0.083-1.068l-0.245,1.403c0.369,0.175,0.732,0.357,1.093,0.546
		C410.895,116.477,410.64,116.181,410.375,115.892"/>
	<path fill="#FFFFFF" d="M417.397,122.617l1.356-2.369l-0.354-0.199c-0.103,0.176-0.343,0.23-0.544,0.125l-0.439,0.821
		c0.066,0.584-0.407,1.887-1.201,3.29c-0.733,1.299-1.5,2.34-1.956,2.74c-0.243-0.132-0.494-0.259-0.742-0.382l3.246-6.741
		l0.64-0.176c-0.139-0.342-0.279-0.68-0.434-1.019c-0.357,0.101-0.711,0.206-1.061,0.324l0.274,0.6l-3.083,6.819
		c-0.257-0.115-0.513-0.223-0.771-0.328c0.015-0.605,0.317-1.86,0.845-3.259c0.564-1.505,1.262-2.705,1.752-3.031l0.352-0.865
		c-0.214-0.085-0.327-0.306-0.254-0.496l-0.386-0.146l-0.942,2.562l-0.104-0.039l-1.838,5.052l-0.104,0.289l-0.041,0.11
		c1.031,0.375,2.03,0.839,2.979,1.392l0.06-0.102l0.154-0.267l2.691-4.654L417.397,122.617z"/>
	<path fill="#FFFFFF" d="M419.24,119.119c-0.388,0.053-0.771,0.115-1.15,0.186c0.396,0.083,0.793,0.179,1.187,0.284l0.717-1.235
		L419.24,119.119z"/>
	<path fill="#FFFFFF" d="M415.194,117.229l0.104-1.068l-0.488,1.34c0.335,0.236,0.662,0.479,0.981,0.727
		C415.601,117.895,415.402,117.561,415.194,117.229"/>
	<path fill="#FFFFFF" d="M420.933,125.075l1.747-2.098l-0.312-0.262c-0.133,0.16-0.382,0.172-0.559,0.03l-0.576,0.734
		c-0.037,0.587-0.728,1.788-1.751,3.032c-0.947,1.154-1.887,2.046-2.401,2.358c-0.218-0.172-0.443-0.341-0.67-0.504l4.37-6.075
		l0.655-0.063c-0.071-0.356-0.153-0.719-0.246-1.077c-0.369,0.036-0.737,0.081-1.097,0.133l0.164,0.642l-4.226,6.176
		c-0.231-0.158-0.462-0.309-0.7-0.458c0.12-0.591,0.636-1.776,1.397-3.059c0.82-1.388,1.716-2.446,2.256-2.681l0.492-0.791
		c-0.192-0.12-0.267-0.361-0.162-0.534l-0.352-0.21l-1.378,2.357l-0.095-0.053l-2.692,4.654l-0.154,0.268l-0.059,0.1
		c0.951,0.55,1.855,1.185,2.699,1.894l0.074-0.089l0.2-0.237l3.456-4.116L420.933,125.075z"/>
	<path fill="#FFFFFF" d="M423.354,121.945c-0.392-0.012-0.776-0.018-1.161-0.015c0.37,0.153,0.746,0.314,1.115,0.484l0.919-1.091
		L423.354,121.945z"/>
	<path fill="#FFFFFF" d="M419.701,119.384l0.291-1.032l-0.717,1.235c0.289,0.29,0.566,0.586,0.84,0.886
		C419.985,120.11,419.849,119.75,419.701,119.384"/>
	<path fill="#FFFFFF" d="M423.992,128.105l2.081-1.765l-0.268-0.311c-0.156,0.133-0.399,0.102-0.555-0.067l-0.69,0.623
		c-0.14,0.571-1.027,1.636-2.25,2.683c-1.134,0.974-2.211,1.688-2.772,1.909c-0.187-0.208-0.378-0.413-0.573-0.614l5.354-5.228
		l0.657,0.049c-0.012-0.365-0.028-0.732-0.058-1.103c-0.372-0.026-0.739-0.046-1.103-0.057l0.051,0.658l-5.229,5.354
		c-0.201-0.195-0.403-0.386-0.613-0.573c0.222-0.563,0.935-1.64,1.908-2.772c1.05-1.223,2.112-2.111,2.684-2.25l0.624-0.691
		c-0.169-0.154-0.202-0.398-0.067-0.554l-0.311-0.27l-1.766,2.083l-0.082-0.067l-3.456,4.116l-0.2,0.236l-0.074,0.089
		c0.843,0.708,1.627,1.49,2.334,2.333l0.089-0.073l0.236-0.2l4.115-3.458L423.992,128.105z"/>
	<path fill="#FFFFFF" d="M426.913,125.442c-0.38-0.083-0.761-0.155-1.142-0.216c0.341,0.214,0.68,0.438,1.02,0.669l1.09-0.917
		L426.913,125.442z"/>
	<path fill="#FFFFFF" d="M423.762,122.29l0.465-0.966l-0.919,1.09c0.234,0.336,0.456,0.677,0.67,1.019
		C423.916,123.053,423.844,122.672,423.762,122.29"/>
	<path fill="#FFFFFF" d="M426.479,131.619l2.356-1.379l-0.208-0.351c-0.176,0.103-0.415,0.031-0.535-0.163l-0.79,0.495
		c-0.236,0.538-1.293,1.433-2.68,2.254c-1.283,0.762-2.469,1.28-3.062,1.398c-0.147-0.236-0.301-0.471-0.459-0.701l6.179-4.225
		l0.639,0.165c0.054-0.362,0.1-0.729,0.136-1.098c-0.359-0.09-0.721-0.172-1.079-0.247l-0.062,0.656l-6.074,4.371
		c-0.163-0.227-0.334-0.451-0.505-0.671c0.312-0.517,1.205-1.453,2.356-2.4c1.245-1.022,2.445-1.714,3.031-1.752l0.735-0.575
		c-0.145-0.179-0.128-0.427,0.028-0.556l-0.262-0.317l-2.096,1.748l-0.069-0.083l-4.115,3.458l-0.236,0.2l-0.089,0.072
		c0.707,0.844,1.341,1.749,1.893,2.699l0.1-0.056l0.268-0.156l4.655-2.692L426.479,131.619z"/>
	<path fill="#FFFFFF" d="M429.819,129.502c-0.363-0.147-0.728-0.285-1.089-0.413c0.3,0.271,0.596,0.55,0.888,0.838l1.23-0.717
		L429.819,129.502z"/>
	<path fill="#FFFFFF" d="M427.257,125.849l0.624-0.872l-1.092,0.918c0.171,0.371,0.333,0.743,0.485,1.116
		C427.275,126.628,427.27,126.241,427.257,125.849"/>
	<path fill="#FFFFFF" d="M428.318,135.51l2.561-0.944l-0.146-0.384c-0.188,0.073-0.413-0.042-0.494-0.253l-0.867,0.349
		c-0.324,0.49-1.524,1.186-3.029,1.753c-1.396,0.525-2.656,0.832-3.26,0.845c-0.104-0.259-0.213-0.515-0.33-0.769l6.819-3.086
		l0.603,0.275c0.117-0.35,0.225-0.702,0.323-1.06c-0.34-0.151-0.679-0.295-1.021-0.432l-0.173,0.637l-6.743,3.249
		c-0.122-0.251-0.247-0.5-0.383-0.745c0.401-0.455,1.444-1.222,2.743-1.956c1.4-0.793,2.705-1.265,3.288-1.201l0.822-0.438
		c-0.106-0.203-0.055-0.444,0.125-0.544l-0.202-0.357l-2.368,1.358l-0.052-0.095l-4.655,2.692l-0.268,0.156l-0.1,0.056
		c0.55,0.952,1.016,1.951,1.392,2.981l0.108-0.039l0.292-0.106l5.051-1.839L428.318,135.51z"/>
	<path fill="#FFFFFF" d="M431.977,134.01c-0.333-0.208-0.668-0.408-1-0.598c0.246,0.319,0.488,0.647,0.726,0.98l1.339-0.487
		L431.977,134.01z"/>
	<path fill="#FFFFFF" d="M430.087,129.964l0.763-0.753l-1.23,0.717c0.1,0.393,0.197,0.79,0.282,1.187
		C429.97,130.735,430.031,130.352,430.087,129.964"/>
	<path fill="#FFFFFF" d="M429.447,139.664l2.688-0.482l-0.077-0.404c-0.197,0.039-0.397-0.112-0.445-0.337l-0.91,0.194
		c-0.408,0.426-1.71,0.901-3.292,1.195c-1.468,0.273-2.76,0.353-3.358,0.262c-0.053-0.272-0.114-0.546-0.186-0.815l7.254-1.845
		c0.181,0.122,0.363,0.247,0.543,0.375c0.175-0.323,0.343-0.651,0.502-0.986c-0.305-0.211-0.615-0.412-0.925-0.604l-0.285,0.598
		l-7.207,2.018c-0.075-0.269-0.158-0.535-0.242-0.8c0.472-0.375,1.629-0.953,3.035-1.447c1.52-0.535,2.887-0.774,3.451-0.608
		l0.888-0.286c-0.073-0.217,0.024-0.447,0.217-0.514l-0.139-0.388l-2.565,0.922l-0.036-0.102l-5.052,1.84l-0.292,0.106l-0.108,0.039
		c0.375,1.032,0.661,2.094,0.851,3.175l0.112-0.021l0.305-0.052l5.295-0.928L429.447,139.664z"/>
	<path fill="#FFFFFF" d="M433.311,138.827c-0.288-0.263-0.583-0.517-0.881-0.763c0.19,0.359,0.371,0.723,0.546,1.092l1.403-0.247
		L433.311,138.827z"/>
	<path fill="#FFFFFF" d="M432.158,134.51l0.882-0.604l-1.339,0.486c0.035,0.408,0.059,0.816,0.071,1.22
		C431.912,135.251,432.039,134.883,432.158,134.51"/>
	<path fill="#FFFFFF" d="M429.835,143.952l2.731-0.012l-0.006-0.41c-0.2,0.003-0.374-0.18-0.38-0.408l-0.932,0.032
		c-0.475,0.348-1.84,0.59-3.449,0.607c-1.492,0.016-2.778-0.13-3.351-0.325c-0.007-0.279-0.023-0.559-0.045-0.838l7.466-0.555
		l0.469,0.464c0.228-0.287,0.45-0.582,0.668-0.883c-0.266-0.258-0.535-0.51-0.809-0.754l-0.384,0.536l-7.448,0.732
		c-0.031-0.278-0.06-0.554-0.103-0.831c0.531-0.291,1.771-0.653,3.246-0.895c1.587-0.262,2.975-0.259,3.502,0.005l0.923-0.129
		c-0.032-0.227,0.105-0.434,0.307-0.468l-0.067-0.404l-2.688,0.46l-0.021-0.107l-5.295,0.929l-0.305,0.051l-0.112,0.021
		c0.188,1.083,0.282,2.181,0.285,3.287h0.114h0.309h5.377L429.835,143.952z"/>
	<path fill="#FFFFFF" d="M433.786,143.793c-0.24-0.309-0.483-0.608-0.733-0.901c0.124,0.385,0.241,0.774,0.349,1.166h1.425
		L433.786,143.793z"/>
	<path fill="#FFFFFF" d="M433.402,139.351l0.977-0.44l-1.403,0.247c-0.035,0.406-0.083,0.81-0.143,1.211
		C433.03,140.036,433.218,139.696,433.402,139.351"/>
</g>
<g>
	<g>
		<path fill="#4B3087" d="M325.482,35.669c-4.622,1.05-8.364,3.89-11.227,8.524c-3.862,6.256-5.786,13.966-5.773,23.134
			c8.009-2.861,14.879-2.524,20.606,1.013c4.822,2.978,7.828,7.51,9.012,13.597c1.188,6.086,0.177,11.729-3.03,16.922
			c-1.258,2.033-3.012,3.964-5.269,5.794c-2.257,1.829-3.746,2.521-4.469,2.077c-0.18-0.215-0.201-0.438-0.062-0.662
			c0.117-0.188,0.417-0.419,0.9-0.692c2.776-1.508,4.895-3.45,6.359-5.821c2.648-4.29,3.072-9.107,1.274-14.455
			c-1.798-5.347-5.261-9.603-10.384-12.767c-4.409-2.721-9.324-3.569-14.744-2.545c1.055,11.946,7.001,26.337,17.837,43.176
			c6.562,10.191,10.758,18.402,12.584,24.63c1.828,6.229,2.341,13.701,1.538,22.416c-1.018,10.248-3.435,18.463-7.25,24.639
			c-3.118,5.051-6.87,8.537-11.258,10.46c-4.388,1.923-8.314,1.812-11.781-0.327c-1.922-1.188-3.226-2.783-3.91-4.793
			c-0.682-2.011-0.538-3.809,0.44-5.389c1.417-2.299,3.409-2.658,5.971-1.076c1.282,0.791,2.137,1.852,2.562,3.184
			c0.427,1.33,0.293,2.562-0.406,3.688c-1.208,1.963-2.808,2.276-4.797,0.942c-0.805-0.547-1.266-0.727-1.382-0.539
			c-0.372,0.603,0.439,1.521,2.437,2.752c3.127,1.933,6.677,2.003,10.645,0.212c3.967-1.791,7.394-5.025,10.278-9.698
			c5.096-8.25,6.66-17.616,4.697-28.091c-0.858-4.589-2.045-8.781-3.553-12.575c-1.621-4.122-5.882-13.571-12.788-28.347
			c-3.378-7.342-6.357-15.373-8.934-24.094c-2.579-8.721-3.994-15.659-4.248-20.811c-8.639,2.784-16.472,9.865-23.497,21.244
			c-9.818,15.901-12.61,33.278-8.376,52.126c3.465,15.463,9.36,25.763,17.688,30.903c4.221,2.609,8.411,3.322,12.572,2.144
			c4.164-1.178,7.674-4.083,10.535-8.718c4.676-7.574,5.873-17.646,3.59-30.217c-2.281-12.573-6.854-20.975-13.708-25.21
			c-5.463-3.372-9.929-2.252-13.396,3.362c-3.467,5.614-4.047,13.57-1.744,23.862c2.3,10.294,6.2,17.139,11.695,20.531
			c1.355,0.837,2.804,1.104,4.342,0.798c1.541-0.304,2.686-1.063,3.435-2.274c0.396-0.645,0.766-0.862,1.104-0.652
			c0.304,0.187,0.231,0.638-0.213,1.357c-1.122,1.816-2.885,2.841-5.293,3.076c-2.408,0.238-4.797-0.374-7.169-1.839
			c-5.873-3.626-9.606-10.38-11.2-20.264c-1.596-9.883-0.298-18.216,3.89-24.998c4.001-6.481,8.997-7.872,14.988-4.173
			c7.31,4.512,12.147,13.198,14.513,26.055c2.366,12.86,1.071,23.3-3.883,31.326c-3.234,5.237-7.395,8.458-12.482,9.661
			c-5.089,1.205-10.27,0.18-15.544-3.078c-10.663-6.584-16.679-18.61-18.044-36.082c-1.366-17.47,2.452-33.497,11.455-48.078
			c6.84-11.078,15.052-18.86,24.643-23.35c-0.041-9.545,1.929-17.542,5.908-23.984c3.117-5.048,7.128-8.178,12.036-9.392"/>
		<path fill="#4B3087" d="M357.126,100.485c0.365,0.363,0.795,3.31,1.291,8.842c0.437,4.51,0.068,7.356-1.105,8.541
			c-0.795,0.803-1.742,1.159-2.843,1.068c-1.102-0.089-2.104-0.583-3.01-1.479c-0.94-0.931-1.682-2.219-2.226-3.862
			c0.712,4.155,1.036,7.118,0.976,8.882c-0.062,1.769-0.523,3.088-1.387,3.958c-0.913,0.923-2.076,1.305-3.489,1.147
			c-1.412-0.158-2.72-0.833-3.921-2.022c-3.34-3.312-3.962-8.602-1.865-15.873c0.904-3.208,1.985-5.448,3.245-6.719
			c1.069-1.079,2.125-1.102,3.171-0.066c0.295,0.293,0.618,0.751,0.968,1.372l-1.214-3.84c0.641-0.401,1.158-0.803,1.554-1.203
			c0.467-0.47,1.009-1.139,1.63-2.008l3.069,12.2c1.092,4.259,2.067,6.81,2.919,7.654c0.818,0.811,1.564,0.877,2.238,0.196
			c0.691-0.697,0.998-2.603,0.923-5.716c-0.074-3.115-0.495-6.622-1.259-10.524c-0.071-0.275-0.062-0.459,0.024-0.546
			C356.917,100.382,357.022,100.383,357.126,100.485z M345.678,103.396c-0.853-0.844-1.668-0.875-2.443-0.092
			c-1.587,1.601-2.104,5.254-1.549,10.961s1.798,9.518,3.729,11.432c1.132,1.121,2.197,1.177,3.198,0.167
			c1.188-1.202,1.258-5.256,0.205-12.165C347.941,108.04,346.897,104.604,345.678,103.396z"/>
		<path fill="#4B3087" d="M363.292,86.997l0.08,0.621l-3.929,2.783l1.409,16.165c0.158,1.961,0.527,3.351,1.107,4.17
			c0.638,0.899,1.428,1.015,2.367,0.35c1.821-1.292,2.646-6.642,2.473-16.054c-0.002-0.3,0.049-0.485,0.148-0.556
			c0.119-0.085,0.222-0.068,0.306,0.051c0.022,0.075,0.037,0.306,0.042,0.693l-0.036,2.687c-0.059,7.893-1.04,12.512-2.94,13.861
			c-0.941,0.665-1.969,0.881-3.079,0.649c-1.114-0.232-2.031-0.859-2.754-1.879c-0.85-1.201-1.384-3.073-1.599-5.624l-0.954-12.026
			l-3.06,2.167l-0.02-0.662l2.999-2.125l-0.613-8.305c0.714-0.265,1.34-0.588,1.879-0.971c0.56-0.397,1.082-0.887,1.569-1.472
			l0.674,8.261L363.292,86.997z"/>
		<path fill="#4B3087" d="M386.459,86.184c0.084,0.179-0.191,1.306-0.828,3.383c-0.789,2.669-1.924,4.358-3.408,5.07
			c-1.682,0.807-2.988,0.238-3.922-1.705c-0.296-0.619-0.54-1.466-0.73-2.544c-0.81,1.884-1.364,3.63-1.664,5.242
			c-0.3,1.612-0.642,4.767-1.025,9.461c-1.214,0.473-1.92,0.757-2.119,0.852c-0.088,0.043-0.739,0.41-1.957,1.103l1.206-11.422
			c0.599-5.721,0.642-9.113,0.133-10.174c-0.296-0.618-0.7-0.807-1.21-0.562c-1.238,0.596-2.344,4.054-3.313,10.375
			c-0.051,0.406-0.154,0.645-0.311,0.719c-0.099,0.021-0.173-0.023-0.228-0.134c-0.031-0.121-0.03-0.232,0.006-0.33l0.198-1.116
			c1.229-6.174,2.454-9.551,3.671-10.136c1.77-0.849,3.202-0.137,4.293,2.14c0.816,1.701,0.99,4.389,0.525,8.063
			c0.513-1.876,1.087-3.485,1.722-4.822c-0.104-2.368,0.151-4.516,0.763-6.439c0.612-1.926,1.416-3.125,2.409-3.604
			c0.687-0.327,1.171-0.195,1.457,0.403c0.509,1.061-0.301,3.311-2.428,6.75c-0.338,0.543-0.851,1.345-1.535,2.408l-0.24,0.522
			c0.18,1.166,0.427,2.079,0.744,2.741c0.891,1.856,2.033,2.45,3.428,1.78c1.728-0.828,2.922-3.159,3.587-6.997
			c0.208-0.699,0.369-1.076,0.48-1.128C386.299,86.018,386.396,86.053,386.459,86.184z"/>
		<path fill="#4B3087" d="M397.765,84.98c-0.005,0.077-0.069,0.299-0.198,0.664l-0.949,2.514
			c-2.747,7.399-5.291,11.421-7.632,12.064c-1.111,0.307-2.148,0.167-3.111-0.421c-0.962-0.585-1.607-1.468-1.932-2.649
			c-0.376-1.37-0.136-3.674,0.729-6.91l2.943-10.913c0.777-0.035,1.379-0.113,1.805-0.229c0.637-0.176,1.512-0.505,2.624-0.989
			l-4.405,15.432c-0.632,2.232-0.803,3.867-0.519,4.907c0.294,1.063,0.996,1.441,2.106,1.136c2.105-0.58,4.776-5.349,8.01-14.309
			c0.058-0.268,0.14-0.419,0.259-0.451C397.636,84.787,397.727,84.838,397.765,84.98z M393.217,70.469
			c0.229,0.827,0.093,1.695-0.405,2.607c-0.498,0.914-1.162,1.483-1.987,1.711c-1.064,0.292-1.741-0.092-2.033-1.156
			c-0.216-0.781-0.056-1.631,0.478-2.553c0.533-0.921,1.204-1.493,2.008-1.713C392.289,69.085,392.938,69.454,393.217,70.469z"/>
		<path fill="#4B3087" d="M415.465,83.908c0.034,0.315-1.467,2.549-4.496,6.701c-3.316,4.501-6.293,6.892-8.925,7.175
			c-1.706,0.183-3.24-0.313-4.599-1.484c-1.36-1.173-2.136-2.661-2.329-4.463c-0.219-2.046,0.382-4.256,1.805-6.625
			c1.419-2.371,3.445-4.498,6.079-6.383c2.217-1.617,4.067-2.506,5.554-2.666c1.804-0.192,2.821,0.783,3.054,2.926
			c0.179,1.681-0.21,3.423-1.161,5.226c-0.949,1.803-1.988,2.762-3.11,2.883c-1.095,0.118-1.703-0.372-1.819-1.468
			c-0.137-1.292,0.854-2.605,2.978-3.942c1.643-1.038,2.383-2.252,2.232-3.641c-0.115-1.096-0.771-1.581-1.964-1.453
			c-2.023,0.218-4.293,2.494-6.812,6.83c-2.514,4.336-3.628,7.868-3.335,10.596c0.244,2.292,1.441,3.321,3.589,3.091
			c3.365-0.361,7.521-4.645,12.458-12.851c0.277-0.423,0.489-0.644,0.634-0.659C415.397,83.717,415.453,83.785,415.465,83.908z"/>
		<path fill="#4B3087" d="M427.265,85.497c-0.026,0.073-0.157,0.264-0.394,0.573l-1.673,2.103c-4.885,6.201-8.537,9.25-10.963,9.145
			c-1.153-0.049-2.096-0.5-2.835-1.352c-0.736-0.855-1.077-1.892-1.024-3.116c0.061-1.421,0.998-3.539,2.811-6.354l6.146-9.486
			c0.752,0.205,1.35,0.315,1.789,0.335c0.662,0.028,1.594-0.019,2.802-0.137l-8.922,13.339c-1.286,1.931-1.951,3.435-1.997,4.513
			c-0.049,1.102,0.506,1.676,1.658,1.726c2.177,0.093,6.184-3.628,12.008-11.165c0.134-0.239,0.261-0.357,0.382-0.352
			C427.199,85.274,427.27,85.351,427.265,85.497z M427.383,70.291c-0.038,0.856-0.432,1.643-1.188,2.358
			c-0.755,0.716-1.561,1.056-2.417,1.019c-1.103-0.048-1.629-0.621-1.583-1.724c0.036-0.807,0.448-1.568,1.239-2.282
			c0.789-0.714,1.602-1.053,2.438-1.018C426.922,68.689,427.426,69.238,427.383,70.291z"/>
		<path fill="#4B3087" d="M452.999,90.042c-0.104,0.504-2.341,2.472-6.71,5.9c-3.542,2.823-6.13,4.067-7.764,3.728
			c-1.104-0.23-1.922-0.831-2.445-1.803c-0.523-0.972-0.656-2.083-0.397-3.329c0.271-1.296,0.943-2.621,2.026-3.972
			c-3.098,2.86-5.403,4.748-6.918,5.658c-1.519,0.911-2.875,1.244-4.071,0.996c-1.275-0.266-2.227-1.033-2.864-2.303
			c-0.637-1.271-0.784-2.734-0.44-4.389c0.958-4.607,5.054-8.011,12.295-10.213c3.179-0.99,5.649-1.304,7.4-0.941
			c1.485,0.309,2.079,1.183,1.781,2.623c-0.083,0.407-0.291,0.929-0.625,1.561l2.563-3.11c0.683,0.316,1.301,0.532,1.854,0.646
			c0.646,0.134,1.504,0.225,2.569,0.271l-8.558,9.224c-2.977,3.235-4.582,5.442-4.828,6.617c-0.23,1.128,0.12,1.789,1.054,1.983
			c0.962,0.199,2.729-0.581,5.3-2.341c2.572-1.759,5.282-4.022,8.137-6.789c0.193-0.21,0.354-0.302,0.474-0.278
			C452.973,89.811,453.031,89.898,452.999,90.042z M444.321,82.029c0.244-1.175-0.171-1.875-1.252-2.099
			c-2.207-0.458-5.555,1.099-10.036,4.673c-4.484,3.575-7.002,6.694-7.555,9.356c-0.322,1.561,0.21,2.484,1.604,2.773
			c1.656,0.344,5.093-1.809,10.311-6.457C441.664,86.458,443.974,83.708,444.321,82.029z"/>
	</g>
	<g>
		<path fill="#FFFFFF" d="M324.653,33.862c-4.618,1.048-8.357,3.886-11.217,8.516c-3.855,6.249-5.778,13.952-5.767,23.108
			c8.002-2.857,14.865-2.52,20.586,1.012c4.817,2.975,7.819,7.502,9.001,13.583c1.188,6.08,0.177,11.717-3.027,16.905
			c-1.255,2.032-3.008,3.96-5.263,5.788c-2.254,1.828-3.742,2.519-4.463,2.075c-0.18-0.215-0.201-0.437-0.062-0.661
			c0.115-0.187,0.417-0.417,0.899-0.691c2.773-1.506,4.892-3.446,6.353-5.815c2.646-4.285,3.071-9.098,1.273-14.44
			c-1.795-5.341-5.255-9.592-10.374-12.753c-4.403-2.718-9.312-3.566-14.728-2.543c1.054,11.934,6.994,26.31,17.817,43.131
			c6.557,10.181,10.747,18.385,12.572,24.605c1.825,6.223,2.338,13.686,1.536,22.392c-1.018,10.237-3.431,18.443-7.242,24.616
			c-3.115,5.041-6.863,8.525-11.246,10.445s-8.305,1.812-11.77-0.326c-1.918-1.184-3.222-2.781-3.905-4.791
			c-0.682-2.005-0.537-3.798,0.44-5.38c1.417-2.293,3.405-2.652,5.964-1.074c1.279,0.789,2.134,1.85,2.56,3.18
			c0.427,1.33,0.292,2.559-0.405,3.688c-1.208,1.957-2.805,2.271-4.791,0.938c-0.805-0.545-1.265-0.728-1.381-0.539
			c-0.373,0.604,0.439,1.519,2.435,2.75c3.124,1.93,6.668,2,10.633,0.209c3.962-1.789,7.387-5.02,10.268-9.688
			c5.09-8.24,6.653-17.595,4.692-28.06c-0.858-4.585-2.042-8.773-3.55-12.562c-1.618-4.117-5.875-13.556-12.773-28.317
			c-3.375-7.335-6.35-15.356-8.925-24.068c-2.576-8.712-3.99-15.643-4.243-20.79c-8.63,2.78-16.456,9.855-23.473,21.222
			c-9.807,15.885-12.595,33.243-8.366,52.072c3.46,15.446,9.35,25.737,17.669,30.873c4.216,2.604,8.401,3.315,12.559,2.14
			c4.159-1.176,7.666-4.08,10.523-8.709c4.67-7.565,5.867-17.629,3.587-30.186c-2.278-12.56-6.845-20.953-13.695-25.184
			c-5.457-3.369-9.918-2.25-13.381,3.359c-3.462,5.608-4.044,13.554-1.743,23.837c2.297,10.283,6.193,17.122,11.684,20.51
			c1.353,0.836,2.8,1.103,4.338,0.798c1.54-0.305,2.682-1.062,3.43-2.273c0.397-0.643,0.767-0.86,1.104-0.649
			c0.302,0.186,0.229,0.637-0.213,1.355c-1.122,1.813-2.882,2.837-5.288,3.074c-2.406,0.237-4.793-0.375-7.162-1.838
			c-5.867-3.623-9.596-10.369-11.189-20.243c-1.594-9.873-0.297-18.197,3.887-24.972c3.996-6.475,8.985-7.864,14.972-4.169
			c7.301,4.507,12.134,13.185,14.497,26.028c2.363,12.846,1.071,23.276-3.879,31.292c-3.231,5.233-7.388,8.452-12.471,9.65
			c-5.083,1.205-10.259,0.181-15.528-3.074c-10.653-6.576-16.662-18.59-18.025-36.043c-1.365-17.452,2.45-33.461,11.443-48.027
			c6.833-11.066,15.037-18.84,24.618-23.326c-0.04-9.536,1.928-17.523,5.902-23.959c3.114-5.042,7.12-8.169,12.023-9.381"/>
		<path fill="#FFFFFF" d="M356.311,98.681c0.366,0.363,0.797,3.31,1.292,8.841c0.437,4.51,0.067,7.357-1.105,8.541
			c-0.794,0.803-1.742,1.159-2.843,1.069c-1.103-0.09-2.104-0.583-3.01-1.48c-0.939-0.931-1.683-2.218-2.227-3.861
			c0.712,4.155,1.038,7.117,0.975,8.883c-0.061,1.768-0.522,3.088-1.385,3.958c-0.914,0.923-2.077,1.305-3.49,1.146
			c-1.411-0.158-2.72-0.833-3.921-2.022c-3.34-3.311-3.963-8.601-1.865-15.872c0.903-3.208,1.985-5.448,3.244-6.719
			c1.069-1.078,2.125-1.101,3.171-0.065c0.296,0.293,0.618,0.751,0.968,1.372l-1.213-3.841c0.639-0.401,1.156-0.802,1.553-1.202
			c0.466-0.471,1.008-1.139,1.628-2.01l3.07,12.201c1.092,4.258,2.066,6.811,2.919,7.653c0.818,0.811,1.563,0.877,2.237,0.197
			c0.69-0.697,0.998-2.603,0.925-5.717c-0.076-3.114-0.496-6.622-1.261-10.523c-0.07-0.276-0.062-0.459,0.024-0.546
			C356.102,98.577,356.205,98.578,356.311,98.681z M344.862,101.591c-0.854-0.844-1.667-0.876-2.444-0.092
			c-1.586,1.601-2.103,5.255-1.548,10.961c0.554,5.708,1.797,9.518,3.729,11.432c1.134,1.121,2.196,1.177,3.198,0.167
			c1.189-1.202,1.259-5.255,0.204-12.164C347.127,106.234,346.081,102.8,344.862,101.591z"/>
		<path fill="#FFFFFF" d="M362.477,85.192l0.079,0.621l-3.929,2.783l1.41,16.165c0.157,1.96,0.527,3.351,1.106,4.17
			c0.639,0.9,1.429,1.016,2.367,0.349c1.822-1.291,2.646-6.641,2.475-16.054c-0.002-0.299,0.047-0.485,0.146-0.555
			c0.119-0.085,0.221-0.067,0.308,0.051c0.021,0.075,0.037,0.308,0.042,0.695l-0.036,2.686c-0.06,7.893-1.039,12.513-2.941,13.861
			c-0.94,0.666-1.968,0.882-3.079,0.65c-1.113-0.232-2.03-0.859-2.753-1.879c-0.85-1.2-1.383-3.073-1.599-5.625l-0.954-12.026
			l-3.06,2.167l-0.02-0.662l3-2.125l-0.615-8.304c0.713-0.265,1.34-0.588,1.88-0.971c0.561-0.396,1.082-0.887,1.57-1.472
			l0.673,8.262L362.477,85.192z"/>
		<path fill="#FFFFFF" d="M385.644,84.38c0.084,0.177-0.189,1.305-0.827,3.383c-0.788,2.669-1.926,4.357-3.407,5.069
			c-1.683,0.807-2.989,0.239-3.922-1.705c-0.297-0.619-0.54-1.466-0.731-2.544c-0.809,1.883-1.363,3.63-1.664,5.241
			c-0.3,1.613-0.642,4.768-1.024,9.462c-1.215,0.473-1.92,0.757-2.12,0.852c-0.088,0.044-0.739,0.41-1.957,1.104l1.207-11.421
			c0.597-5.721,0.641-9.114,0.133-10.175c-0.297-0.618-0.701-0.806-1.21-0.562c-1.24,0.595-2.344,4.053-3.315,10.375
			c-0.05,0.407-0.152,0.646-0.308,0.719c-0.1,0.021-0.174-0.024-0.229-0.134c-0.031-0.121-0.03-0.231,0.007-0.33l0.198-1.117
			c1.23-6.174,2.453-9.551,3.67-10.136c1.771-0.849,3.203-0.137,4.293,2.14c0.817,1.702,0.992,4.389,0.526,8.064
			c0.513-1.877,1.087-3.485,1.722-4.822c-0.103-2.369,0.15-4.517,0.764-6.439c0.611-1.925,1.417-3.125,2.409-3.604
			c0.685-0.327,1.171-0.194,1.457,0.402c0.509,1.061-0.301,3.312-2.429,6.75c-0.337,0.542-0.849,1.345-1.535,2.408l-0.238,0.523
			c0.18,1.165,0.426,2.079,0.742,2.741c0.892,1.856,2.033,2.449,3.43,1.78c1.727-0.828,2.921-3.16,3.587-6.996
			c0.208-0.7,0.37-1.078,0.479-1.131C385.482,84.212,385.58,84.248,385.644,84.38z"/>
		<path fill="#FFFFFF" d="M396.949,83.174c-0.005,0.078-0.071,0.3-0.199,0.667l-0.949,2.513c-2.748,7.398-5.292,11.422-7.634,12.065
			c-1.109,0.306-2.147,0.167-3.111-0.422c-0.962-0.585-1.605-1.469-1.932-2.65c-0.376-1.37-0.135-3.673,0.729-6.91l2.943-10.912
			c0.777-0.036,1.379-0.112,1.805-0.23c0.639-0.175,1.513-0.504,2.624-0.989l-4.403,15.432c-0.633,2.232-0.805,3.869-0.52,4.907
			c0.293,1.063,0.996,1.441,2.107,1.137c2.105-0.58,4.776-5.35,8.008-14.309c0.058-0.269,0.14-0.419,0.259-0.452
			C396.819,82.982,396.911,83.033,396.949,83.174z M392.401,68.664c0.229,0.827,0.092,1.696-0.405,2.607
			c-0.5,0.913-1.161,1.483-1.987,1.711c-1.064,0.292-1.742-0.092-2.034-1.156c-0.216-0.78-0.056-1.63,0.479-2.553
			c0.534-0.921,1.203-1.493,2.006-1.713C391.474,67.279,392.124,67.648,392.401,68.664z"/>
		<path fill="#FFFFFF" d="M414.649,82.103c0.032,0.316-1.467,2.549-4.498,6.701c-3.315,4.501-6.289,6.892-8.922,7.174
			c-1.707,0.185-3.242-0.313-4.6-1.484c-1.361-1.173-2.135-2.661-2.329-4.463c-0.22-2.047,0.382-4.255,1.804-6.625
			c1.419-2.371,3.446-4.498,6.08-6.383c2.219-1.617,4.068-2.506,5.554-2.665c1.804-0.192,2.819,0.782,3.051,2.926
			c0.18,1.681-0.207,3.423-1.158,5.225c-0.951,1.804-1.988,2.763-3.111,2.883c-1.096,0.118-1.702-0.372-1.816-1.467
			c-0.142-1.292,0.852-2.604,2.973-3.941c1.645-1.039,2.385-2.253,2.236-3.641c-0.116-1.097-0.772-1.581-1.966-1.453
			c-2.021,0.218-4.293,2.494-6.812,6.83c-2.515,4.335-3.629,7.867-3.337,10.596c0.246,2.292,1.443,3.321,3.588,3.091
			c3.366-0.361,7.522-4.645,12.462-12.851c0.273-0.423,0.488-0.642,0.634-0.659C414.581,81.912,414.639,81.98,414.649,82.103z"/>
		<path fill="#FFFFFF" d="M426.448,83.693c-0.028,0.072-0.157,0.263-0.392,0.572l-1.677,2.103c-4.883,6.201-8.535,9.25-10.961,9.146
			c-1.152-0.048-2.096-0.5-2.834-1.353c-0.735-0.854-1.076-1.892-1.025-3.115c0.062-1.42,0.998-3.538,2.812-6.355l6.146-9.485
			c0.751,0.205,1.348,0.316,1.788,0.334c0.66,0.029,1.596-0.017,2.8-0.137l-8.921,13.339c-1.286,1.931-1.948,3.436-1.996,4.512
			c-0.049,1.102,0.506,1.677,1.657,1.727c2.182,0.094,6.186-3.628,12.008-11.166c0.134-0.238,0.261-0.357,0.384-0.352
			C426.386,83.469,426.454,83.545,426.448,83.693z M426.567,68.486c-0.038,0.856-0.433,1.644-1.188,2.358
			c-0.756,0.716-1.56,1.056-2.419,1.018c-1.1-0.047-1.627-0.621-1.582-1.724c0.037-0.807,0.448-1.567,1.243-2.282
			c0.788-0.713,1.6-1.053,2.434-1.017C426.106,66.884,426.612,67.433,426.567,68.486z"/>
		<path fill="#FFFFFF" d="M452.188,88.237c-0.106,0.505-2.344,2.473-6.716,5.901c-3.543,2.823-6.128,4.066-7.761,3.728
			c-1.105-0.23-1.92-0.831-2.445-1.803c-0.524-0.973-0.656-2.083-0.398-3.33c0.268-1.296,0.943-2.621,2.024-3.972
			c-3.097,2.86-5.401,4.749-6.917,5.659c-1.517,0.911-2.871,1.244-4.072,0.994c-1.271-0.263-2.228-1.031-2.862-2.302
			c-0.636-1.271-0.783-2.733-0.441-4.389c0.956-4.607,5.054-8.01,12.292-10.213c3.183-0.99,5.652-1.304,7.404-0.939
			c1.486,0.308,2.078,1.181,1.783,2.622c-0.087,0.408-0.295,0.928-0.625,1.561l2.561-3.111c0.684,0.317,1.304,0.534,1.855,0.647
			c0.646,0.135,1.505,0.226,2.57,0.271l-8.559,9.223c-2.975,3.236-4.583,5.442-4.827,6.618c-0.233,1.128,0.116,1.788,1.054,1.983
			c0.961,0.199,2.728-0.581,5.3-2.34c2.568-1.76,5.28-4.023,8.138-6.789c0.192-0.21,0.35-0.304,0.47-0.279
			C452.158,88.006,452.219,88.094,452.188,88.237z M443.505,80.224c0.244-1.174-0.17-1.875-1.25-2.099
			c-2.207-0.458-5.555,1.1-10.036,4.674c-4.482,3.573-7,6.694-7.554,9.355c-0.324,1.561,0.209,2.484,1.6,2.773
			c1.659,0.344,5.094-1.809,10.312-6.457C440.848,84.653,443.158,81.904,443.505,80.224z"/>
	</g>
</g>
<g>
	<g>
		<path fill="#4B3087" d="M453.637,165.473c0.153,0.466-0.818,1.682-2.92,3.654c-2.194,2-4.685,3.928-7.477,5.784
			c-3.864,6.202-6.76,12.53-8.697,18.989c-1.938,6.461-3.544,15.234-4.819,26.326l1.161-0.387
			c5.247-1.738,9.013-5.138,11.296-10.197c1.135-2.508,1.534-5.466,1.194-8.863c-0.039-0.536,0.064-0.848,0.314-0.93
			c0.276-0.092,0.472,0.018,0.573,0.326c1.148,3.475,0.335,7.383-2.442,11.729c-2.78,4.349-6.311,7.229-10.599,8.646
			c-0.65,0.219-1.201,0.369-1.66,0.451c-0.05,0.466-0.346,2.68-0.896,6.646c-1.25,9.189-2.636,15.93-4.156,20.224
			c-1.519,4.284-3.947,8.46-7.276,12.526c-5.319,6.479-11.499,10.892-18.535,13.224c-4.061,1.347-7.701,1.537-10.91,0.571
			c-3.21-0.967-5.286-2.86-6.219-5.682c-0.516-1.551-0.517-3.015,0.01-4.395c0.527-1.372,1.424-2.275,2.696-2.697
			c2.046-0.678,3.415,0.021,4.102,2.098c0.824,2.479,0.118,4.092-2.114,4.834c-1.612,0.533-2.802-0.192-3.561-2.177
			c-0.042-0.125-0.109-0.225-0.203-0.292c-0.525,0.172-0.543,1.008-0.048,2.49c0.81,2.45,2.727,4.094,5.739,4.938
			c3.016,0.84,6.386,0.646,10.104-0.594c7.938-2.628,13.719-8.142,17.334-16.533c1.423-3.291,2.577-7.07,3.472-11.318
			c1.396-7.108,2.803-14.233,4.217-21.379l0.313-1.549c-3.453,0.08-6.509-0.795-9.174-2.61c-2.667-1.814-4.524-4.293-5.564-7.421
			c-1.85-5.581-1.088-11.014,2.289-16.297c1.998-3.106,4.24-5.555,6.726-7.344c2.49-1.788,7.196-4.33,14.127-7.626
			c3.036-1.421,6.575-3.403,10.621-5.949c4.545-5.602,7.928-8.773,10.162-9.513C453.251,165.034,453.522,165.133,453.637,165.473z
			 M442.013,175.729c-1.929,1.228-4.564,2.838-7.893,4.837c-5.399,3.238-9.406,5.995-12.021,8.272
			c-2.619,2.279-4.826,4.904-6.63,7.876c-3.82,6.329-4.901,12.003-3.234,17.024c1.627,4.901,5.468,7.359,11.532,7.382
			C427.484,201.195,433.566,186.066,442.013,175.729z"/>
		<path fill="#4B3087" d="M459.264,197.383c0.028,0.07-0.064,0.441-0.275,1.113l-0.763,2.378
			c-2.484,7.545-5.396,11.954-8.744,13.224c-1.58,0.602-3.124,0.535-4.631-0.201c-1.506-0.729-2.583-1.953-3.235-3.668
			c-1.545-4.063-0.068-8.719,4.424-13.963c2.362-2.752,4.479-4.488,6.352-5.2c0.813-0.31,1.601-0.328,2.361-0.062
			c0.759,0.268,1.271,0.75,1.537,1.45c0.617,1.627,0.081,3.409-1.606,5.356c-1.689,1.944-4.831,4.355-9.417,7.234
			c-0.653,2.908-0.683,5.141-0.091,6.695c0.736,1.94,2.157,2.515,4.257,1.72c3.569-1.36,6.619-6.5,9.149-15.431
			c0.137-0.463,0.292-0.729,0.474-0.795C459.149,197.221,459.225,197.271,459.264,197.383z M454.02,192.19
			c-0.276-0.722-0.81-0.933-1.598-0.634c-1.196,0.455-2.454,1.882-3.782,4.282c-1.318,2.399-2.416,5.276-3.285,8.63
			c2.934-2.07,5.238-4.295,6.92-6.675C453.953,195.413,454.531,193.545,454.02,192.19z"/>
		<path fill="#4B3087" d="M477.004,171.98c0.687,2.038,0.103,5.08-1.751,9.125c-1.851,4.048-4.619,8.331-8.299,12.851l5.905-1.982
			l-0.138,0.62l-5.973,2.004l-0.984,6.403c-1.193,7.914-2.44,13.991-3.743,18.235c-1.3,4.246-3.104,8.242-5.412,12
			c-3.19,5.144-6.684,8.354-10.486,9.629c-1.695,0.566-2.622,0.607-2.789,0.113c-0.076-0.229,0.012-0.387,0.266-0.469
			c0.181-0.064,0.327-0.085,0.437-0.068c0.897-0.041,1.722-0.18,2.453-0.426c3.091-1.039,5.739-3.467,7.95-7.287
			c1.354-2.341,2.366-4.896,3.045-7.67c0.574-2.232,1.718-8.164,3.421-17.807l2.067-11.387l-3.676,1.233l0.103-0.608l3.741-1.258
			c1.266-5.948,3.062-11.333,5.396-16.153c2.336-4.816,4.461-7.55,6.383-8.195C475.95,170.54,476.645,170.905,477.004,171.98z
			 M476.568,172.05c-0.252-0.756-0.757-1.007-1.513-0.754c-1.738,0.585-3.439,3.37-5.104,8.36c-0.813,2.515-1.799,7.021-2.956,13.52
			c2.881-3.867,5.319-7.997,7.307-12.382C476.299,176.406,477.056,173.492,476.568,172.05z"/>
		<path fill="#4B3087" d="M488.936,166.935c0.771,2.009,0.31,5.072-1.373,9.191c-1.685,4.12-4.271,8.514-7.764,13.181l5.814-2.223
			l-0.109,0.623l-5.886,2.249l-0.72,6.438c-0.864,7.955-1.862,14.08-2.991,18.375c-1.127,4.295-2.762,8.36-4.916,12.209
			c-2.978,5.27-6.335,8.619-10.084,10.053c-1.666,0.637-2.597,0.713-2.781,0.23c-0.085-0.229-0.003-0.386,0.243-0.484
			c0.181-0.069,0.325-0.096,0.433-0.084c0.903-0.075,1.714-0.25,2.438-0.525c3.047-1.163,5.593-3.698,7.645-7.607
			c1.258-2.394,2.164-4.99,2.726-7.789c0.486-2.252,1.382-8.228,2.692-17.93l1.592-11.462l-3.617,1.382l0.077-0.612l3.688-1.407
			c1.019-5.997,2.595-11.451,4.728-16.362c2.133-4.909,4.145-7.728,6.043-8.452C487.824,165.541,488.533,165.877,488.936,166.935z
			 M488.505,167.023c-0.282-0.742-0.797-0.974-1.54-0.689c-1.716,0.654-3.302,3.509-4.76,8.561
			c-0.706,2.547-1.503,7.09-2.396,13.634c2.719-3.985,4.988-8.21,6.796-12.676C488.417,171.39,489.048,168.443,488.505,167.023z"/>
	</g>
	<g>
		<path fill="#FFFFFF" d="M453.39,163.679c0.154,0.464-0.817,1.681-2.919,3.653c-2.191,1.999-4.682,3.928-7.476,5.783
			c-3.866,6.201-6.762,12.531-8.696,18.989c-1.941,6.461-3.544,15.236-4.821,26.327l1.161-0.383
			c5.248-1.744,9.014-5.142,11.297-10.2c1.133-2.509,1.534-5.466,1.195-8.863c-0.04-0.537,0.063-0.848,0.313-0.932
			c0.277-0.09,0.471,0.018,0.574,0.326c1.149,3.477,0.332,7.385-2.445,11.73c-2.779,4.346-6.31,7.229-10.595,8.646
			c-0.651,0.217-1.203,0.368-1.662,0.448c-0.051,0.467-0.346,2.682-0.896,6.646c-1.25,9.191-2.637,15.934-4.155,20.225
			c-1.52,4.289-3.946,8.464-7.28,12.527c-5.318,6.481-11.498,10.891-18.532,13.227c-4.062,1.347-7.7,1.535-10.911,0.57
			c-3.213-0.968-5.285-2.86-6.219-5.683c-0.515-1.553-0.513-3.01,0.01-4.396c0.529-1.377,1.424-2.277,2.697-2.697
			c2.046-0.678,3.414,0.021,4.102,2.1c0.823,2.479,0.117,4.088-2.115,4.83c-1.61,0.534-2.801-0.189-3.561-2.174
			c-0.041-0.125-0.105-0.225-0.203-0.297c-0.523,0.173-0.545,1.005-0.047,2.496c0.809,2.447,2.727,4.091,5.739,4.935
			c3.017,0.843,6.384,0.646,10.105-0.588c7.933-2.63,13.718-8.144,17.334-16.537c1.422-3.294,2.575-7.069,3.468-11.319
			c1.396-7.107,2.805-14.229,4.219-21.379l0.314-1.547c-3.452,0.077-6.511-0.794-9.177-2.609c-2.667-1.817-4.521-4.291-5.562-7.424
			c-1.849-5.582-1.089-11.015,2.287-16.299c1.998-3.104,4.242-5.554,6.729-7.342c2.489-1.787,7.196-4.33,14.124-7.625
			c3.038-1.421,6.575-3.403,10.622-5.949c4.544-5.603,7.929-8.771,10.163-9.514C453.006,163.239,453.277,163.338,453.39,163.679z
			 M441.77,173.935c-1.933,1.227-4.565,2.837-7.896,4.835c-5.396,3.238-9.402,5.994-12.019,8.273
			c-2.619,2.279-4.828,4.903-6.63,7.876c-3.823,6.327-4.901,12.003-3.234,17.024c1.627,4.898,5.47,7.355,11.532,7.381
			C427.241,199.4,433.32,184.27,441.77,173.935z"/>
		<path fill="#FFFFFF" d="M459.021,195.59c0.023,0.068-0.069,0.438-0.278,1.109l-0.763,2.377
			c-2.486,7.548-5.399,11.955-8.743,13.225c-1.582,0.602-3.125,0.536-4.629-0.197c-1.51-0.731-2.589-1.957-3.237-3.67
			c-1.544-4.064-0.069-8.719,4.422-13.962c2.363-2.756,4.479-4.49,6.356-5.202c0.81-0.31,1.598-0.33,2.355-0.063
			c0.761,0.267,1.272,0.751,1.538,1.449c0.615,1.626,0.081,3.41-1.608,5.358c-1.688,1.944-4.827,4.356-9.414,7.235
			c-0.652,2.909-0.686,5.141-0.094,6.695c0.736,1.94,2.158,2.515,4.258,1.717c3.571-1.355,6.619-6.497,9.15-15.428
			c0.137-0.463,0.292-0.729,0.473-0.799C458.905,195.426,458.979,195.475,459.021,195.59z M453.773,190.396
			c-0.274-0.722-0.809-0.933-1.596-0.635c-1.196,0.456-2.455,1.882-3.781,4.284c-1.321,2.398-2.415,5.277-3.287,8.628
			c2.935-2.069,5.237-4.295,6.92-6.675C453.707,193.617,454.285,191.749,453.773,190.396z"/>
		<path fill="#FFFFFF" d="M476.763,170.184c0.681,2.039,0.1,5.08-1.758,9.127c-1.85,4.046-4.617,8.329-8.297,12.85l5.904-1.982
			l-0.133,0.62l-5.976,2.005l-0.984,6.403c-1.193,7.914-2.44,13.99-3.739,18.234c-1.304,4.246-3.107,8.242-5.415,12
			c-3.188,5.146-6.686,8.355-10.486,9.629c-1.693,0.568-2.625,0.606-2.788,0.113c-0.078-0.229,0.011-0.386,0.261-0.47
			c0.183-0.062,0.329-0.084,0.438-0.067c0.899-0.041,1.723-0.179,2.454-0.425c3.094-1.036,5.741-3.471,7.95-7.288
			c1.356-2.342,2.369-4.895,3.045-7.669c0.575-2.229,1.719-8.163,3.426-17.806l2.063-11.389l-3.676,1.232l0.104-0.605l3.741-1.259
			c1.264-5.949,3.062-11.333,5.396-16.153c2.332-4.817,4.458-7.551,6.379-8.195C475.702,168.746,476.399,169.109,476.763,170.184z
			 M476.324,170.253c-0.253-0.755-0.757-1.006-1.515-0.751c-1.737,0.585-3.441,3.371-5.104,8.359
			c-0.811,2.515-1.794,7.021-2.952,13.52c2.88-3.868,5.317-7.997,7.307-12.383C476.054,174.61,476.811,171.697,476.324,170.253z"/>
		<path fill="#FFFFFF" d="M488.693,165.14c0.769,2.009,0.306,5.071-1.377,9.191c-1.686,4.12-4.271,8.513-7.761,13.181l5.815-2.223
			l-0.113,0.624l-5.884,2.248l-0.723,6.438c-0.864,7.955-1.857,14.081-2.988,18.375c-1.126,4.292-2.763,8.362-4.918,12.209
			c-2.976,5.271-6.334,8.621-10.083,10.051c-1.667,0.641-2.595,0.717-2.78,0.231c-0.087-0.229-0.002-0.385,0.244-0.479
			c0.181-0.071,0.324-0.099,0.432-0.084c0.901-0.075,1.715-0.25,2.437-0.532c3.048-1.159,5.597-3.696,7.644-7.604
			c1.262-2.393,2.167-4.99,2.729-7.791c0.484-2.251,1.381-8.228,2.691-17.928l1.593-11.464l-3.62,1.383l0.08-0.611l3.684-1.408
			c1.021-5.998,2.597-11.453,4.73-16.363c2.13-4.911,4.142-7.728,6.039-8.452C487.578,163.746,488.29,164.081,488.693,165.14z
			 M488.26,165.228c-0.283-0.743-0.798-0.975-1.541-0.688c-1.716,0.654-3.303,3.508-4.759,8.56
			c-0.708,2.546-1.504,7.089-2.396,13.632c2.719-3.984,4.985-8.208,6.796-12.674C488.171,169.593,488.804,166.649,488.26,165.228z"
			/>
	</g>
</g>
</svg>
